<svg  xmlns="http://www.w3.org/2000/svg" xmlns:xlink="http://www.w3.org/1999/xlink" x="0px" y="0px" version="2.0" xml:space="preserve"  preserveAspectRatio="xMidYMid meet">
	<symbol id="home" viewBox="0 0 27.02 27.02"><path d="M3.674,24.876c0,0-0.024,0.604,0.566,0.604c0.734,0,6.811-0.008,6.811-0.008l0.01-5.581c0,0-0.096-0.92,0.797-0.92h2.826c1.056,0,0.991,0.92,0.991,0.92l-0.012,5.563c0,0,5.762,0,6.667,0c0.749,0,0.715-0.752,0.715-0.752V14.413l-9.396-8.358l-9.975,8.358C3.674,14.413,3.674,24.876,3.674,24.876z" /><path d="M0,13.635c0,0,0.847,1.561,2.694,0l11.038-9.338l10.349,9.28c2.138,1.542,2.939,0,2.939,0L13.732,1.54L0,13.635z" /><polygon points="23.83,4.275 21.168,4.275 21.179,7.503 23.83,9.752" /></symbol>
	<symbol id="folder" viewBox="0 0 60 60"><path d="M14,23.5c-0.254,0-0.479,0.172-0.545,0.417L2,52.5v1c0,0.734-0.047,1,0.565,1h44.759c1.156,0,2.174-0.779,2.45-1.813L60,24.5c0,0,0-0.625,0-1H14z"/><path d="M12.731,21.5H53h1v-6.268c0-1.507-1.226-2.732-2.732-2.732H26.515l-5-7H2.732C1.226,5.5,0,6.726,0,8.232v41.796l10.282-26.717C10.557,22.279,11.575,21.5,12.731,21.5z"/></symbol>
	<symbol id="templates" viewBox="0 0 512 512" ><path d="M496,108.132H273.448l-72.576-71.256H0v122.752v299.496c0,8.8,7.2,16,16,16h480c8.8,0,16-7.2,16-16V124.132C512,115.332,504.8,108.132,496,108.132z M32,68.868h155.8l39.984,39.256H32V68.868z M480,443.124H32V140.132h448V443.124z"/><rect x="92.648" y="186.38" width="84.992" height="84.992"/><rect x="214.816" y="186.38" width="84.992" height="84.992"/><rect x="336.96" y="186.38" width="84.992" height="84.992"/><rect x="92.648" y="310.668" width="84.992" height="84.992"/><rect x="214.816" y="310.668" width="84.992" height="84.992"/><rect x="336.96" y="310.668" width="84.992" height="84.992"/></symbol>
	<symbol id="tutorials" viewBox="0 0 512 512"><path d="M496,108.136H273.448l-72.576-71.264H0v87.264v35.488v299.504c0,8.8,7.2,16,16,16h480c8.8,0,16-7.2,16-16V124.136 C512,115.336,504.8,108.136,496,108.136z M32,68.872h155.8l39.984,39.264H32V68.872z M480,443.128H32V159.624v-19.488h448V443.128z"/><circle cx="256" cy="291.48" r="32.808"/><path d="M379.08,309.928v-36.912l-37.552-3.752c-2.144-7.904-5.432-15.328-9.64-22.128l24.216-29.6l-26.096-26.096l-30.792,25.192c-6.44-3.392-13.36-6-20.64-7.64l-4.048-40.528H256.08h-0.152h-18.456l-4.048,40.528c-7.288,1.64-14.2,4.248-20.64,7.64l-30.8-25.192l-26.096,26.096l24.216,29.6c-4.2,6.8-7.496,14.232-9.64,22.128l-37.552,3.752v36.912l37.616,3.76c2.168,7.88,5.408,15.312,9.616,22.112l-24.24,29.616L182,391.512l30.776-25.184c6.44,3.384,13.36,5.984,20.648,7.64l4.048,40.528h18.456h0.152h18.456l4.048-40.528c7.288-1.64,14.208-4.248,20.648-7.64l30.776,25.184l26.096-26.096l-24.24-29.632c4.192-6.784,7.44-14.224,9.608-22.104L379.08,309.928z M256,346.984c-30.656,0-55.504-24.856-55.504-55.504s24.848-55.504,55.504-55.504s55.504,24.856,55.504,55.504S286.656,346.984,256,346.984z"/></symbol>
	<symbol id="folderPapper" viewBox="0 0 512 512"><path d="M128,80c-4.8,0-8,3.2-8,8s3.2,8,8,8h8c4.8,0,8-3.2,8-8s-3.2-8-8-8H128z"/><path d="M160,80c-4.8,0-8,3.2-8,8s3.2,8,8,8h8c4.8,0,8-3.2,8-8s-3.2-8-8-8H160z"/><path d="M96,96h8c4.8,0,8-3.2,8-8s-3.2-8-8-8h-8c-4.8,0-8,3.2-8,8S91.2,96,96,96z"/><path d="M96,64h88c4.8,0,8-3.2,8-8s-3.2-8-8-8H96c-4.8,0-8,3.2-8,8S91.2,64,96,64z"/><path d="M88,144c0,4.8,3.2,8,8,8h240c4.8,0,8-3.2,8-8s-3.2-8-8-8H96C91.2,136,88,139.2,88,144z"/><path d="M336,168H192c-4.8,0-8,3.2-8,8s3.2,8,8,8h144c4.8,0,8-3.2,8-8S340.8,168,336,168z"/><path d="M336,200H208c-4.8,0-8,3.2-8,8s3.2,8,8,8h128c4.8,0,8-3.2,8-8S340.8,200,336,200z"/><path d="M80,480c4.8,0,8-3.2,8-8s-3.2-8-8-8h-8c-4.8,0-8,3.2-8,8s3.2,8,8,8H80z"/><path d="M112,480c4.8,0,8-3.2,8-8s-3.2-8-8-8h-8c-4.8,0-8,3.2-8,8s3.2,8,8,8H112z"/><path d="M48,480c4.8,0,8-3.2,8-8s-3.2-8-8-8h-8c-4.8,0-8,3.2-8,8s3.2,8,8,8H48z"/><path d="M384,296c4.8,0,8-3.2,8-8s-3.2-8-8-8h-8c-4.8,0-8,3.2-8,8s3.2,8,8,8H384z"/><path d="M416,296c4.8,0,8-3.2,8-8s-3.2-8-8-8h-8c-4.8,0-8,3.2-8,8s3.2,8,8,8H416z"/><path d="M352,296c4.8,0,8-3.2,8-8s-3.2-8-8-8h-8c-4.8,0-8,3.2-8,8s3.2,8,8,8H352z"/><path d="M8,344c4.8,0,8-3.2,8-8v-8c0-4.8-3.2-8-8-8s-8,3.2-8,8v8C0,340.8,3.2,344,8,344z"/><path d="M509.6,250.4c-0.8-1.6-3.2-2.4-5.6-2.4h-24V56c0-2.4-0.8-4-2.4-5.6l-48-48c-3.2-3.2-8-3.2-11.2,0c-3.2,3.2-3.2,8,0,11.2 L464,59.2V344c0,4.8,3.2,8,8,8s8-3.2,8-8v-80h15.2l-22.4,232H448V256c0-4.8-3.2-8-8-8V72c0-2.4-0.8-4-2.4-5.6l-64-64     c-3.2-3.2-8-3.2-11.2,0c-3.2,3.2-3.2,8,0,11.2L424,75.2V248h-24V88c0-2.4-0.8-4-2.4-5.6l-80-80C316,0.8,314.4,0,312,0H40     c-4.8,0-8,3.2-8,8v168H8c-4.8,0-8,3.2-8,8v112c0,4.8,3.2,8,8,8s8-3.2,8-8V192h139.2l29.6,67.2c1.6,3.2,4,4.8,7.2,4.8h198.4     c0.8,0,0.8,0,1.6,0c0.8,0,0.8,0,1.6,0H432v232H16V368c0-4.8-3.2-8-8-8s-8,3.2-8,8v136c0,4.8,3.2,8,8,8h432h40c4,0,7.2-3.2,8-7.2     l24-248C512,254.4,511.2,252,509.6,250.4z M320,27.2L372.8,80H320V27.2z M384,248H196.8l-29.6-67.2c-0.8-3.2-4-4.8-7.2-4.8H48V16     h256v72c0,4.8,3.2,8,8,8h72V248z"/></symbol>  -->
	<symbol id="apis" viewBox="0 0 512 512" ><path d="M496,108.132H273.456l-72.584-71.256H0v87.256v35.496v299.496c0,8.8,7.2,16,16,16h480c8.8,0,16-7.2,16-16V124.132C512,115.332,504.8,108.132,496,108.132z M32,68.876h155.8l39.984,39.256H32V68.876z M480,443.124H32V159.62v-19.496h448V443.124z"/><polygon points="214.048,230.468 103.344,278.388 103.344,305.044 214.048,353.188 214.048,322.004 136.832,291.38 214.048,261.868"/><polygon points="264.28,207.34 224.296,374.332 247.096,374.332 287.52,207.34"/><polygon points="297.76,230.7 297.76,261.652 375.088,291.716 297.76,322.116 297.76,353.292 408.576,305.044 408.576,278.612 "/></symbol>
	<symbol id="linkedin" viewBox="0 0 512 512"><path d="m256 0c-141.363281 0-256 114.636719-256 256s114.636719 256 256 256 256-114.636719 256-256-114.636719-256-256-256zm-74.390625 387h-62.347656v-187.574219h62.347656zm-31.171875-213.1875h-.40625c-20.921875 0-34.453125-14.402344-34.453125-32.402344 0-18.40625 13.945313-32.410156 35.273437-32.410156 21.328126 0 34.453126 14.003906 34.859376 32.410156 0 18-13.53125 32.402344-35.273438 32.402344zm255.984375 213.1875h-62.339844v-100.347656c0-25.21875-9.027343-42.417969-31.585937-42.417969-17.222656 0-27.480469 11.601563-31.988282 22.800781-1.648437 4.007813-2.050781 9.609375-2.050781 15.214844v104.75h-62.34375s.816407-169.976562 0-187.574219h62.34375v26.558594c8.285157-12.78125 23.109375-30.960937 56.1875-30.960937 41.019531 0 71.777344 26.808593 71.777344 84.421874zm0 0"/></symbol>
	<symbol id="github" viewBox="0 0 32 32"><path d="M16 0.395c-8.836 0-16 7.163-16 16 0 7.069 4.585 13.067 10.942 15.182 0.8 0.148 1.094-0.347 1.094-0.77 0-0.381-0.015-1.642-0.022-2.979-4.452 0.968-5.391-1.888-5.391-1.888-0.728-1.849-1.776-2.341-1.776-2.341-1.452-0.993 0.11-0.973 0.11-0.973 1.606 0.113 2.452 1.649 2.452 1.649 1.427 2.446 3.743 1.739 4.656 1.33 0.143-1.034 0.558-1.74 1.016-2.14-3.554-0.404-7.29-1.777-7.29-7.907 0-1.747 0.625-3.174 1.649-4.295-0.166-0.403-0.714-2.030 0.155-4.234 0 0 1.344-0.43 4.401 1.64 1.276-0.355 2.645-0.532 4.005-0.539 1.359 0.006 2.729 0.184 4.008 0.539 3.054-2.070 4.395-1.64 4.395-1.64 0.871 2.204 0.323 3.831 0.157 4.234 1.026 1.12 1.647 2.548 1.647 4.295 0 6.145-3.743 7.498-7.306 7.895 0.574 0.497 1.085 1.47 1.085 2.963 0 2.141-0.019 3.864-0.019 4.391 0 0.426 0.288 0.925 1.099 0.768 6.354-2.118 10.933-8.113 10.933-15.18 0-8.837-7.164-16-16-16z"></path></symbol>
	<symbol id="fileInFolder" viewBox="0 0 45 45"><path d="M44.449,16.561c-0.475-0.591-1.191-0.936-1.949-0.936H40c0-1.381-1.119-2.5-2.5-2.5H35v-2.5c0-1.381-1.119-2.5-2.5-2.5h-1.25v-5c0-0.69-0.561-1.25-1.25-1.25H5c-0.691,0-1.25,0.56-1.25,1.25v5H2.5c-1.381,0-2.5,1.119-2.5,2.5v30c0,1.381,1.119,2.5,2.5,2.5h5h25h5c1.172,0,2.188-0.814,2.439-1.958l5-22.5C45.105,17.927,44.924,17.152,44.449,16.561zM3.75,40.625H2.5v-30h1.25V40.625z M30,13.125c-1.381,0-2.5,1.119-2.5,2.5h-15c-1.172,0-2.188,0.814-2.441,1.958c0,0-5.057,22.862-5.057,23.042H5v-37.5h25V13.125z M32.5,13.125h-1.25v-2.5h1.25V13.125z M24.833,8.667H9.917c-0.69,0-1.25-0.56-1.25-1.25s0.56-1.25,1.25-1.25h14.916c0.69,0,1.25,0.56,1.25,1.25S25.523,8.667,24.833,8.667z M24.833,13.75H9.917c-0.69,0-1.25-0.56-1.25-1.25s0.56-1.25,1.25-1.25h14.916c0.69,0,1.25,0.56,1.25,1.25S25.523,13.75,24.833,13.75z"/></symbol>  
	<symbol id="lookInFolder" viewBox="0 0 45 45"><path d="M25.186,28.1c-0.987,1.211-2.427,1.838-3.875,1.838c-1.112,0-2.231-0.369-3.159-1.127c-2.139-1.746-2.457-4.896-0.71-7.036c0.988-1.21,2.426-1.837,3.876-1.837c1.112,0,2.231,0.369,3.162,1.127C26.613,22.812,26.934,25.961,25.186,28.1z M44.939,15.542l-5,22.5C39.688,39.186,38.671,40,37.5,40h-5h-25h-5C1.119,40,0,38.881,0,37.5v-30C0,6.119,1.119,5,2.5,5h30C33.881,5,35,6.119,35,7.5V10h2.5c1.381,0,2.5,1.119,2.5,2.5h2.5c0.758,0,1.477,0.344,1.95,0.936C44.925,14.027,45.105,14.802,44.939,15.542z M12.5,12.5h15c0-1.381,1.119-2.5,2.5-2.5h2.5V7.5h-30v30h2.502c0-0.182,5.058-23.042,5.058-23.042C10.313,13.314,11.328,12.5,12.5,12.5z M33.154,32.98l-3.945-3.222c-0.344-0.28-0.771-0.378-1.178-0.315l-0.459-0.375c0.953-1.438,1.378-3.146,1.201-4.885c-0.2-1.994-1.166-3.789-2.717-5.057c-1.336-1.09-3.021-1.691-4.743-1.691c-2.263,0-4.382,1.004-5.813,2.756c-2.616,3.205-2.138,7.938,1.065,10.554c1.335,1.09,3.019,1.689,4.741,1.689c1.843,0,3.583-0.675,4.94-1.867l0.521,0.424c0.02,0.408,0.199,0.81,0.543,1.09l3.944,3.221c0.279,0.229,0.614,0.34,0.948,0.34c0.436,0,0.865-0.188,1.163-0.553C33.893,34.45,33.796,33.505,33.154,32.98z"/></symbol> 

	<symbol id="contact" viewBox="0 0 455 455"><polygon points="55,98.788 19.723,98.788 19.723,128.788 55,128.788 55,212.5 15,212.5 15,242.5 55,242.5 55,326.212 15,326.212 15,356.212 55,356.212 55,455 125,455 125,0 55,0 	"/><path d="M155,0v455h285V0H155z M297.5,135.862c24.377,0,44.138,19.761,44.138,44.138s-19.761,44.138-44.138,44.138 S253.362,204.377,253.362,180S273.123,135.862,297.5,135.862z M217.5,319.138c0-44.183,35.817-80,80-80s80,35.817,80,80H217.5z"/></symbol>
</svg>
