<?xml version="1.0" encoding="iso-8859-1"?>
<!-- Generator: Adobe Illustrator 19.0.0, SVG Export Plug-In . SVG Version: 6.00 Build 0)  -->
<svg version="1.1" id="Layer_1" xmlns="http://www.w3.org/2000/svg" xmlns:xlink="http://www.w3.org/1999/xlink" x="0px" y="0px"
	 viewBox="0 0 512 512" style="enable-background:new 0 0 512 512;" xml:space="preserve">
<g>
	<g>
		<path d="M496,108.132H273.456l-72.584-71.256H0v87.256v35.496v299.496c0,8.8,7.2,16,16,16h480c8.8,0,16-7.2,16-16V124.132
			C512,115.332,504.8,108.132,496,108.132z M32,68.876h155.8l39.984,39.256H32V68.876z M480,443.124H32V159.62v-19.496h448V443.124z
			"/>
	</g>
</g>
<g>
	<g>
		<polygon points="214.048,230.468 103.344,278.388 103.344,305.044 214.048,353.188 214.048,322.004 136.832,291.38 
			214.048,261.868 		"/>
	</g>
</g>
<g>
	<g>
		<polygon points="264.28,207.34 224.296,374.332 247.096,374.332 287.52,207.34 		"/>
	</g>
</g>
<g>
	<g>
		<polygon points="297.76,230.7 297.76,261.652 375.088,291.716 297.76,322.116 297.76,353.292 408.576,305.044 408.576,278.612 		
			"/>
	</g>
</g>
<g>
</g>
<g>
</g>
<g>
</g>
<g>
</g>
<g>
</g>
<g>
</g>
<g>
</g>
<g>
</g>
<g>
</g>
<g>
</g>
<g>
</g>
<g>
</g>
<g>
</g>
<g>
</g>
<g>
</g>
</svg>
