<?xml version="1.0" encoding="UTF-8"?>
<svg version="2.0" xml:space="preserve" xmlns="http://www.w3.org/2000/svg">
<symbol viewBox="0 0 27.02 27.02"><path d="m3.674 24.876s-0.024 0.604 0.566 0.604c0.734 0 6.811-8e-3 6.811-8e-3l0.01-5.581s-0.096-0.92 0.797-0.92h2.826c1.056 0 0.991 0.92 0.991 0.92l-0.012 5.563h6.667c0.749 0 0.715-0.752 0.715-0.752v-10.289l-9.396-8.358-9.975 8.358v10.463z"/><path d="M0,13.635c0,0,0.847,1.561,2.694,0l11.038-9.338l10.349,9.28c2.138,1.542,2.939,0,2.939,0L13.732,1.54L0,13.635z"/><polygon points="23.83 4.275 21.168 4.275 21.179 7.503 23.83 9.752"/></symbol>
<symbol viewBox="0 0 45 45"><path d="m25.186 28.1c-0.987 1.211-2.427 1.838-3.875 1.838-1.112 0-2.231-0.369-3.159-1.127-2.139-1.746-2.457-4.896-0.71-7.036 0.988-1.21 2.426-1.837 3.876-1.837 1.112 0 2.231 0.369 3.162 1.127 2.133 1.747 2.454 4.896 0.706 7.035zm19.753-12.558l-5 22.5c-0.251 1.144-1.268 1.958-2.439 1.958h-35c-1.381 0-2.5-1.119-2.5-2.5v-30c0-1.381 1.119-2.5 2.5-2.5h30c1.381 0 2.5 1.119 2.5 2.5v2.5h2.5c1.381 0 2.5 1.119 2.5 2.5h2.5c0.758 0 1.477 0.344 1.95 0.936 0.475 0.591 0.655 1.366 0.489 2.106zm-32.439-3.042h15c0-1.381 1.119-2.5 2.5-2.5h2.5v-2.5h-30v30h2.502c0-0.182 5.058-23.042 5.058-23.042 0.253-1.144 1.268-1.958 2.44-1.958zm20.654 20.48l-3.945-3.222c-0.344-0.28-0.771-0.378-1.178-0.315l-0.459-0.375c0.953-1.438 1.378-3.146 1.201-4.885-0.2-1.994-1.166-3.789-2.717-5.057-1.336-1.09-3.021-1.691-4.743-1.691-2.263 0-4.382 1.004-5.813 2.756-2.616 3.205-2.138 7.938 1.065 10.554 1.335 1.09 3.019 1.689 4.741 1.689 1.843 0 3.583-0.675 4.94-1.867l0.521 0.424c0.02 0.408 0.199 0.81 0.543 1.09l3.944 3.221c0.279 0.229 0.614 0.34 0.948 0.34 0.436 0 0.865-0.188 1.163-0.553 0.528-0.639 0.431-1.584-0.211-2.109z"/></symbol> 
<symbol viewBox="0 0 45 45"><path d="m44.449 16.561c-0.475-0.591-1.191-0.936-1.949-0.936h-2.5c0-1.381-1.119-2.5-2.5-2.5h-2.5v-2.5c0-1.381-1.119-2.5-2.5-2.5h-1.25v-5c0-0.69-0.561-1.25-1.25-1.25h-25c-0.691 0-1.25 0.56-1.25 1.25v5h-1.25c-1.381 0-2.5 1.119-2.5 2.5v30c0 1.381 1.119 2.5 2.5 2.5h35c1.172 0 2.188-0.814 2.439-1.958l5-22.5c0.166-0.74-0.015-1.515-0.49-2.106zm-40.699 24.064h-1.25v-30h1.25v30zm26.25-27.5c-1.381 0-2.5 1.119-2.5 2.5h-15c-1.172 0-2.188 0.814-2.441 1.958 0 0-5.057 22.862-5.057 23.042h-2e-3v-37.5h25v10zm2.5 0h-1.25v-2.5h1.25v2.5zm-7.667-4.458h-14.916c-0.69 0-1.25-0.56-1.25-1.25s0.56-1.25 1.25-1.25h14.916c0.69 0 1.25 0.56 1.25 1.25s-0.56 1.25-1.25 1.25zm0 5.083h-14.916c-0.69 0-1.25-0.56-1.25-1.25s0.56-1.25 1.25-1.25h14.916c0.69 0 1.25 0.56 1.25 1.25s-0.56 1.25-1.25 1.25z"/></symbol>  
<symbol viewBox="0 0 455 455"><polygon points="55 98.788 19.723 98.788 19.723 128.79 55 128.79 55 212.5 15 212.5 15 242.5 55 242.5 55 326.21 15 326.21 15 356.21 55 356.21 55 455 125 455 125 0 55 0"/><path d="m155 0v455h285v-455h-285zm142.5 135.86c24.377 0 44.138 19.761 44.138 44.138s-19.761 44.138-44.138 44.138-44.138-19.761-44.138-44.138 19.761-44.138 44.138-44.138zm-80 183.28c0-44.183 35.817-80 80-80s80 35.817 80 80h-160z"/></symbol>
<symbol viewBox="0 0 512 512"><path d="m128 80c-4.8 0-8 3.2-8 8s3.2 8 8 8h8c4.8 0 8-3.2 8-8s-3.2-8-8-8h-8z"/><path d="m160 80c-4.8 0-8 3.2-8 8s3.2 8 8 8h8c4.8 0 8-3.2 8-8s-3.2-8-8-8h-8z"/><path d="m96 96h8c4.8 0 8-3.2 8-8s-3.2-8-8-8h-8c-4.8 0-8 3.2-8 8s3.2 8 8 8z"/><path d="m96 64h88c4.8 0 8-3.2 8-8s-3.2-8-8-8h-88c-4.8 0-8 3.2-8 8s3.2 8 8 8z"/><path d="m88 144c0 4.8 3.2 8 8 8h240c4.8 0 8-3.2 8-8s-3.2-8-8-8h-240c-4.8 0-8 3.2-8 8z"/><path d="m336 168h-144c-4.8 0-8 3.2-8 8s3.2 8 8 8h144c4.8 0 8-3.2 8-8s-3.2-8-8-8z"/><path d="m336 200h-128c-4.8 0-8 3.2-8 8s3.2 8 8 8h128c4.8 0 8-3.2 8-8s-3.2-8-8-8z"/><path d="m80 480c4.8 0 8-3.2 8-8s-3.2-8-8-8h-8c-4.8 0-8 3.2-8 8s3.2 8 8 8h8z"/><path d="m112 480c4.8 0 8-3.2 8-8s-3.2-8-8-8h-8c-4.8 0-8 3.2-8 8s3.2 8 8 8h8z"/><path d="m48 480c4.8 0 8-3.2 8-8s-3.2-8-8-8h-8c-4.8 0-8 3.2-8 8s3.2 8 8 8h8z"/><path d="m384 296c4.8 0 8-3.2 8-8s-3.2-8-8-8h-8c-4.8 0-8 3.2-8 8s3.2 8 8 8h8z"/><path d="m416 296c4.8 0 8-3.2 8-8s-3.2-8-8-8h-8c-4.8 0-8 3.2-8 8s3.2 8 8 8h8z"/><path d="m352 296c4.8 0 8-3.2 8-8s-3.2-8-8-8h-8c-4.8 0-8 3.2-8 8s3.2 8 8 8h8z"/><path d="m8 344c4.8 0 8-3.2 8-8v-8c0-4.8-3.2-8-8-8s-8 3.2-8 8v8c0 4.8 3.2 8 8 8z"/><path d="m509.6 250.4c-0.8-1.6-3.2-2.4-5.6-2.4h-24v-192c0-2.4-0.8-4-2.4-5.6l-48-48c-3.2-3.2-8-3.2-11.2 0s-3.2 8 0 11.2l45.6 45.6v284.8c0 4.8 3.2 8 8 8s8-3.2 8-8v-80h15.2l-22.4 232h-24.8v-240c0-4.8-3.2-8-8-8v-176c0-2.4-0.8-4-2.4-5.6l-64-64c-3.2-3.2-8-3.2-11.2 0s-3.2 8 0 11.2l61.6 61.6v172.8h-24v-160c0-2.4-0.8-4-2.4-5.6l-80-80c-1.6-1.6-3.2-2.4-5.6-2.4h-272c-4.8 0-8 3.2-8 8v168h-24c-4.8 0-8 3.2-8 8v112c0 4.8 3.2 8 8 8s8-3.2 8-8v-104h139.2l29.6 67.2c1.6 3.2 4 4.8 7.2 4.8h198.4 1.6 1.6 38.4v232h-416v-128c0-4.8-3.2-8-8-8s-8 3.2-8 8v136c0 4.8 3.2 8 8 8h472c4 0 7.2-3.2 8-7.2l24-248c0-2.4-0.8-4.8-2.4-6.4zm-189.6-223.2l52.8 52.8h-52.8v-52.8zm64 220.8h-187.2l-29.6-67.2c-0.8-3.2-4-4.8-7.2-4.8h-112v-160h256v72c0 4.8 3.2 8 8 8h72v152z"/></symbol>  --&gt;
<symbol viewBox="0 0 512 512"><path d="m256 0c-141.36 0-256 114.64-256 256s114.64 256 256 256 256-114.64 256-256-114.64-256-256-256zm-74.391 387h-62.348v-187.57h62.348zm-31.172-213.19h-0.40625c-20.922 0-34.453-14.402-34.453-32.402 0-18.406 13.945-32.41 35.273-32.41 21.328 0 34.453 14.004 34.859 32.41 0 18-13.531 32.402-35.273 32.402zm255.98 213.19h-62.34v-100.35c0-25.219-9.0273-42.418-31.586-42.418-17.223 0-27.48 11.602-31.988 22.801-1.6484 4.0078-2.0508 9.6094-2.0508 15.215v104.75h-62.344s0.81641-169.98 0-187.57h62.344v26.559c8.2852-12.781 23.109-30.961 56.188-30.961 41.02 0 71.777 26.809 71.777 84.422z"/></symbol>
<symbol viewBox="0 0 32 32"><path d="m16 0.395c-8.836 0-16 7.163-16 16 0 7.069 4.585 13.067 10.942 15.182 0.8 0.148 1.094-0.347 1.094-0.77 0-0.381-0.015-1.642-0.022-2.979-4.452 0.968-5.391-1.888-5.391-1.888-0.728-1.849-1.776-2.341-1.776-2.341-1.452-0.993 0.11-0.973 0.11-0.973 1.606 0.113 2.452 1.649 2.452 1.649 1.427 2.446 3.743 1.739 4.656 1.33 0.143-1.034 0.558-1.74 1.016-2.14-3.554-0.404-7.29-1.777-7.29-7.907 0-1.747 0.625-3.174 1.649-4.295-0.166-0.403-0.714-2.03 0.155-4.234 0 0 1.344-0.43 4.401 1.64 1.276-0.355 2.645-0.532 4.005-0.539 1.359 6e-3 2.729 0.184 4.008 0.539 3.054-2.07 4.395-1.64 4.395-1.64 0.871 2.204 0.323 3.831 0.157 4.234 1.026 1.12 1.647 2.548 1.647 4.295 0 6.145-3.743 7.498-7.306 7.895 0.574 0.497 1.085 1.47 1.085 2.963 0 2.141-0.019 3.864-0.019 4.391 0 0.426 0.288 0.925 1.099 0.768 6.354-2.118 10.933-8.113 10.933-15.18 0-8.837-7.164-16-16-16z"/></symbol>
<symbol viewBox="0 0 60 60"><path d="M14,23.5c-0.254,0-0.479,0.172-0.545,0.417L2,52.5v1c0,0.734-0.047,1,0.565,1h44.759c1.156,0,2.174-0.779,2.45-1.813L60,24.5c0,0,0-0.625,0-1H14z"/><path d="M12.731,21.5H53h1v-6.268c0-1.507-1.226-2.732-2.732-2.732H26.515l-5-7H2.732C1.226,5.5,0,6.726,0,8.232v41.796l10.282-26.717C10.557,22.279,11.575,21.5,12.731,21.5z"/></symbol>
<symbol viewBox="0 0 512 512"><path d="m496 108.14h-222.55l-72.576-71.264h-200.87v422.26c0 8.8 7.2 16 16 16h480c8.8 0 16-7.2 16-16v-334.99c0-8.8-7.2-16-16-16zm-464-39.264h155.8l39.984 39.264h-195.78v-39.264zm448 374.26h-448v-302.99h448v302.99z"/><circle cx="256" cy="291.48" r="32.808"/><path d="m379.08 309.93v-36.912l-37.552-3.752c-2.144-7.904-5.432-15.328-9.64-22.128l24.216-29.6-26.096-26.096-30.792 25.192c-6.44-3.392-13.36-6-20.64-7.64l-4.048-40.528h-37.056l-4.048 40.528c-7.288 1.64-14.2 4.248-20.64 7.64l-30.8-25.192-26.096 26.096 24.216 29.6c-4.2 6.8-7.496 14.232-9.64 22.128l-37.552 3.752v36.912l37.616 3.76c2.168 7.88 5.408 15.312 9.616 22.112l-24.24 29.616 26.096 26.096 30.776-25.184c6.44 3.384 13.36 5.984 20.648 7.64l4.048 40.528h37.064l4.048-40.528c7.288-1.64 14.208-4.248 20.648-7.64l30.776 25.184 26.096-26.096-24.24-29.632c4.192-6.784 7.44-14.224 9.608-22.104l37.608-3.752zm-123.08 37.056c-30.656 0-55.504-24.856-55.504-55.504s24.848-55.504 55.504-55.504 55.504 24.856 55.504 55.504-24.848 55.504-55.504 55.504z"/></symbol>
<symbol viewBox="0 0 512 512"><path d="m496 108.13h-222.55l-72.576-71.256h-200.87v422.25c0 8.8 7.2 16 16 16h480c8.8 0 16-7.2 16-16v-334.99c0-8.8-7.2-16-16-16zm-464-39.264h155.8l39.984 39.256h-195.78v-39.256zm448 374.26h-448v-302.99h448v302.99z"/><rect x="92.648" y="186.38" width="84.992" height="84.992"/><rect x="214.82" y="186.38" width="84.992" height="84.992"/><rect x="336.96" y="186.38" width="84.992" height="84.992"/><rect x="92.648" y="310.67" width="84.992" height="84.992"/><rect x="214.82" y="310.67" width="84.992" height="84.992"/><rect x="336.96" y="310.67" width="84.992" height="84.992"/></symbol>
<symbol viewBox="0 0 512 512"><path d="m496 108.13h-222.54l-72.584-71.256h-200.87v422.25c0 8.8 7.2 16 16 16h480c8.8 0 16-7.2 16-16v-334.99c0-8.8-7.2-16-16-16zm-464-39.256h155.8l39.984 39.256h-195.78v-39.256zm448 374.25h-448v-303h448v303z"/><polygon points="214.05 230.47 103.34 278.39 103.34 305.04 214.05 353.19 214.05 322 136.83 291.38 214.05 261.87"/><polygon points="264.28 207.34 224.3 374.33 247.1 374.33 287.52 207.34"/><polygon points="297.76 230.7 297.76 261.65 375.09 291.72 297.76 322.12 297.76 353.29 408.58 305.04 408.58 278.61"/></symbol>
<symbol viewBox="0 0 198 198"><path d="M0,92.905h48.024c-0.821,35-10.748,38.973-23.216,40.107L20,133.608v38.486l5.542-0.297c16.281-0.916,34.281-3.851,46.29-18.676C82.359,140.125,87,118.893,87,86.3V25.905H0V92.905z"/><path d="M111,25.905v67h47.383c-0.821,35-10.427,38.973-22.895,40.107L131,133.608v38.486l5.222-0.297c16.281-0.916,34.442-3.851,46.451-18.676C193.199,140.125,198,118.893,198,86.3V25.905H111z"/></symbol>
<symbol viewBox="0 0 52 52"><path d="m26 0c-14.336 0-26 11.663-26 26s11.664 26 26 26 26-11.663 26-26-11.664-26-26-26zm14.495 17.329l-16 18c-0.394 0.443-0.943 0.671-1.496 0.671-0.439 0-0.88-0.144-1.249-0.438l-10-8c-0.862-0.689-1.002-1.948-0.312-2.811 0.689-0.863 1.949-1.003 2.811-0.313l8.517 6.813 14.739-16.581c0.732-0.826 1.998-0.9 2.823-0.166 0.826 0.735 0.901 1.999 0.167 2.825z"/></symbol>	
<symbol viewBox="0 0 426.667 426.667"><path d="M213.333,0C95.573,0,0,95.467,0,213.333s95.573,213.333,213.333,213.333S426.667,331.2,426.667,213.333 S331.093,0,213.333,0z M234.667,320H192v-42.667h42.667V320z M234.667,234.667H192v-128h42.667V234.667z"/></symbol>
<symbol viewBox="0 0 312.553 312.553"><path d="m302.55 0h-292.55c-5.523 0-10 4.478-10 10v292.55c0 5.522 4.477 10 10 10h292.55c5.523 0 10-4.478 10-10v-292.55c0-5.522-4.477-10-10-10zm-154.47 193.29c-9.481 8.296-21.592 12.866-34.102 12.866-28.109 0-50.977-22.4-50.977-49.934 0-27.471 22.868-49.819 50.977-49.819 12.527 0 24.597 4.53 33.987 12.756 3.873 3.393 4.262 9.283 0.868 13.156-3.392 3.874-9.283 4.265-13.156 0.869-5.987-5.245-13.694-8.135-21.699-8.135-17.827 0-32.33 13.984-32.33 31.173 0 17.251 14.503 31.286 32.33 31.286 7.991 0 15.741-2.931 21.822-8.252 3.875-3.391 9.765-2.998 13.157 0.877 3.391 3.876 2.998 9.766-0.877 13.157zm92.133-31.001c5.15 0 9.324 4.174 9.324 9.323s-4.174 9.323-9.324 9.323h-10.869l-3.378 14.904c-0.981 4.328-4.826 7.265-9.085 7.265-0.683 0-1.376-0.075-2.069-0.232-5.022-1.139-8.17-6.132-7.032-11.153l2.444-10.783h-20.201l-3.378 14.904c-0.981 4.328-4.826 7.265-9.084 7.265-0.683 0-1.376-0.075-2.069-0.232-5.022-1.139-8.17-6.132-7.032-11.153l2.448-10.799c-5.007-0.162-9.019-4.262-9.019-9.308 0-5.149 4.174-9.323 9.324-9.323h3.917l2.725-12.02h-6.642c-5.149 0-9.324-4.174-9.324-9.322 0-5.15 4.174-9.324 9.324-9.324h10.869l3.378-14.904c1.138-5.021 6.134-8.17 11.154-7.032 5.022 1.139 8.17 6.132 7.032 11.153l-2.444 10.783h20.201l3.378-14.904c1.138-5.021 6.133-8.17 11.154-7.032 5.022 1.139 8.17 6.132 7.032 11.153l-2.448 10.799c5.007 0.162 9.019 4.262 9.019 9.309 0 5.148-4.174 9.322-9.324 9.322h-3.917l-2.725 12.02h6.641z"/><polygon points="194.26 162.29 214.46 162.29 217.18 150.27 196.98 150.27"/></symbol>
<symbol viewBox="0 0 512 512"><path d="m32 0l40.8 460.8 183.2 51.2 183.14-51.168 40.864-460.83h-448zm360.77 150.69l-5.152 57.888-15.52 173.57-116.1 32.064-0.064 0.032-116-32.128-8.128-90.752h56.832l4.224 47.104 63.072 17.024 0.064-0.064 63.136-17.024 8.608-78.432-198.66 0.544-5.632-53.664 209.06-2.432 4.224-57.44-218.88 0.608-3.68-53.376h283.65l-5.056 56.48z"/></symbol>
<symbol viewBox="0 0 299.215 299.215"><path d="m22.347 0c-2.75 0-4.799 2.241-4.555 4.98l23.184 260.05c0.244 2.739 2.611 5.582 5.262 6.318l98.381 27.316c2.65 0.736 6.986 0.736 9.637 2e-3l98.68-27.361c2.65-0.735 5.02-3.578 5.264-6.316l23.222-260.01c0.246-2.739-1.805-4.98-4.555-4.98h-254.52zm209.7 59.641c-0.219 2.443-0.598 6.684-0.842 9.423l-0.611 6.823c-0.246 2.738-0.596 6.654-0.781 8.701-0.184 2.048-0.359 3.723-0.391 3.723h-5.057-69.76-5.053s-2.305 0-5.055 0h-36.74c-2.75 0-4.799 2.241-4.555 4.98l2.143 23.955c0.244 2.738 2.695 4.98 5.445 4.98h33.708 5.055s2.303 0 5.053 0h57.939 9.457c2.449 0 4.273 1.999 4.051 4.442-0.223 2.443-0.604 6.685-0.848 9.423l-6.891 77.228c-0.246 2.739-0.557 6.238-0.691 7.776-0.137 1.537-2.416 3.396-5.066 4.131l-58.133 16.119c-2.65 0.734-4.852 1.342-4.893 1.351s-2.242-0.586-4.893-1.321l-58.195-16.148c-2.65-0.735-5.018-3.578-5.262-6.317l-3.746-42.045c-0.244-2.739 1.807-4.98 4.557-4.98h5.311 10 7.92c2.75 0 5.199 2.241 5.445 4.98l1.469 16.459c0.244 2.739 2.615 5.566 5.271 6.283l27.221 7.351c2.654 0.717 4.836 1.304 4.848 1.304s2.193-0.588 4.848-1.305l27.27-7.369c2.654-0.717 5.027-3.545 5.273-6.283l2.957-32.976c0.246-2.739-1.803-4.98-4.553-4.98h-30.666-5.053s-2.305 0-5.055 0h-63.989c-2.75 0-5.199-2.242-5.443-4.98l-7.256-81.306c-0.244-2.739-0.623-6.979-0.842-9.423-0.217-2.443 1.854-4.442 4.604-4.442h72.926 5.055s2.303 0 5.053 0h72.838c2.749 0 4.821 1.999 4.603 4.443z"/></symbol>
<symbol viewBox="0 0 312.553 312.553"><path d="m302.55 0h-292.55c-5.523 0-10 4.478-10 10v292.55c0 5.522 4.477 10 10 10h292.55c5.523 0 10-4.478 10-10v-292.55c0-5.522-4.477-10-10-10zm-158.93 173.73c0 18.615-10.434 30.179-27.232 30.179-10.55 0-19.978-5.292-26.547-14.901-2.905-4.251-1.815-10.053 2.436-12.959 4.252-2.906 10.055-1.814 12.959 2.436 3.074 4.498 6.826 6.778 11.152 6.778 3.419 0 8.586 0 8.586-11.532v-47.467h-25.475c-5.149 0-9.323-4.174-9.323-9.323s4.174-9.323 9.323-9.323h34.798c5.149 0 9.323 4.174 9.323 9.323v56.789zm45.816 31.868c-12.499 0-25.251-5.27-33.279-13.753-3.54-3.74-3.377-9.642 0.362-13.181 3.741-3.54 9.644-3.377 13.181 0.362 4.486 4.74 12.417 7.925 19.736 7.925 7.493 0 16.244-2.188 16.244-8.351 0.048-5.81-3.045-7.986-17.415-12.339-12.677-3.839-31.835-9.642-31.835-31.725 0-16.5 14.306-27.586 35.599-27.586 9.479 0 19.815 2.874 26.975 7.502 4.324 2.795 5.564 8.567 2.769 12.892-2.796 4.324-8.568 5.564-12.892 2.769-4.112-2.658-11.042-4.516-16.852-4.516-7.82 0-16.952 2.342-16.952 8.939 0 7.165 4.189 9.516 18.594 13.879 12.277 3.718 30.83 9.337 30.656 30.262-1e-3 16.071-14.022 26.921-34.891 26.921z"/></symbol>
<symbol viewBox="0 0 56 56"><path d="m12.03 4h2v2h-2z"/><path d="m4.03 4h2v2h-2z"/><path d="m20.03 4h2v2h-2z"/><path d="m53.53 0h-51c-1.378 0-2.5 1.122-2.5 2.5v7.5h56v-7.5c0-1.378-1.122-2.5-2.5-2.5zm-45.5 7c0 .552-.448 1-1 1h-4c-.552 0-1-.448-1-1v-4c0-.552.448-1 1-1h4c.552 0 1 .448 1 1zm8 0c0 .552-.448 1-1 1h-4c-.552 0-1-.448-1-1v-4c0-.552.448-1 1-1h4c.552 0 1 .448 1 1zm8 0c0 .552-.448 1-1 1h-4c-.552 0-1-.448-1-1v-4c0-.552.448-1 1-1h4c.552 0 1 .448 1 1z"/><path d="m4.03 52h18v-12h-18zm6-7h2v-2c0-.552.448-1 1-1s1 .448 1 1v2h2c.552 0 1 .448 1 1s-.448 1-1 1h-2v2c0 .552-.448 1-1 1s-1-.448-1-1v-2h-2c-.552 0-1-.448-1-1s.448-1 1-1z"/><path d="m14.03 16h-10v10h10zm-4 6h-2c-.552 0-1-.448-1-1s.448-1 1-1h2c.552 0 1 .448 1 1s-.448 1-1 1z"/><path d="m33.03 16h-10v10h10zm-4 6h-2c-.552 0-1-.448-1-1s.448-1 1-1h2c.552 0 1 .448 1 1s-.448 1-1 1z"/><path d="m29.03 52h23v-12h-23zm20-3h-12c-.552 0-1-.448-1-1s.448-1 1-1h12c.552 0 1 .448 1 1s-.448 1-1 1zm-1-6h1c.552 0 1 .448 1 1s-.448 1-1 1h-1c-.552 0-1-.448-1-1s.448-1 1-1zm-16 0h12c.552 0 1 .448 1 1s-.448 1-1 1h-12c-.552 0-1-.448-1-1s.448-1 1-1zm0 4h1c.552 0 1 .448 1 1s-.448 1-1 1h-1c-.552 0-1-.448-1-1s.448-1 1-1z"/><path d="m.03 12v41.5c0 1.379 1.122 2.5 2.5 2.5h51c1.378 0 2.5-1.122 2.5-2.5v-41.5zm41 22h1c.552 0 1 .448 1 1s-.448 1-1 1h-1c-.552 0-1-.448-1-1s.448-1 1-1zm-1-3c0-.552.448-1 1-1h7c.552 0 1 .448 1 1s-.448 1-1 1h-7c-.552 0-1-.448-1-1zm-19-16c0-.552.448-1 1-1h12c.552 0 1 .448 1 1v12c0 .552-.448 1-1 1h-12c-.552 0-1-.448-1-1zm14 16c0 .552-.448 1-1 1h-1c-.552 0-1-.448-1-1s.448-1 1-1h1c.552 0 1 .448 1 1zm-13-1h7c.552 0 1 .448 1 1s-.448 1-1 1h-7c-.552 0-1-.448-1-1s.448-1 1-1zm-20-15c0-.552.448-1 1-1h12c.552 0 1 .448 1 1v12c0 .552-.448 1-1 1h-12c-.552 0-1-.448-1-1zm13 17h-1c-.552 0-1-.448-1-1s.448-1 1-1h1c.552 0 1 .448 1 1s-.448 1-1 1zm1 3c0 .552-.448 1-1 1h-7c-.552 0-1-.448-1-1s.448-1 1-1h7c.552 0 1 .448 1 1zm-13-5h7c.552 0 1 .448 1 1s-.448 1-1 1h-7c-.552 0-1-.448-1-1s.448-1 1-1zm0 4h1c.552 0 1 .448 1 1s-.448 1-1 1h-1c-.552 0-1-.448-1-1s.448-1 1-1zm21 19c0 .552-.448 1-1 1h-20c-.552 0-1-.448-1-1v-14c0-.552.448-1 1-1h20c.552 0 1 .448 1 1zm-1-17h-1c-.552 0-1-.448-1-1s.448-1 1-1h1c.552 0 1 .448 1 1s-.448 1-1 1zm3-1c0-.552.448-1 1-1h7c.552 0 1 .448 1 1s-.448 1-1 1h-7c-.552 0-1-.448-1-1zm28 18c0 .552-.448 1-1 1h-25c-.552 0-1-.448-1-1v-14c0-.552.448-1 1-1h25c.552 0 1 .448 1 1zm-1-17h-7c-.552 0-1-.448-1-1s.448-1 1-1h7c.552 0 1 .448 1 1s-.448 1-1 1zm0-4h-1c-.552 0-1-.448-1-1s.448-1 1-1h1c.552 0 1 .448 1 1s-.448 1-1 1zm1-5c0 .552-.448 1-1 1h-12c-.552 0-1-.448-1-1v-12c0-.552.448-1 1-1h12c.552 0 1 .448 1 1z"/><path d="m42.03 26h10v-10h-10zm4-6h2c.552 0 1 .448 1 1s-.448 1-1 1h-2c-.552 0-1-.448-1-1s.448-1 1-1z"/></symbol>
<symbol viewBox="0 0 16.172 16.172"><path d="m13.043 6.367c-0.237 0-0.398 0.022-0.483 0.047v1.523c0.101 0.022 0.223 0.03 0.391 0.03 0.621 0 1.004-0.313 1.004-0.842-1e-3 -0.474-0.33-0.758-0.912-0.758z"/><path d="m15.14 0h-14.107c-0.57 0-1.033 0.462-1.033 1.032v14.108c0 0.568 0.462 1.031 1.033 1.031h14.107c0.57 0 1.032-0.463 1.032-1.031v-14.108c0-0.57-0.462-1.032-1.032-1.032zm-10.236 8.32c-0.398 0.375-0.988 0.543-1.677 0.543-0.153 0-0.291-8e-3 -0.398-0.023v1.846h-1.156v-5.092c0.36-0.061 0.865-0.107 1.578-0.107 0.719 0 1.233 0.139 1.577 0.414 0.33 0.261 0.552 0.689 0.552 1.194s-0.169 0.934-0.476 1.225zm5.478 2.366h-1.164v-2.16h-1.921v2.16h-1.172v-5.16h1.172v1.983h1.921v-1.983h1.164v5.16zm4.253-2.366c-0.397 0.375-0.987 0.543-1.677 0.543-0.152 0-0.291-8e-3 -0.398-0.023v1.846h-1.155v-5.092c0.359-0.061 0.864-0.107 1.577-0.107 0.72 0 1.232 0.139 1.577 0.414 0.33 0.261 0.552 0.689 0.552 1.194-1e-3 0.505-0.169 0.934-0.476 1.225z"/><path d="m3.312 6.367c-0.238 0-0.398 0.022-0.483 0.047v1.523c0.1 0.022 0.222 0.03 0.391 0.03 0.62 0 1.003-0.313 1.003-0.842 0-0.474-0.329-0.758-0.911-0.758z"/></symbol>
<symbol viewBox="0 0 96 96"><path d="M47.611,50.029L37.214,80.236c3.104,0.914,6.386,1.414,9.788,1.414c4.033,0,7.904-0.697,11.506-1.965c-0.094-0.149-0.179-0.308-0.246-0.479L47.611,50.029z"/><path d="m70.393 45.251c0-4.284-1.537-7.249-2.855-9.558-1.758-2.854-3.404-5.271-3.404-8.126 0-3.185 2.415-6.15 5.819-6.15 0.151 0 0.299 0.021 0.448 0.028-6.166-5.646-14.377-9.095-23.397-9.095-12.107 0-22.756 6.211-28.951 15.617 0.813 0.025 1.579 0.041 2.23 0.041 3.624 0 9.233-0.438 9.233-0.438 1.868-0.111 2.089 2.633 0.224 2.854 0 0-1.878 0.221-3.967 0.33l12.617 37.531 7.584-22.74-5.398-14.792c-1.866-0.11-3.633-0.33-3.633-0.33-1.868-0.11-1.648-2.964 0.217-2.855 0 0 5.722 0.44 9.127 0.44 3.623 0 9.235-0.44 9.235-0.44 1.869-0.108 2.088 2.635 0.222 2.855 0 0-1.882 0.22-3.966 0.33l12.52 37.247 3.458-11.549c1.496-4.793 2.637-8.234 2.637-11.2z"/><path d="m12.351 46.999c0 13.713 7.972 25.565 19.529 31.183l-16.528-45.286c-1.923 4.31-3.001 9.079-3.001 14.103z"/><path d="M64.42,76.949C74.723,70.941,81.65,59.783,81.65,47c0-6.025-1.539-11.689-4.246-16.626c0.15,1.105,0.234,2.289,0.234,3.563c0,3.516-0.656,7.468-2.635,12.411L64.42,76.949z"/><path d="M89,0H5C2.239,0,0,2.239,0,5v84c0,2.761,2.239,5,5,5h84c2.762,0,5-2.239,5-5V5C94,2.239,91.762,0,89,0z M47.002,85.539c-21.251,0-38.54-17.289-38.54-38.54S25.75,8.461,47.002,8.461c21.25,0,38.535,17.287,38.535,38.538S68.252,85.539,47.002,85.539z"/></symbol>
<symbol viewBox="0 0 32 32"><path d="M30.5 0h-12c-.825 0-1.977.477-2.561 1.061L1.06 15.94a1.505 1.505 0 0 0 0 2.121L13.939 30.94a1.505 1.505 0 0 0 2.121 0l14.879-14.879C31.522 15.478 32 14.325 32 13.5v-12c0-.825-.675-1.5-1.5-1.5zM23 12a3 3 0 1 1 0-6 3 3 0 0 1 0 6z"/></symbol>
<symbol viewBox="0 0 32 32"><path d="M31.008 27.231l-7.58-6.447c-.784-.705-1.622-1.029-2.299-.998a11.954 11.954 0 0 0 2.87-7.787c0-6.627-5.373-12-12-12s-12 5.373-12 12 5.373 12 12 12c2.972 0 5.691-1.081 7.787-2.87-.031.677.293 1.515.998 2.299l6.447 7.58c1.104 1.226 2.907 1.33 4.007.23s.997-2.903-.23-4.007zM12 20a8 8 0 1 1 0-16 8 8 0 0 1 0 16zm2-14h-4v4H6v4h4v4h4v-4h4v-4h-4z"/></symbol> 
<symbol viewBox="0 0 32 32"><path d="M16 0C7.163 0 0 7.163 0 16s7.163 16 16 16 16-7.163 16-16S24.837 0 16 0zm0 30c-1.967 0-3.84-.407-5.538-1.139l7.286-8.197a.998.998 0 0 0 .253-.664v-3a1 1 0 0 0-1-1c-3.531 0-7.256-3.671-7.293-3.707A1 1 0 0 0 9.001 12h-4a1 1 0 0 0-1 1v6c0 .379.214.725.553.894l3.447 1.724v5.871c-3.627-2.53-6-6.732-6-11.489 0-2.147.484-4.181 1.348-6h3.652c.265 0 .52-.105.707-.293l4-4A1 1 0 0 0 12.001 5V2.581a14.013 14.013 0 0 1 4-.581c2.2 0 4.281.508 6.134 1.412A5.961 5.961 0 0 0 20.002 8c0 1.603.624 3.109 1.757 4.243a5.985 5.985 0 0 0 4.536 1.751c.432 1.619 1.211 5.833-.263 11.635a.936.936 0 0 0-.026.163A13.956 13.956 0 0 1 16.002 30z"/></symbol>
<symbol viewBox="0 0 36 32"><path d="M34 28.161a3.65 3.65 0 0 0 2 3.256v.498a7.42 7.42 0 0 1-6.414-2.251c-.819.218-1.688.336-2.587.336-4.971 0-9-3.582-9-8s4.029-8 9-8 9 3.582 9 8c0 1.73-.618 3.331-1.667 4.64a3.635 3.635 0 0 0-.333 1.522zM16 0c8.702 0 15.781 5.644 15.995 12.672A12.262 12.262 0 0 0 27 11.625c-2.986 0-5.807 1.045-7.942 2.943-2.214 1.968-3.433 4.607-3.433 7.432 0 1.396.298 2.747.867 3.993a19.66 19.66 0 0 1-2.987-.151C10.068 29.279 5.966 29.895 2 29.986v-.841C4.142 28.096 6 26.184 6 24c0-.305-.024-.604-.068-.897C2.313 20.72 0 17.079 0 13 0 5.82 7.163 0 16 0z"/></symbol> 
<symbol viewBox="0 0 32 32"><path d="M11.366 22.564l1.291-1.807-1.414-1.414-1.807 1.291a4.996 4.996 0 0 0-1.071-.444L8 18H6l-.365 2.19a4.946 4.946 0 0 0-1.071.444l-1.807-1.291-1.414 1.414 1.291 1.807a4.943 4.943 0 0 0-.443 1.071L.001 24v2l2.19.365c.107.377.256.736.444 1.071l-1.291 1.807 1.414 1.414 1.807-1.291c.335.187.694.337 1.071.444L6.001 32h2l.365-2.19a4.946 4.946 0 0 0 1.071-.444l1.807 1.291 1.414-1.414-1.291-1.807c.187-.335.337-.694.444-1.071l2.19-.365v-2l-2.19-.365a4.946 4.946 0 0 0-.444-1.071zM7 27a2 2 0 1 1-.001-3.999A2 2 0 0 1 7 27zm25-15v-2l-2.106-.383a8.715 8.715 0 0 0-.148-.743l1.799-1.159-.765-1.848-2.092.452a8.957 8.957 0 0 0-.422-.629l1.219-1.761-1.414-1.414-1.761 1.219a8.957 8.957 0 0 0-.629-.422l.452-2.092-1.848-.765-1.159 1.799a9.122 9.122 0 0 0-.743-.148L22 0h-2l-.383 2.106a8.715 8.715 0 0 0-.743.148L17.715.455l-1.848.765.452 2.092a8.957 8.957 0 0 0-.629.422l-1.761-1.219-1.414 1.414 1.219 1.761c-.149.203-.29.413-.422.629l-2.092-.452-.765 1.848 1.799 1.159a9.122 9.122 0 0 0-.148.743L10 10v2l2.106.383c.039.251.088.499.148.743l-1.799 1.159.765 1.848 2.092-.452c.132.216.273.426.422.629l-1.219 1.761 1.414 1.414 1.761-1.219c.203.149.413.29.629.422l-.452 2.092 1.848.765 1.159-1.799c.244.059.492.109.743.148L20 22h2l.383-2.106c.251-.039.499-.088.743-.148l1.159 1.799 1.848-.765-.452-2.092c.216-.132.426-.273.629-.422l1.761 1.219 1.414-1.414-1.219-1.761c.149-.203.29-.413.422-.629l2.092.452.765-1.848-1.799-1.159c.059-.244.109-.492.148-.743L32 12zm-11 3.35a4.35 4.35 0 1 1 .001-8.701A4.35 4.35 0 0 1 21 15.35z"/></symbol> 
<symbol viewBox="0 0 36 32"><path d="M24 24.082v-1.649c2.203-1.241 4-4.337 4-7.432 0-4.971 0-9-6-9s-6 4.029-6 9c0 3.096 1.797 6.191 4 7.432v1.649C13.216 24.637 8 27.97 8 32h28c0-4.03-5.216-7.364-12-7.918z"/><path d="M10.225 24.854c1.728-1.13 3.877-1.989 6.243-2.513a11.33 11.33 0 0 1-1.265-1.844c-.95-1.726-1.453-3.627-1.453-5.497 0-2.689 0-5.228.956-7.305.928-2.016 2.598-3.265 4.976-3.734C19.153 1.571 17.746 0 14 0 8 0 8 4.029 8 9c0 3.096 1.797 6.191 4 7.432v1.649c-6.784.555-12 3.888-12 7.918h8.719c.454-.403.956-.787 1.506-1.146z"/></symbol> 
<symbol viewBox="0 0 34 32"> <path d="M32 30v-2h-2V16h2v-2h-6v2h2v12h-6V16h2v-2h-6v2h2v12h-6V16h2v-2h-6v2h2v12H6V16h2v-2H2v2h2v12H2v2H0v2h34v-2h-2zM16 0h2l16 10v2H0v-2L16 0z"/></symbol> 
<symbol viewBox="0 0 32 32"><path d="M16 0C10.477 0 6 4.477 6 10c0 10 10 22 10 22s10-12 10-22c0-5.523-4.477-10-10-10zm0 16.125a6.125 6.125 0 1 1 0-12.25 6.125 6.125 0 0 1 0 12.25zM12.125 10a3.875 3.875 0 1 1 7.75 0 3.875 3.875 0 0 1-7.75 0z"/></symbol>
<symbol viewBox="0 0 512 512"><path d="m256 0c-141.38 0-256 114.62-256 256s114.62 256 256 256 256-114.62 256-256-114.62-256-256-256zm-192 256c0-106.04 85.961-192 192-192v384c-106.04 0-192-85.961-192-192z"/></symbol>  
<symbol viewBox="0 0 32 32"><path d="M22 2L12 12H6l-6 8s6.357-1.77 10.065-.94L0 32l13.184-10.255C15.023 25.953 12 32 12 32l8-6v-6l10-10 2-10-10 2z"/></symbol>
<symbol viewBox="0 0 512 512"><path class="active-path" d="M420,296c0,17.673-14.327,32-32,32H124c-17.673,0-32-14.327-32-32V42c0-17.673,14.327-32,32-32h264  c17.673,0,32,14.327,32,32V296z" fill="#D7D420" data-old_color="#FFFFFF" data-original="#FFFFFF"/><path class="" d="m124.27 10h263.73c17.673 0 32 14.327 32 32v40h-327.73v-40c0-17.673 14.327-32 32-32z" fill="#BFB7B7" data-old_color="#FF5A5A" data-original="#FF5A5A"/><path d="m100.14 82h315.91" fill="#231F20" data-original="#231F20"/><path class="" d="m456.75 296.5h-108.75l-40-32v32h-16.75c-24.991 0-45.25 20.259-45.25 45.25v115c0 24.991 20.259 45.25 45.25 45.25h165.5c24.991 0 45.25-20.259 45.25-45.25v-115c0-24.991-20.259-45.25-45.25-45.25z" fill="#FF7800" data-old_color="#78D2FA" data-original="#78D2FA"/><path class="" d="m260.76 192.68h-62.003c-19.943-16.456-45.509-26.342-73.384-26.342-63.72 0-115.38 51.656-115.38 115.38s51.656 115.38 115.38 115.38 115.38-51.656 115.38-115.38c0-19.94-5.059-38.698-13.963-55.062l33.973-33.973z" fill="#5265FF" data-old_color="#A5DC69" data-original="#A5DC69"/><path class="" d="m258.1 56h118.9c5.523 0 10-4.478 10-10s-4.477-10-10-10h-118.9c-5.523 0-10 4.478-10 10s4.477 10 10 10z" fill="#fff" data-old_color="#000000" data-original="#000000"/><path class="" d="m169.98 56c2.63 0 5.21-1.07 7.07-2.931 1.86-1.859 2.93-4.439 2.93-7.069s-1.07-5.21-2.93-7.07-4.44-2.93-7.07-2.93c-2.64 0-5.22 1.069-7.08 2.93s-2.92 4.44-2.92 7.07 1.06 5.21 2.92 7.069c1.87 1.861 4.44 2.931 7.08 2.931z" fill="#fff" data-old_color="#000000" data-original="#000000"/><path class="" d="m131.95 56c2.63 0 5.21-1.07 7.07-2.931 1.86-1.859 2.93-4.439 2.93-7.069s-1.07-5.21-2.93-7.07-4.44-2.93-7.07-2.93-5.21 1.069-7.07 2.93-2.93 4.44-2.93 7.07 1.07 5.21 2.93 7.069c1.86 1.861 4.44 2.931 7.07 2.931z" fill="#fff" data-old_color="#000000" data-original="#000000"/><path class="" d="M208,56c2.63,0,5.21-1.07,7.07-2.931C216.93,51.21,218,48.63,218,46s-1.07-5.21-2.93-7.07S210.63,36,208,36  s-5.21,1.069-7.07,2.93C199.07,40.79,198,43.37,198,46s1.07,5.21,2.93,7.069C202.79,54.93,205.37,56,208,56z" fill="#fff" data-old_color="#000000" data-original="#000000"/><path class="" d="m297 134.04c0-5.522-4.477-10-10-10h-41c-5.523 0-10 4.478-10 10s4.477 10 10 10h41c5.523 0 10-4.478 10-10z" fill="#fff" data-old_color="#000000" data-original="#000000"/><path class="" d="m327.85 144.04h40.917c5.523 0 10-4.478 10-10s-4.477-10-10-10h-40.917c-5.523 0-10 4.478-10 10s4.477 10 10 10z" fill="#fff" data-old_color="#000000" data-original="#000000"/><path class="" d="m368.77 220.01h-3e-3l-10.645 4e-3c-5.522 2e-3 -9.998 4.48-9.996 10.004 2e-3 5.521 4.479 9.996 10 9.996h4e-3l10.644-4e-3c5.522-2e-3 9.998-4.48 9.996-10.004-2e-3 -5.522-4.479-9.996-10-9.996z" fill="#fff" data-old_color="#000000" data-original="#000000"/><path class="" d="m322 220.04h-5e-3l-38.649 0.021c-5.523 3e-3 -9.998 4.482-9.995 10.005 3e-3 5.521 4.479 9.995 10 9.995h5e-3l38.649-0.021c5.523-3e-3 9.998-4.482 9.995-10.005-3e-3 -5.521-4.479-9.995-10-9.995z" fill="#fff" data-old_color="#000000" data-original="#000000"/><path class="" d="m333 172.04h-33.427c-5.523 0-10 4.478-10 10s4.477 10 10 10h33.427c5.523 0 10-4.478 10-10s-4.477-10-10-10z" fill="#fff" data-old_color="#000000" data-original="#000000"/><path class="" d="m368.77 172.04c-2.64 0-5.21 1.069-7.08 2.93-1.86 1.86-2.92 4.44-2.92 7.07s1.06 5.21 2.92 7.069c1.87 1.87 4.44 2.931 7.08 2.931 2.63 0 5.2-1.061 7.07-2.931 1.86-1.859 2.93-4.439 2.93-7.069s-1.07-5.21-2.93-7.07c-1.87-1.861-4.44-2.93-7.07-2.93z" fill="#fff" data-old_color="#000000" data-original="#000000"/><path class="" d="m374 492c-2.63 0-5.21 1.069-7.07 2.93-1.86 1.86-2.93 4.44-2.93 7.07s1.07 5.21 2.93 7.069c1.86 1.86 4.44 2.931 7.07 2.931s5.21-1.07 7.07-2.931c1.86-1.859 2.93-4.439 2.93-7.069s-1.07-5.21-2.93-7.07-4.44-2.93-7.07-2.93z" fill="#fff" data-old_color="#000000" data-original="#000000"/><path class="" d="m456.75 286.5h-26.75v-244.5c0-23.159-18.841-42-42-42h-264c-23.159 0-42 18.841-42 42v122.07c-47.82 17.689-82 63.746-82 117.64 0 69.133 56.244 125.38 125.38 125.38 47.857 0 89.531-26.957 110.65-66.479-8e-3 0.382-0.029 0.76-0.029 1.143v115c0 30.465 24.785 55.25 55.25 55.25h46.727c5.523 0 10-4.478 10-10s-4.477-10-10-10h-46.727c-19.437 0-35.25-15.813-35.25-35.25v-115c0-19.437 15.813-35.25 35.25-35.25h16.75c5.523 0 10-4.478 10-10v-11.193l23.753 19.002c1.773 1.419 3.977 2.191 6.247 2.191h108.75c19.437 0 35.25 15.813 35.25 35.25v115c0 19.437-15.813 35.25-35.25 35.25h-40.701c-5.523 0-10 4.478-10 10s4.477 10 10 10h40.701c30.465 0 55.25-24.785 55.25-55.25v-115c0-30.465-24.785-55.25-55.25-55.25zm-332.75-266.5h264c12.131 0 22 9.869 22 22v30h-308v-30c0-12.131 9.869-22 22-22zm1.376 367.09c-58.105 0-105.38-47.272-105.38-105.38 0-58.105 47.271-105.38 105.38-105.38 24.419 0 48.22 8.543 67.019 24.055 1.792 1.479 4.042 2.287 6.365 2.287h37.86l-16.902 16.901c-3.134 3.134-3.831 7.957-1.713 11.851 8.339 15.326 12.747 32.714 12.747 50.283 0 58.104-47.271 105.38-105.38 105.38zm188.87-130.4c-3.002-2.4-7.114-2.869-10.579-1.204-3.464 1.665-5.668 5.169-5.668 9.013v22h-6.75c-17.427 0-32.985 8.119-43.119 20.763 1.716-8.253 2.621-16.799 2.621-25.553 0-18.366-4.054-36.575-11.777-53.105l28.858-28.858c2.86-2.86 3.716-7.161 2.168-10.898-1.548-3.736-5.194-6.173-9.239-6.173h-58.494c-21.902-17.012-49.063-26.342-76.892-26.342-7.988 0-15.8 0.76-23.376 2.195v-66.529h308v194.5h-58.492l-37.261-29.809z" fill="#fff" data-old_color="#000000" data-original="#000000"/><path class="" d="m310.02 431.25c5.523 0 10-4.478 10-10v-44c0-5.522-4.477-10-10-10s-10 4.478-10 10v12h-11.922v-12c0-5.522-4.477-10-10-10s-10 4.478-10 10v44c0 5.522 4.477 10 10 10s10-4.478 10-10v-12h11.922v12c0 5.522 4.477 10 10 10z" fill="#fff" data-old_color="#000000" data-original="#000000"/><path class="" d="m455.5 367.25c-5.523 0-10 4.478-10 10v44c0 5.522 4.477 10 10 10h18.892c5.523 0 10-4.478 10-10s-4.477-10-10-10h-8.892v-34c0-5.522-4.477-10-10-10z" fill="#fff" data-old_color="#000000" data-original="#000000"/><path class="" d="m364.07 387.25c5.523 0 10-4.478 10-10s-4.477-10-10-10h-26.093c-5.523 0-10 4.478-10 10s4.477 10 10 10h3.046v34c0 5.522 4.477 10 10 10s10-4.478 10-10v-34h3.047z" fill="#fff" data-old_color="#000000" data-original="#000000"/><path class="" d="m414.8 401.38v19.866c0 5.522 4.477 10 10 10s10-4.478 10-10v-44c0-4.045-2.437-7.691-6.173-9.239-3.735-1.544-8.037-0.692-10.898 2.168l-9.742 9.742-9.742-9.742c-2.86-2.86-7.163-3.714-10.898-2.168-3.737 1.548-6.173 5.194-6.173 9.239v44c0 5.522 4.477 10 10 10s10-4.478 10-10v-19.866c1.847 1.719 4.281 2.68 6.813 2.68s4.966-0.961 6.813-2.68z" fill="#fff" data-old_color="#000000" data-original="#000000"/><path class="" d="m73.486 265.14c4.426 0 8.587 1.724 11.717 4.854 3.905 3.904 10.238 3.905 14.142 0 3.905-3.905 3.906-10.237 0-14.143-6.907-6.907-16.091-10.711-25.859-10.711s-18.952 3.804-25.859 10.711c-6.908 6.907-10.711 16.091-10.711 25.859s3.804 18.951 10.711 25.859c7.129 7.129 16.494 10.693 25.859 10.693s18.729-3.564 25.859-10.693c3.905-3.905 3.906-10.237 0-14.143-3.904-3.903-10.237-3.903-14.142 0-6.462 6.461-16.974 6.461-23.434 0-3.13-3.13-4.854-7.291-4.854-11.717 0-4.427 1.724-8.587 4.854-11.717s7.291-4.852 11.717-4.852z" fill="#fff" data-old_color="#000000" data-original="#000000"/><path class="" d="m131 265.14h13.285c5.523 0 10-4.478 10-10s-4.477-10-10-10h-13.285c-12.839 0-23.285 10.445-23.285 23.285s10.446 23.285 23.285 23.285c1.812 0 3.285 1.474 3.285 3.285s-1.474 3.285-3.285 3.285h-13.285c-5.523 0-10 4.478-10 10s4.477 10 10 10h13.285c12.839 0 23.285-10.445 23.285-23.285s-10.446-23.285-23.285-23.285c-1.812 0-3.285-1.474-3.285-3.285s1.474-3.285 3.285-3.285z" fill="#fff" data-old_color="#000000" data-original="#000000"/><path class="" d="m184.68 265.14h13.285c5.523 0 10-4.478 10-10s-4.477-10-10-10h-13.285c-12.839 0-23.285 10.445-23.285 23.285s10.446 23.285 23.285 23.285c1.812 0 3.285 1.474 3.285 3.285s-1.474 3.285-3.285 3.285h-13.285c-5.523 0-10 4.478-10 10s4.477 10 10 10h13.285c12.839 0 23.285-10.445 23.285-23.285s-10.446-23.285-23.285-23.285c-1.812 0-3.285-1.474-3.285-3.285s1.474-3.285 3.285-3.285z" fill="#fff" data-old_color="#000000" data-original="#000000"/></symbol> 
<symbol viewBox="0 0 32 32"><path d="M16 0C7.163 0 0 7.163 0 16s7.163 16 16 16 16-7.163 16-16S24.837 0 16 0zM8 8h16c.286 0 .563.061.817.177L16 18.463 7.183 8.176c.254-.116.531-.177.817-.177zM6 22V10c0-.042.002-.084.004-.125l5.864 6.842-5.8 5.8A1.983 1.983 0 0 1 5.999 22zm18 2H8c-.177 0-.35-.024-.517-.069l5.691-5.691L16 21.537l2.826-3.297 5.691 5.691c-.167.045-.34.069-.517.069zm2-2c0 .177-.024.35-.069.517l-5.8-5.8 5.865-6.842c.003.041.004.083.004.125v12z"/></symbol> 
<symbol viewBox="0 0 192.701 192.701"><path d="m20.746 104.17l75.61-74.528 75.61 74.54c4.74 4.704 12.439 4.704 17.179 0s4.74-12.319 0-17.011l-84.2-82.997c-4.559-4.511-12.608-4.535-17.191 0l-84.2 83.009c-4.74 4.692-4.74 12.319 0 17.011 4.753 4.68 12.452 4.68 17.192-0.024z"/><path d="m104.95 88.373c-4.559-4.511-12.608-4.535-17.191 0l-84.2 82.997c-4.74 4.704-4.74 12.319 0 17.011 4.74 4.704 12.439 4.704 17.179 0l75.622-74.528 75.61 74.54c4.74 4.704 12.439 4.704 17.179 0s4.74-12.319 0-17.011l-84.199-83.009z"/></symbol> 
<symbol viewBox="0 0 55 55"><path d="m40.926 1.8906l-3.0664 0.52734 3.3281 18.207 2.8438-0.37109zm-10.957 4.4609l-2.8672 1.7266 10.199 14.957 2.5195-1.5547zm-9.1719 8.6797l-1.6836 2.6719 15.387 9.2969 1.4023-2.4219zm-4.4219 9.3711l-0.74609 3 17.73 4.4922 0.28125-2.6914zm-7.375 4.5977v18.984l29.902 0.015625v-0.015625c0.03125 0 0.097656-18.984 0.097656-18.984h-3v16h-24v-16zm6.1523 3.3555l-0.25 2.9844 18.098 1.6602 0.20312-2.5zm-0.25 6.6445l0.097656 3 18-0.070312v-2.9297z"/></symbol> 
<symbol viewBox="0 0 100 100"><path d="M100 34.2c-.4-2.6-3.3-4-5.3-5.3-3.6-2.4-7.1-4.7-10.7-7.1-8.5-5.7-17.1-11.4-25.6-17.1-2-1.3-4-2.7-6-4-1.4-1-3.3-1-4.8 0-5.7 3.8-11.5 7.7-17.2 11.5L5.2 29C3 30.4.1 31.8 0 34.8c-.1 3.3 0 6.7 0 10v16c0 2.9-.6 6.3 2.1 8.1 6.4 4.4 12.9 8.6 19.4 12.9 8 5.3 16 10.7 24 16 2.2 1.5 4.4 3.1 7.1 1.3 2.3-1.5 4.5-3 6.8-4.5 8.9-5.9 17.8-11.9 26.7-17.8l9.9-6.6c.6-.4 1.3-.8 1.9-1.3 1.4-1 2-2.4 2-4.1V37.3c.1-1.1.2-2.1.1-3.1 0-.1 0 .2 0 0zM54.3 12.3L88 34.8 73 44.9 54.3 32.4V12.3zm-8.6 0v20L27.1 44.8 12 34.8l33.7-22.5zM8.6 42.8L19.3 50 8.6 57.2V42.8zm37.1 44.9L12 65.2l15-10.1 18.6 12.5v20.1zM50 60.2L34.8 50 50 39.8 65.2 50 50 60.2zm4.3 27.5v-20l18.6-12.5 15 10.1-33.6 22.4zm37.1-30.5L80.7 50l10.8-7.2-.1 14.4z"/></symbol> 
<symbol viewBox="0 0 32 32"><path d="M14 26.828l-6.414-7.414 1.828-1.828L14 21.172l8.586-7.586 1.829 1.828z"/><path d="M29 4h-9a4 4 0 0 0-8 0H3a1 1 0 0 0-1 1v26a1 1 0 0 0 1 1h26a1 1 0 0 0 1-1V5a1 1 0 0 0-1-1zM16 2a2 2 0 1 1 .001 3.999A2 2 0 0 1 16 2zm12 28H4V6h4v3a1 1 0 0 0 1 1h14a1 1 0 0 0 1-1V6h4v24z"/></symbol> 
<symbol viewBox="0 0 50 50"><path d="m15 2c-8.284 0-15 6.716-15 15s6.716 15 15 15 15-6.716 15-15-6.716-15-15-15zm0 27c-6.627 0-12-5.373-12-12s5.373-12 12-12 12 5.373 12 12-5.373 12-12 12zm1-13v-4h4v-2h-4v-2h-2v2h-4v8h4v4h-4v2h4v2h2v-2h4v-8h-4zm-2 0h-2v-4h2v4zm4 6h-2v-4h2v4z"/></symbol> 
<symbol viewBox="0 0 32 32"><path d="M27 0H3C1.35 0 0 1.35 0 3v26c0 1.65 1.35 3 3 3h24c1.65 0 3-1.35 3-3V3c0-1.65-1.35-3-3-3zm-1 28H4V4h22v24zM8 14h14v2H8zm0 4h14v2H8zm0 4h14v2H8zm0-12h14v2H8z"/></symbol>
<symbol viewBox="0 0 32 32"><path d="M25 20a7 7 0 1 1 7-7l.031 1c0 7.732-6.268 14-14 14v-4a9.934 9.934 0 0 0 7.071-2.929c.364-.364.695-.75.995-1.157A7.081 7.081 0 0 1 25 20zM7 20a7 7 0 1 1 7-7l.031 1c0 7.732-6.268 14-14 14v-4a9.934 9.934 0 0 0 7.071-2.929c.364-.364.695-.75.995-1.157A7.081 7.081 0 0 1 7 20z"/></symbol>
<symbol viewBox="0 0 24 24"><path d="M22 16.92v3a2 2 0 0 1-2.18 2 19.79 19.79 0 0 1-8.63-3.07 19.5 19.5 0 0 1-6-6 19.79 19.79 0 0 1-3.07-8.67A2 2 0 0 1 4.11 2h3a2 2 0 0 1 2 1.72 12.84 12.84 0 0 0 .7 2.81 2 2 0 0 1-.45 2.11L8.09 9.91a16 16 0 0 0 6 6l1.27-1.27a2 2 0 0 1 2.11-.45 12.84 12.84 0 0 0 2.81.7A2 2 0 0 1 22 16.92z"/></symbol>
<symbol viewBox="0 0 40 32"><path d="m26 23l3 3 10-10-10-10-3 3 7 7z"/><path d="m14 9l-3-3-10 10 10 10 3-3-7-7z"/><path d="m21.916 4.704l2.171 0.592-6 22.001-2.171-0.592 6-22.001z"/></symbol>
<symbol viewBox="0 0 32 32"><path d="M30.5 24H30v-6.5c0-1.93-1.57-3.5-3.5-3.5H18v-4h.5c.825 0 1.5-.675 1.5-1.5v-5c0-.825-.675-1.5-1.5-1.5h-5c-.825 0-1.5.675-1.5 1.5v5c0 .825.675 1.5 1.5 1.5h.5v4H5.5C3.57 14 2 15.57 2 17.5V24h-.5c-.825 0-1.5.675-1.5 1.5v5c0 .825.675 1.5 1.5 1.5h5c.825 0 1.5-.675 1.5-1.5v-5c0-.825-.675-1.5-1.5-1.5H6v-6h8v6h-.5c-.825 0-1.5.675-1.5 1.5v5c0 .825.675 1.5 1.5 1.5h5c.825 0 1.5-.675 1.5-1.5v-5c0-.825-.675-1.5-1.5-1.5H18v-6h8v6h-.5c-.825 0-1.5.675-1.5 1.5v5c0 .825.675 1.5 1.5 1.5h5c.825 0 1.5-.675 1.5-1.5v-5c0-.825-.675-1.5-1.5-1.5zM6 30H2v-4h4v4zm12 0h-4v-4h4v4zM14 8V4h4v4h-4zm16 22h-4v-4h4v4z"/></symbol>
<symbol viewBox="0 0 81.016 81.016" xmlns="http://www.w3.org/2000/svg"><circle cx="40.509" cy="17.217" r="17.217"/><path d="m47.811 35.606h-14.608c-12.152 0-22.041 9.888-22.041 22.042v17.869l0.045 0.279 1.232 0.385c11.598 3.623 21.676 4.834 29.971 4.834 16.199 0 25.59-4.621 26.172-4.914l1.15-0.584h0.121v-17.869c1e-3 -12.154-9.886-22.042-22.042-22.042zm-3.901 34.677l-3.152 4.613c-0.043 0.063-0.111 0.1-0.186 0.1h-6e-3c-0.074 0-0.145-0.039-0.186-0.104l-2.928-4.616c-0.025-0.039-0.037-0.086-0.035-0.136l1.465-22.403c8e-3 -0.119 0.105-0.209 0.225-0.209h3.039c0.119 0 0.217 0.09 0.227 0.209l1.574 22.401c6e-3 0.053-9e-3 0.102-0.037 0.145zm-1.426-23.433h-3.613l-3.141-6.492c0-0.623 0.504-1.125 1.127-1.125h7.543c0.621 0 1.125 0.502 1.125 1.125l-3.041 6.492z"/></symbol>
<symbol viewBox="0 0 496 496"><path d="m8 167.99h480c4.418 0 8-3.582 8-8s-3.582-8-8-8h-11.488c-37.562-90.508-125.22-150.12-223.2-151.8h-0.29688c-0.49609-0.054688-0.99609-0.078125-1.4961-0.070312-2.0625-0.15625-4.1289-0.15625-6.1914 0-0.75-0.019532-1.4961 0.015624-2.2383 0.10156h-0.10547-0.28125c-97.977 1.6641-185.64 61.27-223.21 151.77h-11.488c-4.418 0-8 3.582-8 8s3.582 8 8 8zm309.02-91.824c-20.262 2.2891-40.633 3.543-61.023 3.7539v-63.066c22.656 4.1367 44.152 25.711 61.023 59.312zm-77.023-59.312v63.066c-20.383-0.21094-40.738-1.4648-60.992-3.7539 16.793-33.344 38.207-54.871 60.992-59.312zm0 79.066v56.07h-86.398c4.1719-20.73 10.301-41.02 18.301-60.594 22.598 2.7812 45.332 4.293 68.098 4.5234zm16 0c22.762-0.23047 45.488-1.7422 68.078-4.5312 8 19.582 14.137 39.871 18.32 60.602h-86.398zm84.336-6.8516c11.047-1.7812 21.465-3.8789 31.098-6.2773 15.844 20.941 28.191 44.309 36.566 69.199h-49.32c-4.168-21.492-10.309-42.555-18.344-62.922zm-6.5938-15.109c-7.6211-16.742-17.723-32.238-29.965-45.969 21.387 9.6523 40.535 23.652 56.223 41.105-8.2383 1.8398-17.016 3.4688-26.258 4.8633zm-171.47 0c-9.2617-1.3945-18.016-3.0156-26.273-4.8633 15.711-17.488 34.891-31.512 56.32-41.176-12.289 13.738-22.418 29.262-30.047 46.039zm-6.6094 15.109c-8.0312 20.367-14.172 41.43-18.344 62.922h-49.32c8.3789-24.891 20.734-48.262 36.586-69.199 9.6133 2.3984 20.031 4.5039 31.078 6.2773zm303.39 62.922h-34.191c-8.3359-26.398-20.773-51.32-36.863-73.848 4.6406-1.4727 9.0117-3.0234 13.113-4.6562 24.676 21.75 44.43 48.516 57.941 78.504zm-72.438-90.207c-2.9492 1-6.0273 1.9688-9.2344 2.9023-6.8672-8.1367-14.355-15.73-22.398-22.711 11.066 5.7305 21.645 12.355 31.633 19.809zm-268 2.9023c-3.2031-0.93359-6.2773-1.9023-9.2344-2.9023 10.008-7.4531 20.602-14.082 31.68-19.816-8.0547 6.9844-15.559 14.578-22.445 22.719zm-23.695 8.8008c4.0938 1.6328 8.4648 3.1836 13.109 4.6562-16.098 22.527-28.551 47.449-36.895 73.848h-34.191c13.523-29.992 33.289-56.754 57.977-78.504z"/><path d="m488 327.99h-480c-4.418 0-8 3.582-8 8s3.582 8 8 8h11.488c37.562 90.508 125.22 150.12 223.2 151.8h0.29688c0.49609 0.058594 0.99609 0.082032 1.4961 0.070313h1.2734c0.79688 0.050781 1.543 0.058594 2.2852 0.058594 1.0156 0 1.9453 0 2.5469-0.058594 0.80078 0.03125 1.6016-0.007813 2.3984-0.10938h0.35938c97.957-1.6836 185.6-61.281 223.17-151.76h11.488c4.418 0 8-3.582 8-8s-3.582-8-8-8zm-309.02 91.824c20.262-2.2891 40.633-3.543 61.023-3.7539v63.066c-22.656-4.1367-44.152-25.711-61.023-59.312zm77.023 59.312v-63.066c20.383 0.21094 40.738 1.4648 60.992 3.7539-16.793 33.344-38.215 54.871-60.992 59.312zm0-79.066v-56.07h86.398c-4.1719 20.73-10.301 41.02-18.301 60.594-22.598-2.7812-45.332-4.293-68.098-4.5234zm-16 0c-22.762 0.23047-45.488 1.7422-68.078 4.5312-8-19.582-14.137-39.871-18.32-60.602h86.398zm-84.336 6.8516c-11.047 1.7812-21.465 3.8789-31.098 6.2773-15.844-20.941-28.191-44.309-36.566-69.199h49.336c4.1641 21.492 10.297 42.555 18.328 62.922zm6.5938 15.109c7.6172 16.754 17.723 32.262 29.965 46-21.391-9.6602-40.539-23.668-56.223-41.137 8.2383-1.8398 17.016-3.4688 26.258-4.8633zm171.47 0c9.2539 1.3945 18.016 3.0156 26.281 4.8633-15.711 17.488-34.891 31.516-56.32 41.184 12.281-13.742 22.41-29.266 30.039-46.047zm6.6094-15.109c8.0312-20.367 14.172-41.43 18.344-62.922h49.32c-8.3789 24.891-20.734 48.262-36.586 69.199-9.6133-2.3984-20.031-4.5039-31.078-6.2773zm-303.39-62.922h34.191c8.3359 26.398 20.773 51.32 36.863 73.848-4.6406 1.4727-9.0117 3.0234-13.113 4.6562-24.676-21.75-44.43-48.516-57.941-78.504zm72.438 90.207c2.9492-0.99609 6.0273-1.9648 9.2344-2.9023 6.8828 8.1367 14.383 15.73 22.438 22.711-11.078-5.7305-21.668-12.355-31.672-19.809zm268-2.9023c3.2031 0.9375 6.2773 1.9062 9.2344 2.9023-10.008 7.4531-20.602 14.082-31.68 19.816 8.0547-6.9844 15.559-14.578 22.445-22.719zm23.695-8.8008c-4.0938-1.6328-8.4648-3.1836-13.109-4.6562 16.098-22.527 28.551-47.449 36.895-73.848h34.191c-13.523 29.992-33.289 56.754-57.977 78.504z"/><path d="m288.34 205.69-18.199 60.695-14.938-29.973c-1.5039-2.5234-4.2227-4.0703-7.1602-4.0703-2.9336 0-5.6562 1.5469-7.1602 4.0703l-15.016 29.973-18.199-60.672c-1.2695-4.2305-5.7266-6.6328-9.9609-5.3672-4.2305 1.2695-6.6367 5.7266-5.3672 9.9609l24 80c0.94141 3.1406 3.707 5.3906 6.9766 5.6719 3.2773 0.31641 6.4023-1.4336 7.8477-4.3906l16.84-33.715 16.801 33.688c1.3594 2.7266 4.1523 4.4414 7.1992 4.4258 0.23047 0.011719 0.45703 0.011719 0.6875 0 3.2695-0.28125 6.0352-2.5312 6.9766-5.6719l24-80c1.2695-4.2344-1.1367-8.6914-5.3672-9.9609-4.2344-1.2656-8.6914 1.1367-9.9609 5.3672z"/><path d="m416.34 205.69-18.199 60.695-14.938-29.973c-1.5039-2.5234-4.2227-4.0703-7.1602-4.0703-2.9336 0-5.6562 1.5469-7.1602 4.0703l-15.016 29.973-18.199-60.672c-1.2695-4.2305-5.7266-6.6328-9.9609-5.3672-4.2305 1.2695-6.6367 5.7266-5.3672 9.9609l24 80c0.94141 3.1406 3.707 5.3906 6.9766 5.6719 3.2734 0.3125 6.4023-1.4375 7.8477-4.3906l16.84-33.715 16.801 33.688c1.3594 2.7266 4.1523 4.4414 7.1992 4.4258 0.23047 0.011719 0.45703 0.011719 0.6875 0 3.2695-0.28125 6.0352-2.5312 6.9766-5.6719l24-80c1.2695-4.2344-1.1367-8.6914-5.3672-9.9609-4.2344-1.2656-8.6914 1.1367-9.9609 5.3672z"/><path d="m160.34 205.69-18.199 60.695-14.938-29.973c-1.5039-2.5234-4.2227-4.0703-7.1602-4.0703-2.9336 0-5.6562 1.5469-7.1602 4.0703l-15.016 29.973-18.199-60.672c-1.2695-4.2305-5.7266-6.6328-9.9609-5.3672-4.2305 1.2695-6.6367 5.7266-5.3672 9.9609l24 80c0.94141 3.1406 3.707 5.3906 6.9766 5.6719 3.2773 0.32031 6.4062-1.4336 7.8477-4.3906l16.84-33.715 16.84 33.688c1.3555 2.7148 4.1289 4.4258 7.1602 4.4258 0.23047 0.011719 0.45703 0.011719 0.6875 0 3.2695-0.28125 6.0352-2.5312 6.9766-5.6719l24-80c1.2695-4.2344-1.1367-8.6914-5.3672-9.9609-4.2344-1.2656-8.6914 1.1367-9.9609 5.3672z"/></symbol>
<symbol viewBox="0 0 55 55">
  <path d="M55,27.5C55,12.337,42.663,0,27.5,0S0,12.337,0,27.5c0,8.009,3.444,15.228,8.926,20.258l-0.026,0.023l0.892,0.752  c0.058,0.049,0.121,0.089,0.179,0.137c0.474,0.393,0.965,0.766,1.465,1.127c0.162,0.117,0.324,0.234,0.489,0.348  c0.534,0.368,1.082,0.717,1.642,1.048c0.122,0.072,0.245,0.142,0.368,0.212c0.613,0.349,1.239,0.678,1.88,0.98  c0.047,0.022,0.095,0.042,0.142,0.064c2.089,0.971,4.319,1.684,6.651,2.105c0.061,0.011,0.122,0.022,0.184,0.033  c0.724,0.125,1.456,0.225,2.197,0.292c0.09,0.008,0.18,0.013,0.271,0.021C25.998,54.961,26.744,55,27.5,55  c0.749,0,1.488-0.039,2.222-0.098c0.093-0.008,0.186-0.013,0.279-0.021c0.735-0.067,1.461-0.164,2.178-0.287  c0.062-0.011,0.125-0.022,0.187-0.034c2.297-0.412,4.495-1.109,6.557-2.055c0.076-0.035,0.153-0.068,0.229-0.104  c0.617-0.29,1.22-0.603,1.811-0.936c0.147-0.083,0.293-0.167,0.439-0.253c0.538-0.317,1.067-0.648,1.581-1  c0.185-0.126,0.366-0.259,0.549-0.391c0.439-0.316,0.87-0.642,1.289-0.983c0.093-0.075,0.193-0.14,0.284-0.217l0.915-0.764  l-0.027-0.023C51.523,42.802,55,35.55,55,27.5z M2,27.5C2,13.439,13.439,2,27.5,2S53,13.439,53,27.5  c0,7.577-3.325,14.389-8.589,19.063c-0.294-0.203-0.59-0.385-0.893-0.537l-8.467-4.233c-0.76-0.38-1.232-1.144-1.232-1.993v-2.957  c0.196-0.242,0.403-0.516,0.617-0.817c1.096-1.548,1.975-3.27,2.616-5.123c1.267-0.602,2.085-1.864,2.085-3.289v-3.545  c0-0.867-0.318-1.708-0.887-2.369v-4.667c0.052-0.52,0.236-3.448-1.883-5.864C34.524,9.065,31.541,8,27.5,8  s-7.024,1.065-8.867,3.168c-2.119,2.416-1.935,5.346-1.883,5.864v4.667c-0.568,0.661-0.887,1.502-0.887,2.369v3.545  c0,1.101,0.494,2.128,1.34,2.821c0.81,3.173,2.477,5.575,3.093,6.389v2.894c0,0.816-0.445,1.566-1.162,1.958l-7.907,4.313  c-0.252,0.137-0.502,0.297-0.752,0.476C5.276,41.792,2,35.022,2,27.5z"/>
</symbol>
<symbol viewBox="0 0 331.331 331.331">
<path d="m30.421 317.46l4.422-17.661-12.194-4.814-8.376 13.804s4.618 12.526-0.511 22.539c4e-3 1e-3 6.422-10.931 16.659-13.868zm-8.192-8.104c1.501-0.615 3.231 0.087 3.851 1.561 0.625 1.474-0.087 3.171-1.588 3.786s-3.231-0.087-3.851-1.561c-0.631-1.48 0.082-3.177 1.588-3.786z"/>
	<path d="m158.35 112.62c-35.115 28.8-81.086 88.124-120.07 157.42l-0.022-0.027-6.815 12.026 7.267 2.796 3.84-10.117c20.799-37.491 77.224-135.4 180.4-200.45 0 0 38.411-22.877 76.256-54.516-9.214 7.702-27.391 17.356-37.247 23.584-25.868 16.344-57.79 31.704-103.6 69.282z"/>
	<path d="m33.2 215.36c-7.985 28.223-7.528 49.718-4.438 55.625h4.83c13.337-27.625 77.572-127.69 117.55-159.02 41.424-32.455 73.378-51.339 100.25-65.111 9.437-4.835 19.118-11.384 27.848-17.949 10.601-8.36 21.348-17.302 30.758-26.053l-27.277 17.889 12.162-18.602-23.22 23.611 15.11-25.759c-35.746 3.225-68.918 21.109-68.918 21.109-13.271 15.741-23.959 40.782-23.959 40.782-0.37-12.521 8.11-31.481 8.11-31.481-6.266 2.861-30.073 16.459-30.073 16.459-11.645 9.66-15.262 35.06-15.262 35.06-2.214-10.019 5.526-29.333 5.526-29.333-33.543 19.32-57.502 52.231-57.502 52.231-16.584 32.553-2.948 57.953-8.11 51.872s-4.052-28.261-4.052-28.261c-35.017 33.63-38.699 49.724-38.699 49.724-5.896 14.31-11.058 52.59-11.058 52.59-3.318-3.579 0-23.611 0-23.611-8.479 17.889-4.422 34.701-4.422 34.701-4.052-1.435-5.161-26.477-5.161-26.477z"/>
	<path d="m310.01 14.191s-13.483 13.065-30.758 26.053c-27.081 21.359-53.156 38.819-53.156 38.819-102.15 60.362-159.07 158.87-177.88 192.64h10.002c3.535-2.834 8.844-4.971 31.014-11.389 28.011-8.11 44.72-25.041 44.72-25.041s-25.553 14.31-37.595 12.88-28.223 3.1-28.223 3.1-6.179-2.861 24.291-7.392 80.596-38.634 80.596-38.634-19.167 7.87-28.011 7.152-30.714 0-30.714 0c14.495-3.34 28.011-1.43 50.126-9.779s20.886-7.631 20.886-7.631c25.063-8.349 35.474-34.342 35.474-34.342-4.335 1.67-37.443 5.722-51.176 1.67-13.734-4.052-37.132 0-37.132 0 22.115-7.392 27.032-4.052 32.433-4.291 5.406-0.239 22.855 1.191 57.502-10.731s44.475-26.711 44.475-26.711l-23.366 3.122c15.257-2.567 32.455-12.662 32.455-12.662-10.568 2.861-27.032 4.291-27.032 4.291 19.412-4.291 30.225-10.253 30.225-10.253 18.183-13.832 22.36-34.342 22.36-34.342-25.803 8.822-46.194 4.77-46.194 4.77 35.387-2.382 45.215-11.449 50.126-13.592 4.917-2.148 6.94-11.03 6.94-11.03-17.878 6.44-38.15 7.511-38.15 7.511 21.93-3.399 40.722-14.49 40.722-14.49v-11.102c-8.479 4.83-23.399 8.588-23.399 8.588l23.219-15.023c1.305-7.516-4.776-12.166-4.776-12.166z"/>
	<polygon points="23.551 290.57 37.361 296.1 39.933 289.99 26.124 284.46"/>
	<path d="m177.04 285.46c-45.628 21.936-89.462 36.888-147.76 38.846-5.439 0.185-5.466 5.624 0 5.439 52.15-1.751 95.543-12.961 137.39-32.575 46.618-21.854 89.435-40.167 147.83-46.39 5.385-0.577 3.095-5.814-2.252-5.243-51.714 5.516-93.731 19.984-135.21 39.923z"/>
</symbol>
<symbol viewBox="0 0 512 512">
<path d="m256 0c-141.16 0-256 114.84-256 256s114.84 256 256 256 256-114.84 256-256-114.84-256-256-256zm0 494.93c-131.75 0-238.93-107.19-238.93-238.93s107.19-238.93 238.93-238.93 238.93 107.19 238.93 238.93-107.19 238.93-238.93 238.93z"/>
		<path d="m256 42.667c-117.63 0-213.33 95.701-213.33 213.33s95.701 213.33 213.33 213.33 213.33-95.701 213.33-213.33-95.701-213.33-213.33-213.33zm0 409.6c-108.22 0-196.27-88.038-196.27-196.27s88.047-196.27 196.27-196.27 196.27 88.039 196.27 196.27-88.047 196.27-196.27 196.27z"/>
		<path d="m256 76.8c-4.71 0-8.533 3.814-8.533 8.533v25.6c0 4.719 3.823 8.533 8.533 8.533s8.533-3.814 8.533-8.533v-25.6c0-4.719-3.823-8.533-8.533-8.533z"/>
		<path d="m256 392.53c-4.71 0-8.533 3.814-8.533 8.533v25.6c0 4.719 3.823 8.533 8.533 8.533s8.533-3.814 8.533-8.533v-25.6c0-4.718-3.823-8.533-8.533-8.533z"/>
		<path d="m426.67 247.47h-25.6c-4.71 0-8.533 3.814-8.533 8.533s3.823 8.533 8.533 8.533h25.6c4.71 0 8.533-3.814 8.533-8.533s-3.823-8.533-8.533-8.533z"/>
		<path d="m110.93 247.47h-25.6c-4.71 0-8.533 3.814-8.533 8.533s3.823 8.533 8.533 8.533h25.6c4.71 0 8.533-3.814 8.533-8.533s-3.822-8.533-8.533-8.533z"/>
		<path d="m256 221.87c-18.825 0-34.133 15.309-34.133 34.133 0 18.825 15.309 34.133 34.133 34.133 18.825 0 34.133-15.309 34.133-34.133 0-18.825-15.308-34.133-34.133-34.133zm0 51.2c-9.412 0-17.067-7.654-17.067-17.067 0-9.412 7.654-17.067 17.067-17.067 9.412 0 17.067 7.654 17.067 17.067 0 9.412-7.655 17.067-17.067 17.067z"/>
		<path d="m256 145.07c-4.71 0-8.533 3.814-8.533 8.533v76.8c0 4.719 3.823 8.533 8.533 8.533s8.533-3.814 8.533-8.533v-76.8c0-4.719-3.823-8.533-8.533-8.533z"/>
		<path d="m324.27 247.47h-42.667c-4.71 0-8.533 3.814-8.533 8.533s3.823 8.533 8.533 8.533h42.667c4.71 0 8.533-3.814 8.533-8.533s-3.823-8.533-8.533-8.533z"/>
		<path d="m159.45 147.39l-16.888-16.888c-3.337-3.337-8.73-3.337-12.066 0-3.336 3.336-3.336 8.73 0 12.066l16.888 16.887c1.664 1.664 3.849 2.5 6.033 2.5 2.185 0 4.369-0.828 6.033-2.5 3.336-3.336 3.336-8.729 0-12.065z"/>
		<path d="m381.5 369.43l-16.887-16.887c-3.337-3.337-8.73-3.337-12.066 0s-3.337 8.73 0 12.066l16.887 16.887c1.664 1.664 3.849 2.5 6.033 2.5 2.185 0 4.369-0.836 6.033-2.5 3.336-3.337 3.336-8.73 0-12.066z"/>
		<path d="m381.5 130.5c-3.337-3.337-8.73-3.337-12.066 0l-16.887 16.887c-3.337 3.337-3.337 8.73 0 12.066 1.664 1.664 3.849 2.5 6.033 2.5 2.176 0 4.361-0.828 6.033-2.5l16.887-16.887c3.336-3.336 3.336-8.729 0-12.066z"/>
		<path d="m159.45 352.55c-3.336-3.337-8.73-3.337-12.066 0l-16.888 16.888c-3.337 3.337-3.337 8.73 0 12.066 1.664 1.664 3.849 2.5 6.033 2.5 2.185 0 4.369-0.836 6.033-2.5l16.887-16.887c3.337-3.337 3.337-8.73 1e-3 -12.067z"/>
</symbol>
<symbol viewBox="0 0 36.447 36.447">
<path d="m30.224 3.948h-1.098v-1.198c0-1.517-1.197-2.75-2.67-2.75-1.474 0-2.67 1.233-2.67 2.75v1.197h-2.74v-1.197c0-1.517-1.197-2.75-2.67-2.75s-2.67 1.233-2.67 2.75v1.197h-2.74v-1.197c0-1.517-1.197-2.75-2.67-2.75s-2.67 1.233-2.67 2.75v1.197h-1.402c-2.343 0-4.25 1.907-4.25 4.25v24c0 2.343 1.907 4.25 4.25 4.25h24c2.344 0 4.25-1.907 4.25-4.25v-24c0-2.342-1.907-4.249-4.25-4.249zm-4.938-1.198c0-0.689 0.525-1.25 1.17-1.25 0.646 0 1.17 0.561 1.17 1.25v4.896c0 0.689-0.524 1.25-1.17 1.25-0.645 0-1.17-0.561-1.17-1.25v-4.896zm-8.08 0c0-0.689 0.525-1.25 1.17-1.25s1.17 0.561 1.17 1.25v4.896c0 0.689-0.525 1.25-1.17 1.25s-1.17-0.561-1.17-1.25v-4.896zm-8.081 0c0-0.689 0.525-1.25 1.17-1.25s1.17 0.561 1.17 1.25v4.896c0 0.689-0.525 1.25-1.17 1.25s-1.17-0.561-1.17-1.25v-4.896zm22.849 29.448c0 0.965-0.785 1.75-1.75 1.75h-24c-0.965 0-1.75-0.785-1.75-1.75v-22h27.5v22z"/>
		<rect x="6.724" y="14.626" width="4.595" height="4.089"/>
		<rect x="12.857" y="14.626" width="4.596" height="4.089"/>
		<rect x="18.995" y="14.626" width="4.595" height="4.089"/>
		<rect x="25.128" y="14.626" width="4.596" height="4.089"/>
		<rect x="6.724" y="20.084" width="4.595" height="4.086"/>
		<rect x="12.857" y="20.084" width="4.596" height="4.086"/>
		<rect x="18.995" y="20.084" width="4.595" height="4.086"/>
		<rect x="25.128" y="20.084" width="4.596" height="4.086"/>
		<rect x="6.724" y="25.54" width="4.595" height="4.086"/>
		<rect x="12.857" y="25.54" width="4.596" height="4.086"/>
		<rect x="18.995" y="25.54" width="4.595" height="4.086"/>
		<rect x="25.128" y="25.54" width="4.596" height="4.086"/>
</symbol>
<symbol viewBox="0 0 459.785 459.785">
<path d="m173.32 114.95c-0.019 0.358-0.019 0.716 0 1.074 0.297 5.474 4.975 9.672 10.449 9.375h175.02c0.358 0.019 0.716 0.019 1.074 0 5.474-0.297 9.672-4.975 9.375-10.449v-104.49c0.019-0.358 0.019-0.716 0-1.074-0.297-5.474-4.975-9.672-10.449-9.375h-175.02c-0.358-0.019-0.716-0.019-1.074 0-5.474 0.297-9.672 4.975-9.375 10.449v104.49zm20.898-94.041h154.12v83.592h-154.12v-83.592z"/>
			<path d="m421.49 282.14v-104.49c0.019-0.358 0.019-0.716 0-1.074-0.297-5.474-4.975-9.672-10.449-9.375h-227.27c-0.358-0.019-0.716-0.019-1.074 0-5.474 0.297-9.672 4.975-9.375 10.449v104.49c-0.019 0.358-0.019 0.716 0 1.074 0.297 5.474 4.975 9.672 10.449 9.375h227.26c0.358 0.019 0.716 0.019 1.074 0 5.475-0.296 9.672-4.975 9.376-10.449zm-20.898-10.449h-206.37v-83.592h206.37v83.592z"/>
			<path d="m369.24 344.83c0.019-0.358 0.019-0.716 0-1.074-0.297-5.474-4.975-9.672-10.449-9.375h-175.02c-0.358-0.019-0.716-0.019-1.074 0-5.474 0.297-9.672 4.975-9.375 10.449v104.49c-0.019 0.358-0.019 0.716 0 1.074 0.297 5.474 4.975 9.672 10.449 9.375h175.02c0.358 0.019 0.716 0.019 1.074 0 5.474-0.297 9.672-4.975 9.375-10.449v-104.49zm-20.898 94.041h-154.12v-83.592h154.12v83.592z"/>
			<path d="m129.38 46.565c-5.482-24.497-29.785-39.912-54.282-34.429-20.746 4.642-35.502 23.045-35.527 44.303-0.533 21.12 13.888 39.692 34.482 44.408v84.637c-24.526 5.352-40.07 29.572-34.718 54.098 3.789 17.365 17.353 30.929 34.718 34.718v84.637c-20.594 4.716-35.015 23.288-34.482 44.408 0.029 25.103 20.402 45.43 45.505 45.401s45.43-20.402 45.401-45.505c-0.024-21.259-14.781-39.661-35.526-44.304v-84.637c20.688-4.684 35.281-23.199 35.004-44.408 0.277-21.21-14.316-39.724-35.004-44.408v-84.637c24.497-5.482 39.912-29.785 34.429-54.282zm-19.278 356.78c-0.284 13.645-11.429 24.558-25.078 24.555-13.561 0-24.555-10.994-24.555-24.555s10.994-24.555 24.555-24.555c13.649-3e-3 24.794 10.91 25.078 24.555zm-0.507-173.47c9e-3 13.561-10.978 24.562-24.539 24.571h-0.031c-13.357-0.284-24.036-11.195-24.033-24.555-3e-3 -13.36 10.676-24.271 24.033-24.555 13.561-9e-3 24.562 10.977 24.57 24.539zm-24.571-148.88c-13.357-0.284-24.035-11.195-24.032-24.555-3e-3 -13.36 10.676-24.271 24.033-24.555 13.648-3e-3 24.793 10.91 25.078 24.555-0.285 13.646-11.43 24.558-25.079 24.555z"/>
			<path d="m215.12 57.484h60.082c5.771 0 10.449-4.678 10.449-10.449s-4.678-10.449-10.449-10.449h-60.082c-5.771 0-10.449 4.678-10.449 10.449s4.678 10.449 10.449 10.449z"/>
			<path d="m327.44 67.933h-112.33c-5.771 0-10.449 4.678-10.449 10.449s4.678 10.449 10.449 10.449h112.33c5.771 0 10.449-4.678 10.449-10.449s-4.678-10.449-10.449-10.449z"/>
			<path d="m215.12 224.67h60.082c5.771 0 10.449-4.678 10.449-10.449s-4.678-10.449-10.449-10.449h-60.082c-5.771 0-10.449 4.678-10.449 10.449s4.678 10.449 10.449 10.449z"/>
			<path d="m215.12 256.02h112.33c5.771 0 10.449-4.678 10.449-10.449s-4.678-10.449-10.449-10.449h-112.33c-5.771 0-10.449 4.678-10.449 10.449s4.678 10.449 10.449 10.449z"/>
			<path d="m215.12 391.85h60.082c5.771 0 10.449-4.678 10.449-10.449s-4.678-10.449-10.449-10.449h-60.082c-5.771 0-10.449 4.678-10.449 10.449s4.678 10.449 10.449 10.449z"/>
			<path d="m215.12 423.2h112.33c5.771 0 10.449-4.678 10.449-10.449s-4.678-10.449-10.449-10.449h-112.33c-5.771 0-10.449 4.678-10.449 10.449s4.678 10.449 10.449 10.449z"/>
				</symbol>
<symbol viewBox="0 0 192.701 192.701">
<path d="m171.96 88.526l-75.61 74.528-75.61-74.54c-4.74-4.704-12.439-4.704-17.179 0s-4.74 12.319 0 17.011l84.2 82.997c4.559 4.511 12.608 4.535 17.191 0l84.2-83.009c4.74-4.692 4.74-12.319 0-17.011-4.753-4.679-12.452-4.679-17.192 0.024z"/>
		<path d="m87.755 104.32c4.559 4.511 12.608 4.535 17.191 0l84.2-82.997c4.74-4.704 4.74-12.319 0-17.011-4.74-4.704-12.439-4.704-17.179 0l-75.622 74.528-75.611-74.528c-4.74-4.704-12.439-4.704-17.179 0s-4.74 12.319 0 17.011l84.2 82.997z"/>
</symbol>
</svg>
