<?xml version="1.0" encoding="iso-8859-1"?>
<!-- Generator: Adobe Illustrator 19.0.0, SVG Export Plug-In . SVG Version: 6.00 Build 0)  -->
<svg version="1.1" id="Layer_1" xmlns="http://www.w3.org/2000/svg" xmlns:xlink="http://www.w3.org/1999/xlink" x="0px" y="0px"
	 viewBox="0 0 512 512" style="enable-background:new 0 0 512 512;" xml:space="preserve">
<g>
	<g>
		<path d="M496,108.132H273.448l-72.576-71.256H0v122.752v299.496c0,8.8,7.2,16,16,16h480c8.8,0,16-7.2,16-16V124.132
			C512,115.332,504.8,108.132,496,108.132z M32,68.868h155.8l39.984,39.256H32V68.868z M480,443.124H32V140.132h448V443.124z"/>
	</g>
</g>
<g>
	<g>
		<rect x="92.648" y="186.38" width="84.992" height="84.992"/>
	</g>
</g>
<g>
	<g>
		<rect x="214.816" y="186.38" width="84.992" height="84.992"/>
	</g>
</g>
<g>
	<g>
		<rect x="336.96" y="186.38" width="84.992" height="84.992"/>
	</g>
</g>
<g>
	<g>
		<rect x="92.648" y="310.668" width="84.992" height="84.992"/>
	</g>
</g>
<g>
	<g>
		<rect x="214.816" y="310.668" width="84.992" height="84.992"/>
	</g>
</g>
<g>
	<g>
		<rect x="336.96" y="310.668" width="84.992" height="84.992"/>
	</g>
</g>
<g>
</g>
<g>
</g>
<g>
</g>
<g>
</g>
<g>
</g>
<g>
</g>
<g>
</g>
<g>
</g>
<g>
</g>
<g>
</g>
<g>
</g>
<g>
</g>
<g>
</g>
<g>
</g>
<g>
</g>
</svg>
