<svg  xmlns="http://www.w3.org/2000/svg" version="1.1" xml:space="preserve"  preserveAspectRatio="xMidYMid meet">
	<symbol id="home" viewBox="0 0 27.02 27.02">
		<path d="M3.674,24.876c0,0-0.024,0.604,0.566,0.604c0.734,0,6.811-0.008,6.811-0.008l0.01-5.581c0,0-0.096-0.92,0.797-0.92h2.826c1.056,0,0.991,0.92,0.991,0.92l-0.012,5.563c0,0,5.762,0,6.667,0c0.749,0,0.715-0.752,0.715-0.752V14.413l-9.396-8.358l-9.975,8.358C3.674,14.413,3.674,24.876,3.674,24.876z" /><path d="M0,13.635c0,0,0.847,1.561,2.694,0l11.038-9.338l10.349,9.28c2.138,1.542,2.939,0,2.939,0L13.732,1.54L0,13.635z" /><polygon points="23.83,4.275 21.168,4.275 21.179,7.503 23.83,9.752" />
	</symbol>
	<symbol id="folder" viewBox="0 0 60 60">
		<path d="M14,23.5c-0.254,0-0.479,0.172-0.545,0.417L2,52.5v1c0,0.734-0.047,1,0.565,1h44.759c1.156,0,2.174-0.779,2.45-1.813L60,24.5c0,0,0-0.625,0-1H14z"/><path d="M12.731,21.5H53h1v-6.268c0-1.507-1.226-2.732-2.732-2.732H26.515l-5-7H2.732C1.226,5.5,0,6.726,0,8.232v41.796l10.282-26.717C10.557,22.279,11.575,21.5,12.731,21.5z"/>
	</symbol>
	<symbol id="templates" viewBox="0 0 512 512">
		<path d="M496,108.136H273.448l-72.576-71.264H0v87.264v35.488v299.504c0,8.8,7.2,16,16,16h480c8.8,0,16-7.2,16-16V124.136 C512,115.336,504.8,108.136,496,108.136z M32,68.872h155.8l39.984,39.264H32V68.872z M480,443.128H32V159.624v-19.488h448V443.128z"/><circle cx="256" cy="291.48" r="32.808"/><path d="M379.08,309.928v-36.912l-37.552-3.752c-2.144-7.904-5.432-15.328-9.64-22.128l24.216-29.6l-26.096-26.096l-30.792,25.192c-6.44-3.392-13.36-6-20.64-7.64l-4.048-40.528H256.08h-0.152h-18.456l-4.048,40.528c-7.288,1.64-14.2,4.248-20.64,7.64l-30.8-25.192l-26.096,26.096l24.216,29.6c-4.2,6.8-7.496,14.232-9.64,22.128l-37.552,3.752v36.912l37.616,3.76c2.168,7.88,5.408,15.312,9.616,22.112l-24.24,29.616L182,391.512l30.776-25.184c6.44,3.384,13.36,5.984,20.648,7.64l4.048,40.528h18.456h0.152h18.456l4.048-40.528c7.288-1.64,14.208-4.248,20.648-7.64l30.776,25.184l26.096-26.096l-24.24-29.632c4.192-6.784,7.44-14.224,9.608-22.104L379.08,309.928z M256,346.984c-30.656,0-55.504-24.856-55.504-55.504s24.848-55.504,55.504-55.504s55.504,24.856,55.504,55.504S286.656,346.984,256,346.984z"/>
	</symbol>
	<symbol id="tutorials" viewBox="0 0 512 512" >
		<path d="M496,108.132H273.448l-72.576-71.256H0v122.752v299.496c0,8.8,7.2,16,16,16h480c8.8,0,16-7.2,16-16V124.132C512,115.332,504.8,108.132,496,108.132z M32,68.868h155.8l39.984,39.256H32V68.868z M480,443.124H32V140.132h448V443.124z"/><rect x="92.648" y="186.38" width="84.992" height="84.992"/><rect x="214.816" y="186.38" width="84.992" height="84.992"/><rect x="336.96" y="186.38" width="84.992" height="84.992"/><rect x="92.648" y="310.668" width="84.992" height="84.992"/><rect x="214.816" y="310.668" width="84.992" height="84.992"/><rect x="336.96" y="310.668" width="84.992" height="84.992"/>
	</symbol>
	<symbol id="apis" viewBox="0 0 512 512" >
			<path d="M496,108.132H273.456l-72.584-71.256H0v87.256v35.496v299.496c0,8.8,7.2,16,16,16h480c8.8,0,16-7.2,16-16V124.132C512,115.332,504.8,108.132,496,108.132z M32,68.876h155.8l39.984,39.256H32V68.876z M480,443.124H32V159.62v-19.496h448V443.124z"/><polygon points="214.048,230.468 103.344,278.388 103.344,305.044 214.048,353.188 214.048,322.004 136.832,291.38 214.048,261.868"/><polygon points="264.28,207.34 224.296,374.332 247.096,374.332 287.52,207.34"/><polygon points="297.76,230.7 297.76,261.652 375.088,291.716 297.76,322.116 297.76,353.292 408.576,305.044 408.576,278.612 "/>
	</symbol>
	<symbol id="linkedin" viewBox="0 0 512 512">
		<path d="m256 0c-141.363281 0-256 114.636719-256 256s114.636719 256 256 256 256-114.636719 256-256-114.636719-256-256-256zm-74.390625 387h-62.347656v-187.574219h62.347656zm-31.171875-213.1875h-.40625c-20.921875 0-34.453125-14.402344-34.453125-32.402344 0-18.40625 13.945313-32.410156 35.273437-32.410156 21.328126 0 34.453126 14.003906 34.859376 32.410156 0 18-13.53125 32.402344-35.273438 32.402344zm255.984375 213.1875h-62.339844v-100.347656c0-25.21875-9.027343-42.417969-31.585937-42.417969-17.222656 0-27.480469 11.601563-31.988282 22.800781-1.648437 4.007813-2.050781 9.609375-2.050781 15.214844v104.75h-62.34375s.816407-169.976562 0-187.574219h62.34375v26.558594c8.285157-12.78125 23.109375-30.960937 56.1875-30.960937 41.019531 0 71.777344 26.808593 71.777344 84.421874zm0 0"/>
	</symbol>
	<symbol id="github" viewBox="0 0 32 32">
		<path d="M16 0.395c-8.836 0-16 7.163-16 16 0 7.069 4.585 13.067 10.942 15.182 0.8 0.148 1.094-0.347 1.094-0.77 0-0.381-0.015-1.642-0.022-2.979-4.452 0.968-5.391-1.888-5.391-1.888-0.728-1.849-1.776-2.341-1.776-2.341-1.452-0.993 0.11-0.973 0.11-0.973 1.606 0.113 2.452 1.649 2.452 1.649 1.427 2.446 3.743 1.739 4.656 1.33 0.143-1.034 0.558-1.74 1.016-2.14-3.554-0.404-7.29-1.777-7.29-7.907 0-1.747 0.625-3.174 1.649-4.295-0.166-0.403-0.714-2.030 0.155-4.234 0 0 1.344-0.43 4.401 1.64 1.276-0.355 2.645-0.532 4.005-0.539 1.359 0.006 2.729 0.184 4.008 0.539 3.054-2.070 4.395-1.64 4.395-1.64 0.871 2.204 0.323 3.831 0.157 4.234 1.026 1.12 1.647 2.548 1.647 4.295 0 6.145-3.743 7.498-7.306 7.895 0.574 0.497 1.085 1.47 1.085 2.963 0 2.141-0.019 3.864-0.019 4.391 0 0.426 0.288 0.925 1.099 0.768 6.354-2.118 10.933-8.113 10.933-15.18 0-8.837-7.164-16-16-16z"></path>
	</symbol>
	<symbol id="contact" viewBox="0 0 455 455">
		<polygon points="55,98.788 19.723,98.788 19.723,128.788 55,128.788 55,212.5 15,212.5 15,242.5 55,242.5 55,326.212 15,326.212 15,356.212 55,356.212 55,455 125,455 125,0 55,0 	"/><path d="M155,0v455h285V0H155z M297.5,135.862c24.377,0,44.138,19.761,44.138,44.138s-19.761,44.138-44.138,44.138 S253.362,204.377,253.362,180S273.123,135.862,297.5,135.862z M217.5,319.138c0-44.183,35.817-80,80-80s80,35.817,80,80H217.5z"/>
	</symbol>
</svg>
