<?xml version="1.0" encoding="iso-8859-1"?>
<!-- Generator: Adobe Illustrator 19.0.0, SVG Export Plug-In . SVG Version: 6.00 Build 0)  -->
<svg version="1.1" id="Layer_1" xmlns="http://www.w3.org/2000/svg" xmlns:xlink="http://www.w3.org/1999/xlink" x="0px" y="0px"
	 viewBox="0 0 512 512" style="enable-background:new 0 0 512 512;" xml:space="preserve">
<g>
	<g>
		<path d="M496,108.136H273.448l-72.576-71.264H0v87.264v35.488v299.504c0,8.8,7.2,16,16,16h480c8.8,0,16-7.2,16-16V124.136
			C512,115.336,504.8,108.136,496,108.136z M32,68.872h155.8l39.984,39.264H32V68.872z M480,443.128H32V159.624v-19.488h448V443.128
			z"/>
	</g>
</g>
<g>
	<g>
		<circle cx="256" cy="291.48" r="32.808"/>
	</g>
</g>
<g>
	<g>
		<path d="M379.08,309.928v-36.912l-37.552-3.752c-2.144-7.904-5.432-15.328-9.64-22.128l24.216-29.6l-26.096-26.096l-30.792,25.192
			c-6.44-3.392-13.36-6-20.64-7.64l-4.048-40.528H256.08h-0.152h-18.456l-4.048,40.528c-7.288,1.64-14.2,4.248-20.64,7.64
			l-30.8-25.192l-26.096,26.096l24.216,29.6c-4.2,6.8-7.496,14.232-9.64,22.128l-37.552,3.752v36.912l37.616,3.76
			c2.168,7.88,5.408,15.312,9.616,22.112l-24.24,29.616L182,391.512l30.776-25.184c6.44,3.384,13.36,5.984,20.648,7.64l4.048,40.528
			h18.456h0.152h18.456l4.048-40.528c7.288-1.64,14.208-4.248,20.648-7.64l30.776,25.184l26.096-26.096l-24.24-29.632
			c4.192-6.784,7.44-14.224,9.608-22.104L379.08,309.928z M256,346.984c-30.656,0-55.504-24.856-55.504-55.504
			s24.848-55.504,55.504-55.504s55.504,24.856,55.504,55.504S286.656,346.984,256,346.984z"/>
	</g>
</g>
<g>
</g>
<g>
</g>
<g>
</g>
<g>
</g>
<g>
</g>
<g>
</g>
<g>
</g>
<g>
</g>
<g>
</g>
<g>
</g>
<g>
</g>
<g>
</g>
<g>
</g>
<g>
</g>
<g>
</g>
</svg>
