<svg height="512pt" viewBox="0 -124 512 512" width="512pt" xmlns="http://www.w3.org/2000/svg"><path d="m57.496094 0h-45.425782c-6.667968 0-12.070312 5.402344-12.070312 12.070312v210.3125c0 6.667969 5.402344 12.070313 12.070312 12.070313h45.425782c6.667968 0 12.070312-5.402344 12.070312-12.070313v-210.3125c0-6.667968-5.402344-12.070312-12.070312-12.070312zm0 0"/><path d="m374.816406 189.679688-116.628906-79.304688c-.164062-.109375-.328125-.222656-.488281-.339844-5.109375-3.621094-9.46875-5.699218-11.957031-5.699218-1.773438 0-4.554688 1.0625-7.894532 3l-34.5 24.761718c-.199218.144532-.402344.285156-.609375.425782-10.300781 7.023437-22.386719 10.738281-34.945312 10.738281-11.484375 0-22.871094-3.070313-32.941407-8.882813-14.878906-8.589844-25.113281-23.214844-28.070312-40.128906-2.957031-16.90625 1.703125-34.125 12.777344-47.242188 1.140625-1.351562 7.824218-7.152343 7.824218-7.152343h-26.972656v167.964843l88.132813 51.964844c5.613281 3.496094 11.914062 5.050782 17.996093 5.050782 13 0 24.976563-7.117188 26.953126-17.597657 5.378906 7.542969 16.144531 11.1875 27.246093 11.1875 13.8125 0 28.144531-5.644531 33.273438-16.457031 4.671875 4.558594 12.625 6.769531 20.824219 6.769531 13.039062 0 26.691406-5.59375 28.71875-16.214843 5.324218 4.046874 11.582031 5.742187 17.851562 5.742187 20.492188 0 41.074219-18.105469 29.269531-31.230469zm0 0"/><path d="m499.929688 0h-45.425782c-6.667968 0-12.070312 5.402344-12.070312 12.070312v215.566407c0 6.667969 5.402344 12.074219 12.070312 12.074219h45.425782c6.667968 0 12.070312-5.40625 12.070312-12.074219v-215.566407c0-6.667968-5.402344-12.070312-12.070312-12.070312zm0 0"/><path d="m194.417969 23.910156-51.292969 42.996094c-10.847656 12.84375-7.429688 32.351562 7.144531 40.761719 5.128907 2.960937 11.246094 4.75 17.519531 4.75 5.957032 0 12.054688-1.617188 17.574219-5.378907l35.558594-25.519531c8.714844-5.304687 16.738281-8.027343 24.820313-8.027343 9.453124 0 18.984374 3.722656 29.789062 11.378906l126.898438 86.285156 9.160156-2.144531v-156.941407c0-1.480468.074218-2.949218.222656-4.390624h-175.933594c-19.414062-.003907-25.566406 3.621093-41.460937 16.230468zm0 0"/></svg>