<svg  xmlns="http://www.w3.org/2000/svg" xmlns:xlink="http://www.w3.org/1999/xlink" x="0px" y="0px" version="2.0" xml:space="preserve"  preserveAspectRatio="xMidYMid meet">
	<symbol id="home" viewBox="0 0 27.02 27.02"><path d="M3.674,24.876c0,0-0.024,0.604,0.566,0.604c0.734,0,6.811-0.008,6.811-0.008l0.01-5.581c0,0-0.096-0.92,0.797-0.92h2.826c1.056,0,0.991,0.92,0.991,0.92l-0.012,5.563c0,0,5.762,0,6.667,0c0.749,0,0.715-0.752,0.715-0.752V14.413l-9.396-8.358l-9.975,8.358C3.674,14.413,3.674,24.876,3.674,24.876z" /><path d="M0,13.635c0,0,0.847,1.561,2.694,0l11.038-9.338l10.349,9.28c2.138,1.542,2.939,0,2.939,0L13.732,1.54L0,13.635z" /><polygon points="23.83,4.275 21.168,4.275 21.179,7.503 23.83,9.752" /></symbol>
	<symbol id="folder" viewBox="0 0 60 60"><path d="M14,23.5c-0.254,0-0.479,0.172-0.545,0.417L2,52.5v1c0,0.734-0.047,1,0.565,1h44.759c1.156,0,2.174-0.779,2.45-1.813L60,24.5c0,0,0-0.625,0-1H14z"/><path d="M12.731,21.5H53h1v-6.268c0-1.507-1.226-2.732-2.732-2.732H26.515l-5-7H2.732C1.226,5.5,0,6.726,0,8.232v41.796l10.282-26.717C10.557,22.279,11.575,21.5,12.731,21.5z"/></symbol>
	<symbol id="templates" viewBox="0 0 512 512"><path d="M496,108.136H273.448l-72.576-71.264H0v87.264v35.488v299.504c0,8.8,7.2,16,16,16h480c8.8,0,16-7.2,16-16V124.136 C512,115.336,504.8,108.136,496,108.136z M32,68.872h155.8l39.984,39.264H32V68.872z M480,443.128H32V159.624v-19.488h448V443.128z"/><circle cx="256" cy="291.48" r="32.808"/><path d="M379.08,309.928v-36.912l-37.552-3.752c-2.144-7.904-5.432-15.328-9.64-22.128l24.216-29.6l-26.096-26.096l-30.792,25.192c-6.44-3.392-13.36-6-20.64-7.64l-4.048-40.528H256.08h-0.152h-18.456l-4.048,40.528c-7.288,1.64-14.2,4.248-20.64,7.64l-30.8-25.192l-26.096,26.096l24.216,29.6c-4.2,6.8-7.496,14.232-9.64,22.128l-37.552,3.752v36.912l37.616,3.76c2.168,7.88,5.408,15.312,9.616,22.112l-24.24,29.616L182,391.512l30.776-25.184c6.44,3.384,13.36,5.984,20.648,7.64l4.048,40.528h18.456h0.152h18.456l4.048-40.528c7.288-1.64,14.208-4.248,20.648-7.64l30.776,25.184l26.096-26.096l-24.24-29.632c4.192-6.784,7.44-14.224,9.608-22.104L379.08,309.928z M256,346.984c-30.656,0-55.504-24.856-55.504-55.504s24.848-55.504,55.504-55.504s55.504,24.856,55.504,55.504S286.656,346.984,256,346.984z"/></symbol>
	<symbol id="tutorials" viewBox="0 0 512 512" ><path d="M496,108.132H273.448l-72.576-71.256H0v122.752v299.496c0,8.8,7.2,16,16,16h480c8.8,0,16-7.2,16-16V124.132C512,115.332,504.8,108.132,496,108.132z M32,68.868h155.8l39.984,39.256H32V68.868z M480,443.124H32V140.132h448V443.124z"/><rect x="92.648" y="186.38" width="84.992" height="84.992"/><rect x="214.816" y="186.38" width="84.992" height="84.992"/><rect x="336.96" y="186.38" width="84.992" height="84.992"/><rect x="92.648" y="310.668" width="84.992" height="84.992"/><rect x="214.816" y="310.668" width="84.992" height="84.992"/><rect x="336.96" y="310.668" width="84.992" height="84.992"/></symbol>
	<symbol id="apis" viewBox="0 0 512 512" ><path d="M496,108.132H273.456l-72.584-71.256H0v87.256v35.496v299.496c0,8.8,7.2,16,16,16h480c8.8,0,16-7.2,16-16V124.132C512,115.332,504.8,108.132,496,108.132z M32,68.876h155.8l39.984,39.256H32V68.876z M480,443.124H32V159.62v-19.496h448V443.124z"/><polygon points="214.048,230.468 103.344,278.388 103.344,305.044 214.048,353.188 214.048,322.004 136.832,291.38 214.048,261.868"/><polygon points="264.28,207.34 224.296,374.332 247.096,374.332 287.52,207.34"/><polygon points="297.76,230.7 297.76,261.652 375.088,291.716 297.76,322.116 297.76,353.292 408.576,305.044 408.576,278.612 "/></symbol>
	<symbol id="linkedin" viewBox="0 0 512 512"><path d="m256 0c-141.363281 0-256 114.636719-256 256s114.636719 256 256 256 256-114.636719 256-256-114.636719-256-256-256zm-74.390625 387h-62.347656v-187.574219h62.347656zm-31.171875-213.1875h-.40625c-20.921875 0-34.453125-14.402344-34.453125-32.402344 0-18.40625 13.945313-32.410156 35.273437-32.410156 21.328126 0 34.453126 14.003906 34.859376 32.410156 0 18-13.53125 32.402344-35.273438 32.402344zm255.984375 213.1875h-62.339844v-100.347656c0-25.21875-9.027343-42.417969-31.585937-42.417969-17.222656 0-27.480469 11.601563-31.988282 22.800781-1.648437 4.007813-2.050781 9.609375-2.050781 15.214844v104.75h-62.34375s.816407-169.976562 0-187.574219h62.34375v26.558594c8.285157-12.78125 23.109375-30.960937 56.1875-30.960937 41.019531 0 71.777344 26.808593 71.777344 84.421874zm0 0"/></symbol>
	<symbol id="github" viewBox="0 0 32 32"><path d="M16 0.395c-8.836 0-16 7.163-16 16 0 7.069 4.585 13.067 10.942 15.182 0.8 0.148 1.094-0.347 1.094-0.77 0-0.381-0.015-1.642-0.022-2.979-4.452 0.968-5.391-1.888-5.391-1.888-0.728-1.849-1.776-2.341-1.776-2.341-1.452-0.993 0.11-0.973 0.11-0.973 1.606 0.113 2.452 1.649 2.452 1.649 1.427 2.446 3.743 1.739 4.656 1.33 0.143-1.034 0.558-1.74 1.016-2.14-3.554-0.404-7.29-1.777-7.29-7.907 0-1.747 0.625-3.174 1.649-4.295-0.166-0.403-0.714-2.030 0.155-4.234 0 0 1.344-0.43 4.401 1.64 1.276-0.355 2.645-0.532 4.005-0.539 1.359 0.006 2.729 0.184 4.008 0.539 3.054-2.070 4.395-1.64 4.395-1.64 0.871 2.204 0.323 3.831 0.157 4.234 1.026 1.12 1.647 2.548 1.647 4.295 0 6.145-3.743 7.498-7.306 7.895 0.574 0.497 1.085 1.47 1.085 2.963 0 2.141-0.019 3.864-0.019 4.391 0 0.426 0.288 0.925 1.099 0.768 6.354-2.118 10.933-8.113 10.933-15.18 0-8.837-7.164-16-16-16z"></path></symbol>
	<symbol id="contact" viewBox="0 0 455 455"><polygon points="55,98.788 19.723,98.788 19.723,128.788 55,128.788 55,212.5 15,212.5 15,242.5 55,242.5 55,326.212 15,326.212 15,356.212 55,356.212 55,455 125,455 125,0 55,0 "/><path d="M155,0v455h285V0H155z M297.5,135.862c24.377,0,44.138,19.761,44.138,44.138s-19.761,44.138-44.138,44.138 S253.362,204.377,253.362,180S273.123,135.862,297.5,135.862z M217.5,319.138c0-44.183,35.817-80,80-80s80,35.817,80,80H217.5z"/></symbol>
	<symbol id="commmas" viewBox="0 0 198 198"><path d="M0,92.905h48.024c-0.821,35-10.748,38.973-23.216,40.107L20,133.608v38.486l5.542-0.297c16.281-0.916,34.281-3.851,46.29-18.676C82.359,140.125,87,118.893,87,86.3V25.905H0V92.905z"/><path d="M111,25.905v67h47.383c-0.821,35-10.427,38.973-22.895,40.107L131,133.608v38.486l5.222-0.297c16.281-0.916,34.442-3.851,46.451-18.676C193.199,140.125,198,118.893,198,86.3V25.905H111z"/></symbol>
	<symbol id="success" viewBox="0 0 52 52"><path d="M26,0C11.664,0,0,11.663,0,26s11.664,26,26,26s26-11.663,26-26S40.336,0,26,0z M40.495,17.329l-16,18C24.101,35.772,23.552,36,22.999,36c-0.439,0-0.88-0.144-1.249-0.438l-10-8c-0.862-0.689-1.002-1.948-0.312-2.811c0.689-0.863,1.949-1.003,2.811-0.313l8.517,6.813l14.739-16.581c0.732-0.826,1.998-0.9,2.823-0.166C41.154,15.239,41.229,16.503,40.495,17.329z"/></symbol>	
	<symbol id="alert" viewBox="0 0 426.667 426.667"><path d="M213.333,0C95.573,0,0,95.467,0,213.333s95.573,213.333,213.333,213.333S426.667,331.2,426.667,213.333 S331.093,0,213.333,0z M234.667,320H192v-42.667h42.667V320z M234.667,234.667H192v-128h42.667V234.667z"/></symbol>
	<symbol id="c#" viewBox="0 0 312.553 312.553"><path d="M302.553,0H10C4.477,0,0,4.478,0,10v292.553c0,5.522,4.477,10,10,10h292.553c5.523,0,10-4.478,10-10V10C312.553,4.478,308.076,0,302.553,0z M148.087,193.287c-9.481,8.296-21.592,12.866-34.102,12.866c-28.109,0-50.977-22.4-50.977-49.934c0-27.471,22.868-49.819,50.977-49.819c12.527,0,24.597,4.53,33.987,12.756c3.873,3.393,4.262,9.283,0.868,13.156c-3.392,3.874-9.283,4.265-13.156,0.869c-5.987-5.245-13.694-8.135-21.699-8.135c-17.827,0-32.33,13.984-32.33,31.173c0,17.251,14.503,31.286,32.33,31.286c7.991,0,15.741-2.931,21.822-8.252c3.875-3.391,9.765-2.998,13.157,0.877C152.355,184.006,151.962,189.896,148.087,193.287z M240.22,162.286c5.15,0,9.324,4.174,9.324,9.323s-4.174,9.323-9.324,9.323h-10.869l-3.378,14.904c-0.981,4.328-4.826,7.265-9.085,7.265c-0.683,0-1.376-0.075-2.069-0.232c-5.022-1.139-8.17-6.132-7.032-11.153l2.444-10.783h-20.201l-3.378,14.904c-0.981,4.328-4.826,7.265-9.084,7.265c-0.683,0-1.376-0.075-2.069-0.232c-5.022-1.139-8.17-6.132-7.032-11.153l2.448-10.799c-5.007-0.162-9.019-4.262-9.019-9.308c0-5.149,4.174-9.323,9.324-9.323h3.917l2.725-12.02h-6.642c-5.149,0-9.324-4.174-9.324-9.322c0-5.15,4.174-9.324,9.324-9.324h10.869l3.378-14.904c1.138-5.021,6.134-8.17,11.154-7.032c5.022,1.139,8.17,6.132,7.032,11.153l-2.444,10.783h20.201l3.378-14.904c1.138-5.021,6.133-8.17,11.154-7.032c5.022,1.139,8.17,6.132,7.032,11.153l-2.448,10.799c5.007,0.162,9.019,4.262,9.019,9.309c0,5.148-4.174,9.322-9.324,9.322h-3.917l-2.725,12.02H240.22z"/><polygon points="194.258,162.286 214.458,162.286 217.183,150.267 196.982,150.267 	"/></symbol>
	<symbol id="css" viewBox="0 0 512 512"><path d="M32,0l40.8,460.8L256,512l183.136-51.168L480,0H32z M392.768,150.688l-5.152,57.888l-15.52,173.568L256,414.208l-0.064,0.032l-116-32.128l-8.128-90.752h56.832l4.224,47.104l63.072,17.024l0.064-0.064l63.136-17.024l8.608-78.432l-198.656,0.544l-5.632-53.664l209.056-2.432l4.224-57.44l-218.88,0.608l-3.68-53.376H256h141.824L392.768,150.688z"/></symbol>
	<symbol id="html" viewBox="0 0 299.215 299.215"><path d="M22.347,0c-2.75,0-4.799,2.241-4.555,4.98l23.184,260.047c0.244,2.739,2.611,5.582,5.262,6.318l98.381,27.316c2.65,0.736,6.986,0.736,9.637,0.002l98.68-27.361c2.65-0.735,5.02-3.578,5.264-6.316L281.422,4.98c0.246-2.739-1.805-4.98-4.555-4.98H22.347z M232.049,59.641c-0.219,2.443-0.598,6.684-0.842,9.423l-0.611,6.823c-0.246,2.738-0.596,6.654-0.781,8.701c-0.184,2.048-0.359,3.723-0.391,3.723c-0.031,0-2.307,0-5.057,0h-69.76c-2.75,0-5.023,0-5.053,0s-2.305,0-5.055,0h-36.74c-2.75,0-4.799,2.241-4.555,4.98l2.143,23.955c0.244,2.738,2.695,4.98,5.445,4.98H144.5c2.75,0,5.025,0,5.055,0s2.303,0,5.053,0h57.939c2.75,0,7.006,0,9.457,0c2.449,0,4.273,1.999,4.051,4.442c-0.223,2.443-0.604,6.685-0.848,9.423l-6.891,77.228c-0.246,2.739-0.557,6.238-0.691,7.776c-0.137,1.537-2.416,3.396-5.066,4.131l-58.133,16.119c-2.65,0.734-4.852,1.342-4.893,1.351c-0.041,0.009-2.242-0.586-4.893-1.321l-58.195-16.148c-2.65-0.735-5.018-3.578-5.262-6.317l-3.746-42.045c-0.244-2.739,1.807-4.98,4.557-4.98h5.311c2.75,0,7.25,0,10,0h7.92c2.75,0,5.199,2.241,5.445,4.98l1.469,16.459c0.244,2.739,2.615,5.566,5.271,6.283l27.221,7.351c2.654,0.717,4.836,1.304,4.848,1.304s2.193-0.588,4.848-1.305l27.27-7.369c2.654-0.717,5.027-3.545,5.273-6.283l2.957-32.976c0.246-2.739-1.803-4.98-4.553-4.98h-30.666c-2.75,0-5.023,0-5.053,0s-2.305,0-5.055,0H80.511c-2.75,0-5.199-2.242-5.443-4.98l-7.256-81.306c-0.244-2.739-0.623-6.979-0.842-9.423c-0.217-2.443,1.854-4.442,4.604-4.442H144.5c2.75,0,5.025,0,5.055,0s2.303,0,5.053,0h72.838C230.195,55.198,232.267,57.197,232.049,59.641z"/></symbol>
	<symbol id="js" viewBox="0 0 312.553 312.553"><path d="M302.553,0H10C4.477,0,0,4.478,0,10v292.553c0,5.522,4.477,10,10,10h292.553c5.523,0,10-4.478,10-10V10C312.553,4.478,308.076,0,302.553,0z M143.625,173.732c0,18.615-10.434,30.179-27.232,30.179c-10.55,0-19.978-5.292-26.547-14.901c-2.905-4.251-1.815-10.053,2.436-12.959c4.252-2.906,10.055-1.814,12.959,2.436c3.074,4.498,6.826,6.778,11.152,6.778c3.419,0,8.586,0,8.586-11.532v-47.467H99.504c-5.149,0-9.323-4.174-9.323-9.323c0-5.149,4.174-9.323,9.323-9.323h34.798c5.149,0,9.323,4.174,9.323,9.323V173.732z M189.441,205.6c-12.499,0-25.251-5.27-33.279-13.753c-3.54-3.74-3.377-9.642,0.362-13.181c3.741-3.54,9.644-3.377,13.181,0.362c4.486,4.74,12.417,7.925,19.736,7.925c7.493,0,16.244-2.188,16.244-8.351c0.048-5.81-3.045-7.986-17.415-12.339c-12.677-3.839-31.835-9.642-31.835-31.725c0-16.5,14.306-27.586,35.599-27.586c9.479,0,19.815,2.874,26.975,7.502c4.324,2.795,5.564,8.567,2.769,12.892c-2.796,4.324-8.568,5.564-12.892,2.769c-4.112-2.658-11.042-4.516-16.852-4.516c-7.82,0-16.952,2.342-16.952,8.939c0,7.165,4.189,9.516,18.594,13.879c12.277,3.718,30.83,9.337,30.656,30.262C224.331,194.75,210.31,205.6,189.441,205.6z"/></symbol>
 	<symbol id="uiux" viewBox="0 0 56 56"><path d="m12.03 4h2v2h-2z"/><path d="m4.03 4h2v2h-2z"/><path d="m20.03 4h2v2h-2z"/><path d="m53.53 0h-51c-1.378 0-2.5 1.122-2.5 2.5v7.5h56v-7.5c0-1.378-1.122-2.5-2.5-2.5zm-45.5 7c0 .552-.448 1-1 1h-4c-.552 0-1-.448-1-1v-4c0-.552.448-1 1-1h4c.552 0 1 .448 1 1zm8 0c0 .552-.448 1-1 1h-4c-.552 0-1-.448-1-1v-4c0-.552.448-1 1-1h4c.552 0 1 .448 1 1zm8 0c0 .552-.448 1-1 1h-4c-.552 0-1-.448-1-1v-4c0-.552.448-1 1-1h4c.552 0 1 .448 1 1z"/><path d="m4.03 52h18v-12h-18zm6-7h2v-2c0-.552.448-1 1-1s1 .448 1 1v2h2c.552 0 1 .448 1 1s-.448 1-1 1h-2v2c0 .552-.448 1-1 1s-1-.448-1-1v-2h-2c-.552 0-1-.448-1-1s.448-1 1-1z"/><path d="m14.03 16h-10v10h10zm-4 6h-2c-.552 0-1-.448-1-1s.448-1 1-1h2c.552 0 1 .448 1 1s-.448 1-1 1z"/><path d="m33.03 16h-10v10h10zm-4 6h-2c-.552 0-1-.448-1-1s.448-1 1-1h2c.552 0 1 .448 1 1s-.448 1-1 1z"/><path d="m29.03 52h23v-12h-23zm20-3h-12c-.552 0-1-.448-1-1s.448-1 1-1h12c.552 0 1 .448 1 1s-.448 1-1 1zm-1-6h1c.552 0 1 .448 1 1s-.448 1-1 1h-1c-.552 0-1-.448-1-1s.448-1 1-1zm-16 0h12c.552 0 1 .448 1 1s-.448 1-1 1h-12c-.552 0-1-.448-1-1s.448-1 1-1zm0 4h1c.552 0 1 .448 1 1s-.448 1-1 1h-1c-.552 0-1-.448-1-1s.448-1 1-1z"/><path d="m.03 12v41.5c0 1.379 1.122 2.5 2.5 2.5h51c1.378 0 2.5-1.122 2.5-2.5v-41.5zm41 22h1c.552 0 1 .448 1 1s-.448 1-1 1h-1c-.552 0-1-.448-1-1s.448-1 1-1zm-1-3c0-.552.448-1 1-1h7c.552 0 1 .448 1 1s-.448 1-1 1h-7c-.552 0-1-.448-1-1zm-19-16c0-.552.448-1 1-1h12c.552 0 1 .448 1 1v12c0 .552-.448 1-1 1h-12c-.552 0-1-.448-1-1zm14 16c0 .552-.448 1-1 1h-1c-.552 0-1-.448-1-1s.448-1 1-1h1c.552 0 1 .448 1 1zm-13-1h7c.552 0 1 .448 1 1s-.448 1-1 1h-7c-.552 0-1-.448-1-1s.448-1 1-1zm-20-15c0-.552.448-1 1-1h12c.552 0 1 .448 1 1v12c0 .552-.448 1-1 1h-12c-.552 0-1-.448-1-1zm13 17h-1c-.552 0-1-.448-1-1s.448-1 1-1h1c.552 0 1 .448 1 1s-.448 1-1 1zm1 3c0 .552-.448 1-1 1h-7c-.552 0-1-.448-1-1s.448-1 1-1h7c.552 0 1 .448 1 1zm-13-5h7c.552 0 1 .448 1 1s-.448 1-1 1h-7c-.552 0-1-.448-1-1s.448-1 1-1zm0 4h1c.552 0 1 .448 1 1s-.448 1-1 1h-1c-.552 0-1-.448-1-1s.448-1 1-1zm21 19c0 .552-.448 1-1 1h-20c-.552 0-1-.448-1-1v-14c0-.552.448-1 1-1h20c.552 0 1 .448 1 1zm-1-17h-1c-.552 0-1-.448-1-1s.448-1 1-1h1c.552 0 1 .448 1 1s-.448 1-1 1zm3-1c0-.552.448-1 1-1h7c.552 0 1 .448 1 1s-.448 1-1 1h-7c-.552 0-1-.448-1-1zm28 18c0 .552-.448 1-1 1h-25c-.552 0-1-.448-1-1v-14c0-.552.448-1 1-1h25c.552 0 1 .448 1 1zm-1-17h-7c-.552 0-1-.448-1-1s.448-1 1-1h7c.552 0 1 .448 1 1s-.448 1-1 1zm0-4h-1c-.552 0-1-.448-1-1s.448-1 1-1h1c.552 0 1 .448 1 1s-.448 1-1 1zm1-5c0 .552-.448 1-1 1h-12c-.552 0-1-.448-1-1v-12c0-.552.448-1 1-1h12c.552 0 1 .448 1 1z"/><path d="m42.03 26h10v-10h-10zm4-6h2c.552 0 1 .448 1 1s-.448 1-1 1h-2c-.552 0-1-.448-1-1s.448-1 1-1z"/></symbol>
	<symbol id="php" viewBox="0 0 16.172 16.172"><path d="M13.043,6.367c-0.237,0-0.398,0.022-0.483,0.047v1.523c0.101,0.022,0.223,0.03,0.391,0.03c0.621,0,1.004-0.313,1.004-0.842C13.954,6.651,13.625,6.367,13.043,6.367z"/><path d="M15.14,0H1.033C0.463,0,0,0.462,0,1.032v14.108c0,0.568,0.462,1.031,1.033,1.031H15.14c0.57,0,1.032-0.463,1.032-1.031V1.032C16.172,0.462,15.71,0,15.14,0z M4.904,8.32C4.506,8.695,3.916,8.863,3.227,8.863c-0.153,0-0.291-0.008-0.398-0.023v1.846H1.673V5.594c0.36-0.061,0.865-0.107,1.578-0.107c0.719,0,1.233,0.139,1.577,0.414C5.158,6.162,5.38,6.59,5.38,7.095S5.211,8.029,4.904,8.32z M10.382,10.686H9.218v-2.16H7.297v2.16H6.125V5.526h1.172v1.983h1.921V5.526h1.164C10.382,5.526,10.382,10.686,10.382,10.686z M14.635,8.32c-0.397,0.375-0.987,0.543-1.677,0.543c-0.152,0-0.291-0.008-0.398-0.023v1.846h-1.155V5.594c0.359-0.061,0.864-0.107,1.577-0.107c0.72,0,1.232,0.139,1.577,0.414c0.33,0.261,0.552,0.689,0.552,1.194C15.11,7.6,14.942,8.029,14.635,8.32z"/><path d="M3.312,6.367c-0.238,0-0.398,0.022-0.483,0.047v1.523c0.1,0.022,0.222,0.03,0.391,0.03c0.62,0,1.003-0.313,1.003-0.842C4.223,6.651,3.894,6.367,3.312,6.367z"/></symbol>
	<symbol id="wp" viewBox="0 0 96 96"><path d="M47.611,50.029L37.214,80.236c3.104,0.914,6.386,1.414,9.788,1.414c4.033,0,7.904-0.697,11.506-1.965c-0.094-0.149-0.179-0.308-0.246-0.479L47.611,50.029z"/><path d="M70.393,45.251c0-4.284-1.537-7.249-2.855-9.558c-1.758-2.854-3.404-5.271-3.404-8.126c0-3.185,2.415-6.15,5.819-6.15c0.151,0,0.299,0.021,0.448,0.028c-6.166-5.646-14.377-9.095-23.397-9.095c-12.107,0-22.756,6.211-28.951,15.617c0.813,0.025,1.579,0.041,2.23,0.041c3.624,0,9.233-0.438,9.233-0.438c1.868-0.111,2.089,2.633,0.224,2.854c0,0-1.878,0.221-3.967,0.33l12.617,37.531l7.584-22.74l-5.398-14.792c-1.866-0.11-3.633-0.33-3.633-0.33c-1.868-0.11-1.648-2.964,0.217-2.855c0,0,5.722,0.44,9.127,0.44c3.623,0,9.235-0.44,9.235-0.44c1.869-0.108,2.088,2.635,0.222,2.855c0,0-1.882,0.22-3.966,0.33L64.298,68l3.458-11.549C69.252,51.658,70.393,48.217,70.393,45.251z"/><path d="M12.351,46.999c0,13.713,7.972,25.565,19.529,31.183L15.352,32.896C13.429,37.206,12.351,41.975,12.351,46.999z"/><path d="M64.42,76.949C74.723,70.941,81.65,59.783,81.65,47c0-6.025-1.539-11.689-4.246-16.626c0.15,1.105,0.234,2.289,0.234,3.563c0,3.516-0.656,7.468-2.635,12.411L64.42,76.949z"/><path d="M89,0H5C2.239,0,0,2.239,0,5v84c0,2.761,2.239,5,5,5h84c2.762,0,5-2.239,5-5V5C94,2.239,91.762,0,89,0z M47.002,85.539c-21.251,0-38.54-17.289-38.54-38.54S25.75,8.461,47.002,8.461c21.25,0,38.535,17.287,38.535,38.538S68.252,85.539,47.002,85.539z"/></symbol>
 	<symbol id="tag" viewBox="0 0 32 32"><path d="M30.5 0h-12c-.825 0-1.977.477-2.561 1.061L1.06 15.94a1.505 1.505 0 0 0 0 2.121L13.939 30.94a1.505 1.505 0 0 0 2.121 0l14.879-14.879C31.522 15.478 32 14.325 32 13.5v-12c0-.825-.675-1.5-1.5-1.5zM23 12a3 3 0 1 1 0-6 3 3 0 0 1 0 6z"></path></symbol>
  	<symbol id="zoom" viewBox="0 0 32 32" ><path d="M31.008 27.231l-7.58-6.447c-.784-.705-1.622-1.029-2.299-.998a11.954 11.954 0 0 0 2.87-7.787c0-6.627-5.373-12-12-12s-12 5.373-12 12 5.373 12 12 12c2.972 0 5.691-1.081 7.787-2.87-.031.677.293 1.515.998 2.299l6.447 7.58c1.104 1.226 2.907 1.33 4.007.23s.997-2.903-.23-4.007zM12 20a8 8 0 1 1 0-16 8 8 0 0 1 0 16zm2-14h-4v4H6v4h4v4h4v-4h4v-4h-4z"></path></symbol> 
  	<symbol id="earth" viewBox="0 0 32 32"><path d="M16 0C7.163 0 0 7.163 0 16s7.163 16 16 16 16-7.163 16-16S24.837 0 16 0zm0 30c-1.967 0-3.84-.407-5.538-1.139l7.286-8.197a.998.998 0 0 0 .253-.664v-3a1 1 0 0 0-1-1c-3.531 0-7.256-3.671-7.293-3.707A1 1 0 0 0 9.001 12h-4a1 1 0 0 0-1 1v6c0 .379.214.725.553.894l3.447 1.724v5.871c-3.627-2.53-6-6.732-6-11.489 0-2.147.484-4.181 1.348-6h3.652c.265 0 .52-.105.707-.293l4-4A1 1 0 0 0 12.001 5V2.581a14.013 14.013 0 0 1 4-.581c2.2 0 4.281.508 6.134 1.412A5.961 5.961 0 0 0 20.002 8c0 1.603.624 3.109 1.757 4.243a5.985 5.985 0 0 0 4.536 1.751c.432 1.619 1.211 5.833-.263 11.635a.936.936 0 0 0-.026.163A13.956 13.956 0 0 1 16.002 30z"></path></symbol>
	<symbol id="bubbles" viewBox="0 0 36 32"><path d="M34 28.161a3.65 3.65 0 0 0 2 3.256v.498a7.42 7.42 0 0 1-6.414-2.251c-.819.218-1.688.336-2.587.336-4.971 0-9-3.582-9-8s4.029-8 9-8 9 3.582 9 8c0 1.73-.618 3.331-1.667 4.64a3.635 3.635 0 0 0-.333 1.522zM16 0c8.702 0 15.781 5.644 15.995 12.672A12.262 12.262 0 0 0 27 11.625c-2.986 0-5.807 1.045-7.942 2.943-2.214 1.968-3.433 4.607-3.433 7.432 0 1.396.298 2.747.867 3.993a19.66 19.66 0 0 1-2.987-.151C10.068 29.279 5.966 29.895 2 29.986v-.841C4.142 28.096 6 26.184 6 24c0-.305-.024-.604-.068-.897C2.313 20.72 0 17.079 0 13 0 5.82 7.163 0 16 0z"></path></symbol> 
  	<symbol id="cogs" viewBox="0 0 32 32"><path d="M11.366 22.564l1.291-1.807-1.414-1.414-1.807 1.291a4.996 4.996 0 0 0-1.071-.444L8 18H6l-.365 2.19a4.946 4.946 0 0 0-1.071.444l-1.807-1.291-1.414 1.414 1.291 1.807a4.943 4.943 0 0 0-.443 1.071L.001 24v2l2.19.365c.107.377.256.736.444 1.071l-1.291 1.807 1.414 1.414 1.807-1.291c.335.187.694.337 1.071.444L6.001 32h2l.365-2.19a4.946 4.946 0 0 0 1.071-.444l1.807 1.291 1.414-1.414-1.291-1.807c.187-.335.337-.694.444-1.071l2.19-.365v-2l-2.19-.365a4.946 4.946 0 0 0-.444-1.071zM7 27a2 2 0 1 1-.001-3.999A2 2 0 0 1 7 27zm25-15v-2l-2.106-.383a8.715 8.715 0 0 0-.148-.743l1.799-1.159-.765-1.848-2.092.452a8.957 8.957 0 0 0-.422-.629l1.219-1.761-1.414-1.414-1.761 1.219a8.957 8.957 0 0 0-.629-.422l.452-2.092-1.848-.765-1.159 1.799a9.122 9.122 0 0 0-.743-.148L22 0h-2l-.383 2.106a8.715 8.715 0 0 0-.743.148L17.715.455l-1.848.765.452 2.092a8.957 8.957 0 0 0-.629.422l-1.761-1.219-1.414 1.414 1.219 1.761c-.149.203-.29.413-.422.629l-2.092-.452-.765 1.848 1.799 1.159a9.122 9.122 0 0 0-.148.743L10 10v2l2.106.383c.039.251.088.499.148.743l-1.799 1.159.765 1.848 2.092-.452c.132.216.273.426.422.629l-1.219 1.761 1.414 1.414 1.761-1.219c.203.149.413.29.629.422l-.452 2.092 1.848.765 1.159-1.799c.244.059.492.109.743.148L20 22h2l.383-2.106c.251-.039.499-.088.743-.148l1.159 1.799 1.848-.765-.452-2.092c.216-.132.426-.273.629-.422l1.761 1.219 1.414-1.414-1.219-1.761c.149-.203.29-.413.422-.629l2.092.452.765-1.848-1.799-1.159c.059-.244.109-.492.148-.743L32 12zm-11 3.35a4.35 4.35 0 1 1 .001-8.701A4.35 4.35 0 0 1 21 15.35z"></path></symbol> 
	<symbol id="tree" viewBox="0 0 36 32"><path d="M24 24.082v-1.649c2.203-1.241 4-4.337 4-7.432 0-4.971 0-9-6-9s-6 4.029-6 9c0 3.096 1.797 6.191 4 7.432v1.649C13.216 24.637 8 27.97 8 32h28c0-4.03-5.216-7.364-12-7.918z"></path><path d="M10.225 24.854c1.728-1.13 3.877-1.989 6.243-2.513a11.33 11.33 0 0 1-1.265-1.844c-.95-1.726-1.453-3.627-1.453-5.497 0-2.689 0-5.228.956-7.305.928-2.016 2.598-3.265 4.976-3.734C19.153 1.571 17.746 0 14 0 8 0 8 4.029 8 9c0 3.096 1.797 6.191 4 7.432v1.649c-6.784.555-12 3.888-12 7.918h8.719c.454-.403.956-.787 1.506-1.146z"></path></symbol> 
	<symbol id="library" viewBox="0 0 34 32">    <path d="M32 30v-2h-2V16h2v-2h-6v2h2v12h-6V16h2v-2h-6v2h2v12h-6V16h2v-2h-6v2h2v12H6V16h2v-2H2v2h2v12H2v2H0v2h34v-2h-2zM16 0h2l16 10v2H0v-2L16 0z"></path></symbol> 
	<symbol id="folderPapper" viewBox="0 0 512 512"><path d="M128,80c-4.8,0-8,3.2-8,8s3.2,8,8,8h8c4.8,0,8-3.2,8-8s-3.2-8-8-8H128z"/><path d="M160,80c-4.8,0-8,3.2-8,8s3.2,8,8,8h8c4.8,0,8-3.2,8-8s-3.2-8-8-8H160z"/><path d="M96,96h8c4.8,0,8-3.2,8-8s-3.2-8-8-8h-8c-4.8,0-8,3.2-8,8S91.2,96,96,96z"/><path d="M96,64h88c4.8,0,8-3.2,8-8s-3.2-8-8-8H96c-4.8,0-8,3.2-8,8S91.2,64,96,64z"/><path d="M88,144c0,4.8,3.2,8,8,8h240c4.8,0,8-3.2,8-8s-3.2-8-8-8H96C91.2,136,88,139.2,88,144z"/><path d="M336,168H192c-4.8,0-8,3.2-8,8s3.2,8,8,8h144c4.8,0,8-3.2,8-8S340.8,168,336,168z"/><path d="M336,200H208c-4.8,0-8,3.2-8,8s3.2,8,8,8h128c4.8,0,8-3.2,8-8S340.8,200,336,200z"/><path d="M80,480c4.8,0,8-3.2,8-8s-3.2-8-8-8h-8c-4.8,0-8,3.2-8,8s3.2,8,8,8H80z"/><path d="M112,480c4.8,0,8-3.2,8-8s-3.2-8-8-8h-8c-4.8,0-8,3.2-8,8s3.2,8,8,8H112z"/><path d="M48,480c4.8,0,8-3.2,8-8s-3.2-8-8-8h-8c-4.8,0-8,3.2-8,8s3.2,8,8,8H48z"/><path d="M384,296c4.8,0,8-3.2,8-8s-3.2-8-8-8h-8c-4.8,0-8,3.2-8,8s3.2,8,8,8H384z"/><path d="M416,296c4.8,0,8-3.2,8-8s-3.2-8-8-8h-8c-4.8,0-8,3.2-8,8s3.2,8,8,8H416z"/><path d="M352,296c4.8,0,8-3.2,8-8s-3.2-8-8-8h-8c-4.8,0-8,3.2-8,8s3.2,8,8,8H352z"/><path d="M8,344c4.8,0,8-3.2,8-8v-8c0-4.8-3.2-8-8-8s-8,3.2-8,8v8C0,340.8,3.2,344,8,344z"/><path d="M509.6,250.4c-0.8-1.6-3.2-2.4-5.6-2.4h-24V56c0-2.4-0.8-4-2.4-5.6l-48-48c-3.2-3.2-8-3.2-11.2,0c-3.2,3.2-3.2,8,0,11.2 L464,59.2V344c0,4.8,3.2,8,8,8s8-3.2,8-8v-80h15.2l-22.4,232H448V256c0-4.8-3.2-8-8-8V72c0-2.4-0.8-4-2.4-5.6l-64-64     c-3.2-3.2-8-3.2-11.2,0c-3.2,3.2-3.2,8,0,11.2L424,75.2V248h-24V88c0-2.4-0.8-4-2.4-5.6l-80-80C316,0.8,314.4,0,312,0H40     c-4.8,0-8,3.2-8,8v168H8c-4.8,0-8,3.2-8,8v112c0,4.8,3.2,8,8,8s8-3.2,8-8V192h139.2l29.6,67.2c1.6,3.2,4,4.8,7.2,4.8h198.4     c0.8,0,0.8,0,1.6,0c0.8,0,0.8,0,1.6,0H432v232H16V368c0-4.8-3.2-8-8-8s-8,3.2-8,8v136c0,4.8,3.2,8,8,8h432h40c4,0,7.2-3.2,8-7.2     l24-248C512,254.4,511.2,252,509.6,250.4z M320,27.2L372.8,80H320V27.2z M384,248H196.8l-29.6-67.2c-0.8-3.2-4-4.8-7.2-4.8H48V16     h256v72c0,4.8,3.2,8,8,8h72V248z"/></symbol>  -->
	<symbol id="fileInFolder" viewBox="0 0 45 45"><path d="M44.449,16.561c-0.475-0.591-1.191-0.936-1.949-0.936H40c0-1.381-1.119-2.5-2.5-2.5H35v-2.5c0-1.381-1.119-2.5-2.5-2.5h-1.25v-5c0-0.69-0.561-1.25-1.25-1.25H5c-0.691,0-1.25,0.56-1.25,1.25v5H2.5c-1.381,0-2.5,1.119-2.5,2.5v30c0,1.381,1.119,2.5,2.5,2.5h5h25h5c1.172,0,2.188-0.814,2.439-1.958l5-22.5C45.105,17.927,44.924,17.152,44.449,16.561zM3.75,40.625H2.5v-30h1.25V40.625z M30,13.125c-1.381,0-2.5,1.119-2.5,2.5h-15c-1.172,0-2.188,0.814-2.441,1.958c0,0-5.057,22.862-5.057,23.042H5v-37.5h25V13.125z M32.5,13.125h-1.25v-2.5h1.25V13.125z M24.833,8.667H9.917c-0.69,0-1.25-0.56-1.25-1.25s0.56-1.25,1.25-1.25h14.916c0.69,0,1.25,0.56,1.25,1.25S25.523,8.667,24.833,8.667z M24.833,13.75H9.917c-0.69,0-1.25-0.56-1.25-1.25s0.56-1.25,1.25-1.25h14.916c0.69,0,1.25,0.56,1.25,1.25S25.523,13.75,24.833,13.75z"/></symbol>  
	<symbol id="location" viewBox="0 0 32 32"><path d="M16 0C10.477 0 6 4.477 6 10c0 10 10 22 10 22s10-12 10-22c0-5.523-4.477-10-10-10zm0 16.125a6.125 6.125 0 1 1 0-12.25 6.125 6.125 0 0 1 0 12.25zM12.125 10a3.875 3.875 0 1 1 7.75 0 3.875 3.875 0 0 1-7.75 0z"></path></symbol>
	<symbol id="lookInFolder" viewBox="0 0 45 45"><path d="M25.186,28.1c-0.987,1.211-2.427,1.838-3.875,1.838c-1.112,0-2.231-0.369-3.159-1.127c-2.139-1.746-2.457-4.896-0.71-7.036c0.988-1.21,2.426-1.837,3.876-1.837c1.112,0,2.231,0.369,3.162,1.127C26.613,22.812,26.934,25.961,25.186,28.1z M44.939,15.542l-5,22.5C39.688,39.186,38.671,40,37.5,40h-5h-25h-5C1.119,40,0,38.881,0,37.5v-30C0,6.119,1.119,5,2.5,5h30C33.881,5,35,6.119,35,7.5V10h2.5c1.381,0,2.5,1.119,2.5,2.5h2.5c0.758,0,1.477,0.344,1.95,0.936C44.925,14.027,45.105,14.802,44.939,15.542z M12.5,12.5h15c0-1.381,1.119-2.5,2.5-2.5h2.5V7.5h-30v30h2.502c0-0.182,5.058-23.042,5.058-23.042C10.313,13.314,11.328,12.5,12.5,12.5z M33.154,32.98l-3.945-3.222c-0.344-0.28-0.771-0.378-1.178-0.315l-0.459-0.375c0.953-1.438,1.378-3.146,1.201-4.885c-0.2-1.994-1.166-3.789-2.717-5.057c-1.336-1.09-3.021-1.691-4.743-1.691c-2.263,0-4.382,1.004-5.813,2.756c-2.616,3.205-2.138,7.938,1.065,10.554c1.335,1.09,3.019,1.689,4.741,1.689c1.843,0,3.583-0.675,4.94-1.867l0.521,0.424c0.02,0.408,0.199,0.81,0.543,1.09l3.944,3.221c0.279,0.229,0.614,0.34,0.948,0.34c0.436,0,0.865-0.188,1.163-0.553C33.893,34.45,33.796,33.505,33.154,32.98z"/></symbol> 
	<!-- <symbol id="" viewBox=""></symbol>  -->
</svg>


