<?xml version="1.0" encoding="UTF-8"?>
<svg version="2.0" xml:space="preserve" xmlns="http://www.w3.org/2000/svg">
<symbol id="icon-home" viewBox="0 0 27.02 27.02"><path d="M3.674,24.876c0,0-0.024,0.604,0.566,0.604c0.734,0,6.811-0.008,6.811-0.008l0.01-5.581c0,0-0.096-0.92,0.797-0.92h2.826c1.056,0,0.991,0.92,0.991,0.92l-0.012,5.563c0,0,5.762,0,6.667,0c0.749,0,0.715-0.752,0.715-0.752V14.413l-9.396-8.358l-9.975,8.358C3.674,14.413,3.674,24.876,3.674,24.876z" /><path d="M0,13.635c0,0,0.847,1.561,2.694,0l11.038-9.338l10.349,9.28c2.138,1.542,2.939,0,2.939,0L13.732,1.54L0,13.635z" /><polygon points="23.83,4.275 21.168,4.275 21.179,7.503 23.83,9.752" /></symbol>
<symbol id="icon-portfolio" viewBox="0 0 45 45"><path d="M25.186,28.1c-0.987,1.211-2.427,1.838-3.875,1.838c-1.112,0-2.231-0.369-3.159-1.127c-2.139-1.746-2.457-4.896-0.71-7.036c0.988-1.21,2.426-1.837,3.876-1.837c1.112,0,2.231,0.369,3.162,1.127C26.613,22.812,26.934,25.961,25.186,28.1z M44.939,15.542l-5,22.5C39.688,39.186,38.671,40,37.5,40h-5h-25h-5C1.119,40,0,38.881,0,37.5v-30C0,6.119,1.119,5,2.5,5h30C33.881,5,35,6.119,35,7.5V10h2.5c1.381,0,2.5,1.119,2.5,2.5h2.5c0.758,0,1.477,0.344,1.95,0.936C44.925,14.027,45.105,14.802,44.939,15.542z M12.5,12.5h15c0-1.381,1.119-2.5,2.5-2.5h2.5V7.5h-30v30h2.502c0-0.182,5.058-23.042,5.058-23.042C10.313,13.314,11.328,12.5,12.5,12.5z M33.154,32.98l-3.945-3.222c-0.344-0.28-0.771-0.378-1.178-0.315l-0.459-0.375c0.953-1.438,1.378-3.146,1.201-4.885c-0.2-1.994-1.166-3.789-2.717-5.057c-1.336-1.09-3.021-1.691-4.743-1.691c-2.263,0-4.382,1.004-5.813,2.756c-2.616,3.205-2.138,7.938,1.065,10.554c1.335,1.09,3.019,1.689,4.741,1.689c1.843,0,3.583-0.675,4.94-1.867l0.521,0.424c0.02,0.408,0.199,0.81,0.543,1.09l3.944,3.221c0.279,0.229,0.614,0.34,0.948,0.34c0.436,0,0.865-0.188,1.163-0.553C33.893,34.45,33.796,33.505,33.154,32.98z"/></symbol> 
<symbol id="icon-blog" viewBox="0 0 45 45"><path d="M44.449,16.561c-0.475-0.591-1.191-0.936-1.949-0.936H40c0-1.381-1.119-2.5-2.5-2.5H35v-2.5c0-1.381-1.119-2.5-2.5-2.5h-1.25v-5c0-0.69-0.561-1.25-1.25-1.25H5c-0.691,0-1.25,0.56-1.25,1.25v5H2.5c-1.381,0-2.5,1.119-2.5,2.5v30c0,1.381,1.119,2.5,2.5,2.5h5h25h5c1.172,0,2.188-0.814,2.439-1.958l5-22.5C45.105,17.927,44.924,17.152,44.449,16.561zM3.75,40.625H2.5v-30h1.25V40.625z M30,13.125c-1.381,0-2.5,1.119-2.5,2.5h-15c-1.172,0-2.188,0.814-2.441,1.958c0,0-5.057,22.862-5.057,23.042H5v-37.5h25V13.125z M32.5,13.125h-1.25v-2.5h1.25V13.125z M24.833,8.667H9.917c-0.69,0-1.25-0.56-1.25-1.25s0.56-1.25,1.25-1.25h14.916c0.69,0,1.25,0.56,1.25,1.25S25.523,8.667,24.833,8.667z M24.833,13.75H9.917c-0.69,0-1.25-0.56-1.25-1.25s0.56-1.25,1.25-1.25h14.916c0.69,0,1.25,0.56,1.25,1.25S25.523,13.75,24.833,13.75z"/></symbol>  
<symbol id="icon-contact" viewBox="0 0 455 455"><polygon points="55,98.788 19.723,98.788 19.723,128.788 55,128.788 55,212.5 15,212.5 15,242.5 55,242.5 55,326.212 15,326.212 15,356.212 55,356.212 55,455 125,455 125,0 55,0 "/><path d="M155,0v455h285V0H155z M297.5,135.862c24.377,0,44.138,19.761,44.138,44.138s-19.761,44.138-44.138,44.138 S253.362,204.377,253.362,180S273.123,135.862,297.5,135.862z M217.5,319.138c0-44.183,35.817-80,80-80s80,35.817,80,80H217.5z"/></symbol>
<symbol id="folderPapper" viewBox="0 0 512 512"><path d="M128,80c-4.8,0-8,3.2-8,8s3.2,8,8,8h8c4.8,0,8-3.2,8-8s-3.2-8-8-8H128z"/><path d="M160,80c-4.8,0-8,3.2-8,8s3.2,8,8,8h8c4.8,0,8-3.2,8-8s-3.2-8-8-8H160z"/><path d="M96,96h8c4.8,0,8-3.2,8-8s-3.2-8-8-8h-8c-4.8,0-8,3.2-8,8S91.2,96,96,96z"/><path d="M96,64h88c4.8,0,8-3.2,8-8s-3.2-8-8-8H96c-4.8,0-8,3.2-8,8S91.2,64,96,64z"/><path d="M88,144c0,4.8,3.2,8,8,8h240c4.8,0,8-3.2,8-8s-3.2-8-8-8H96C91.2,136,88,139.2,88,144z"/><path d="M336,168H192c-4.8,0-8,3.2-8,8s3.2,8,8,8h144c4.8,0,8-3.2,8-8S340.8,168,336,168z"/><path d="M336,200H208c-4.8,0-8,3.2-8,8s3.2,8,8,8h128c4.8,0,8-3.2,8-8S340.8,200,336,200z"/><path d="M80,480c4.8,0,8-3.2,8-8s-3.2-8-8-8h-8c-4.8,0-8,3.2-8,8s3.2,8,8,8H80z"/><path d="M112,480c4.8,0,8-3.2,8-8s-3.2-8-8-8h-8c-4.8,0-8,3.2-8,8s3.2,8,8,8H112z"/><path d="M48,480c4.8,0,8-3.2,8-8s-3.2-8-8-8h-8c-4.8,0-8,3.2-8,8s3.2,8,8,8H48z"/><path d="M384,296c4.8,0,8-3.2,8-8s-3.2-8-8-8h-8c-4.8,0-8,3.2-8,8s3.2,8,8,8H384z"/><path d="M416,296c4.8,0,8-3.2,8-8s-3.2-8-8-8h-8c-4.8,0-8,3.2-8,8s3.2,8,8,8H416z"/><path d="M352,296c4.8,0,8-3.2,8-8s-3.2-8-8-8h-8c-4.8,0-8,3.2-8,8s3.2,8,8,8H352z"/><path d="M8,344c4.8,0,8-3.2,8-8v-8c0-4.8-3.2-8-8-8s-8,3.2-8,8v8C0,340.8,3.2,344,8,344z"/><path d="M509.6,250.4c-0.8-1.6-3.2-2.4-5.6-2.4h-24V56c0-2.4-0.8-4-2.4-5.6l-48-48c-3.2-3.2-8-3.2-11.2,0c-3.2,3.2-3.2,8,0,11.2 L464,59.2V344c0,4.8,3.2,8,8,8s8-3.2,8-8v-80h15.2l-22.4,232H448V256c0-4.8-3.2-8-8-8V72c0-2.4-0.8-4-2.4-5.6l-64-64     c-3.2-3.2-8-3.2-11.2,0c-3.2,3.2-3.2,8,0,11.2L424,75.2V248h-24V88c0-2.4-0.8-4-2.4-5.6l-80-80C316,0.8,314.4,0,312,0H40     c-4.8,0-8,3.2-8,8v168H8c-4.8,0-8,3.2-8,8v112c0,4.8,3.2,8,8,8s8-3.2,8-8V192h139.2l29.6,67.2c1.6,3.2,4,4.8,7.2,4.8h198.4     c0.8,0,0.8,0,1.6,0c0.8,0,0.8,0,1.6,0H432v232H16V368c0-4.8-3.2-8-8-8s-8,3.2-8,8v136c0,4.8,3.2,8,8,8h432h40c4,0,7.2-3.2,8-7.2     l24-248C512,254.4,511.2,252,509.6,250.4z M320,27.2L372.8,80H320V27.2z M384,248H196.8l-29.6-67.2c-0.8-3.2-4-4.8-7.2-4.8H48V16     h256v72c0,4.8,3.2,8,8,8h72V248z"/></symbol>  -->
<symbol id="linkedin" viewBox="0 0 512 512"><path d="m256 0c-141.363281 0-256 114.636719-256 256s114.636719 256 256 256 256-114.636719 256-256-114.636719-256-256-256zm-74.390625 387h-62.347656v-187.574219h62.347656zm-31.171875-213.1875h-.40625c-20.921875 0-34.453125-14.402344-34.453125-32.402344 0-18.40625 13.945313-32.410156 35.273437-32.410156 21.328126 0 34.453126 14.003906 34.859376 32.410156 0 18-13.53125 32.402344-35.273438 32.402344zm255.984375 213.1875h-62.339844v-100.347656c0-25.21875-9.027343-42.417969-31.585937-42.417969-17.222656 0-27.480469 11.601563-31.988282 22.800781-1.648437 4.007813-2.050781 9.609375-2.050781 15.214844v104.75h-62.34375s.816407-169.976562 0-187.574219h62.34375v26.558594c8.285157-12.78125 23.109375-30.960937 56.1875-30.960937 41.019531 0 71.777344 26.808593 71.777344 84.421874zm0 0"/></symbol>
<symbol id="github" viewBox="0 0 32 32"><path d="M16 0.395c-8.836 0-16 7.163-16 16 0 7.069 4.585 13.067 10.942 15.182 0.8 0.148 1.094-0.347 1.094-0.77 0-0.381-0.015-1.642-0.022-2.979-4.452 0.968-5.391-1.888-5.391-1.888-0.728-1.849-1.776-2.341-1.776-2.341-1.452-0.993 0.11-0.973 0.11-0.973 1.606 0.113 2.452 1.649 2.452 1.649 1.427 2.446 3.743 1.739 4.656 1.33 0.143-1.034 0.558-1.74 1.016-2.14-3.554-0.404-7.29-1.777-7.29-7.907 0-1.747 0.625-3.174 1.649-4.295-0.166-0.403-0.714-2.030 0.155-4.234 0 0 1.344-0.43 4.401 1.64 1.276-0.355 2.645-0.532 4.005-0.539 1.359 0.006 2.729 0.184 4.008 0.539 3.054-2.070 4.395-1.64 4.395-1.64 0.871 2.204 0.323 3.831 0.157 4.234 1.026 1.12 1.647 2.548 1.647 4.295 0 6.145-3.743 7.498-7.306 7.895 0.574 0.497 1.085 1.47 1.085 2.963 0 2.141-0.019 3.864-0.019 4.391 0 0.426 0.288 0.925 1.099 0.768 6.354-2.118 10.933-8.113 10.933-15.18 0-8.837-7.164-16-16-16z"></path></symbol>
<symbol id="folder" viewBox="0 0 60 60"><path d="M14,23.5c-0.254,0-0.479,0.172-0.545,0.417L2,52.5v1c0,0.734-0.047,1,0.565,1h44.759c1.156,0,2.174-0.779,2.45-1.813L60,24.5c0,0,0-0.625,0-1H14z"/><path d="M12.731,21.5H53h1v-6.268c0-1.507-1.226-2.732-2.732-2.732H26.515l-5-7H2.732C1.226,5.5,0,6.726,0,8.232v41.796l10.282-26.717C10.557,22.279,11.575,21.5,12.731,21.5z"/></symbol>
<symbol id="templates" viewBox="0 0 512 512"><path d="M496,108.136H273.448l-72.576-71.264H0v87.264v35.488v299.504c0,8.8,7.2,16,16,16h480c8.8,0,16-7.2,16-16V124.136 C512,115.336,504.8,108.136,496,108.136z M32,68.872h155.8l39.984,39.264H32V68.872z M480,443.128H32V159.624v-19.488h448V443.128z"/><circle cx="256" cy="291.48" r="32.808"/><path d="M379.08,309.928v-36.912l-37.552-3.752c-2.144-7.904-5.432-15.328-9.64-22.128l24.216-29.6l-26.096-26.096l-30.792,25.192c-6.44-3.392-13.36-6-20.64-7.64l-4.048-40.528H256.08h-0.152h-18.456l-4.048,40.528c-7.288,1.64-14.2,4.248-20.64,7.64l-30.8-25.192l-26.096,26.096l24.216,29.6c-4.2,6.8-7.496,14.232-9.64,22.128l-37.552,3.752v36.912l37.616,3.76c2.168,7.88,5.408,15.312,9.616,22.112l-24.24,29.616L182,391.512l30.776-25.184c6.44,3.384,13.36,5.984,20.648,7.64l4.048,40.528h18.456h0.152h18.456l4.048-40.528c7.288-1.64,14.208-4.248,20.648-7.64l30.776,25.184l26.096-26.096l-24.24-29.632c4.192-6.784,7.44-14.224,9.608-22.104L379.08,309.928z M256,346.984c-30.656,0-55.504-24.856-55.504-55.504s24.848-55.504,55.504-55.504s55.504,24.856,55.504,55.504S286.656,346.984,256,346.984z"/></symbol>
<symbol id="tutorials" viewBox="0 0 512 512" ><path d="M496,108.132H273.448l-72.576-71.256H0v122.752v299.496c0,8.8,7.2,16,16,16h480c8.8,0,16-7.2,16-16V124.132C512,115.332,504.8,108.132,496,108.132z M32,68.868h155.8l39.984,39.256H32V68.868z M480,443.124H32V140.132h448V443.124z"/><rect x="92.648" y="186.38" width="84.992" height="84.992"/><rect x="214.816" y="186.38" width="84.992" height="84.992"/><rect x="336.96" y="186.38" width="84.992" height="84.992"/><rect x="92.648" y="310.668" width="84.992" height="84.992"/><rect x="214.816" y="310.668" width="84.992" height="84.992"/><rect x="336.96" y="310.668" width="84.992" height="84.992"/></symbol>
<symbol id="apis" viewBox="0 0 512 512" ><path d="M496,108.132H273.456l-72.584-71.256H0v87.256v35.496v299.496c0,8.8,7.2,16,16,16h480c8.8,0,16-7.2,16-16V124.132C512,115.332,504.8,108.132,496,108.132z M32,68.876h155.8l39.984,39.256H32V68.876z M480,443.124H32V159.62v-19.496h448V443.124z"/><polygon points="214.048,230.468 103.344,278.388 103.344,305.044 214.048,353.188 214.048,322.004 136.832,291.38 214.048,261.868"/><polygon points="264.28,207.34 224.296,374.332 247.096,374.332 287.52,207.34"/><polygon points="297.76,230.7 297.76,261.652 375.088,291.716 297.76,322.116 297.76,353.292 408.576,305.044 408.576,278.612 "/></symbol>
<symbol id="commmas" viewBox="0 0 198 198"><path d="M0,92.905h48.024c-0.821,35-10.748,38.973-23.216,40.107L20,133.608v38.486l5.542-0.297c16.281-0.916,34.281-3.851,46.29-18.676C82.359,140.125,87,118.893,87,86.3V25.905H0V92.905z"/><path d="M111,25.905v67h47.383c-0.821,35-10.427,38.973-22.895,40.107L131,133.608v38.486l5.222-0.297c16.281-0.916,34.442-3.851,46.451-18.676C193.199,140.125,198,118.893,198,86.3V25.905H111z"/></symbol>
<symbol id="success" viewBox="0 0 52 52"><path d="M26,0C11.664,0,0,11.663,0,26s11.664,26,26,26s26-11.663,26-26S40.336,0,26,0z M40.495,17.329l-16,18C24.101,35.772,23.552,36,22.999,36c-0.439,0-0.88-0.144-1.249-0.438l-10-8c-0.862-0.689-1.002-1.948-0.312-2.811c0.689-0.863,1.949-1.003,2.811-0.313l8.517,6.813l14.739-16.581c0.732-0.826,1.998-0.9,2.823-0.166C41.154,15.239,41.229,16.503,40.495,17.329z"/></symbol>	
<symbol id="alert" viewBox="0 0 426.667 426.667"><path d="M213.333,0C95.573,0,0,95.467,0,213.333s95.573,213.333,213.333,213.333S426.667,331.2,426.667,213.333 S331.093,0,213.333,0z M234.667,320H192v-42.667h42.667V320z M234.667,234.667H192v-128h42.667V234.667z"/></symbol>
<symbol id="c#" viewBox="0 0 312.553 312.553"><path d="M302.553,0H10C4.477,0,0,4.478,0,10v292.553c0,5.522,4.477,10,10,10h292.553c5.523,0,10-4.478,10-10V10C312.553,4.478,308.076,0,302.553,0z M148.087,193.287c-9.481,8.296-21.592,12.866-34.102,12.866c-28.109,0-50.977-22.4-50.977-49.934c0-27.471,22.868-49.819,50.977-49.819c12.527,0,24.597,4.53,33.987,12.756c3.873,3.393,4.262,9.283,0.868,13.156c-3.392,3.874-9.283,4.265-13.156,0.869c-5.987-5.245-13.694-8.135-21.699-8.135c-17.827,0-32.33,13.984-32.33,31.173c0,17.251,14.503,31.286,32.33,31.286c7.991,0,15.741-2.931,21.822-8.252c3.875-3.391,9.765-2.998,13.157,0.877C152.355,184.006,151.962,189.896,148.087,193.287z M240.22,162.286c5.15,0,9.324,4.174,9.324,9.323s-4.174,9.323-9.324,9.323h-10.869l-3.378,14.904c-0.981,4.328-4.826,7.265-9.085,7.265c-0.683,0-1.376-0.075-2.069-0.232c-5.022-1.139-8.17-6.132-7.032-11.153l2.444-10.783h-20.201l-3.378,14.904c-0.981,4.328-4.826,7.265-9.084,7.265c-0.683,0-1.376-0.075-2.069-0.232c-5.022-1.139-8.17-6.132-7.032-11.153l2.448-10.799c-5.007-0.162-9.019-4.262-9.019-9.308c0-5.149,4.174-9.323,9.324-9.323h3.917l2.725-12.02h-6.642c-5.149,0-9.324-4.174-9.324-9.322c0-5.15,4.174-9.324,9.324-9.324h10.869l3.378-14.904c1.138-5.021,6.134-8.17,11.154-7.032c5.022,1.139,8.17,6.132,7.032,11.153l-2.444,10.783h20.201l3.378-14.904c1.138-5.021,6.133-8.17,11.154-7.032c5.022,1.139,8.17,6.132,7.032,11.153l-2.448,10.799c5.007,0.162,9.019,4.262,9.019,9.309c0,5.148-4.174,9.322-9.324,9.322h-3.917l-2.725,12.02H240.22z"/><polygon points="194.258,162.286 214.458,162.286 217.183,150.267 196.982,150.267 	"/></symbol>
<symbol id="css" viewBox="0 0 512 512"><path d="M32,0l40.8,460.8L256,512l183.136-51.168L480,0H32z M392.768,150.688l-5.152,57.888l-15.52,173.568L256,414.208l-0.064,0.032l-116-32.128l-8.128-90.752h56.832l4.224,47.104l63.072,17.024l0.064-0.064l63.136-17.024l8.608-78.432l-198.656,0.544l-5.632-53.664l209.056-2.432l4.224-57.44l-218.88,0.608l-3.68-53.376H256h141.824L392.768,150.688z"/></symbol>
<symbol id="html" viewBox="0 0 299.215 299.215"><path d="M22.347,0c-2.75,0-4.799,2.241-4.555,4.98l23.184,260.047c0.244,2.739,2.611,5.582,5.262,6.318l98.381,27.316c2.65,0.736,6.986,0.736,9.637,0.002l98.68-27.361c2.65-0.735,5.02-3.578,5.264-6.316L281.422,4.98c0.246-2.739-1.805-4.98-4.555-4.98H22.347z M232.049,59.641c-0.219,2.443-0.598,6.684-0.842,9.423l-0.611,6.823c-0.246,2.738-0.596,6.654-0.781,8.701c-0.184,2.048-0.359,3.723-0.391,3.723c-0.031,0-2.307,0-5.057,0h-69.76c-2.75,0-5.023,0-5.053,0s-2.305,0-5.055,0h-36.74c-2.75,0-4.799,2.241-4.555,4.98l2.143,23.955c0.244,2.738,2.695,4.98,5.445,4.98H144.5c2.75,0,5.025,0,5.055,0s2.303,0,5.053,0h57.939c2.75,0,7.006,0,9.457,0c2.449,0,4.273,1.999,4.051,4.442c-0.223,2.443-0.604,6.685-0.848,9.423l-6.891,77.228c-0.246,2.739-0.557,6.238-0.691,7.776c-0.137,1.537-2.416,3.396-5.066,4.131l-58.133,16.119c-2.65,0.734-4.852,1.342-4.893,1.351c-0.041,0.009-2.242-0.586-4.893-1.321l-58.195-16.148c-2.65-0.735-5.018-3.578-5.262-6.317l-3.746-42.045c-0.244-2.739,1.807-4.98,4.557-4.98h5.311c2.75,0,7.25,0,10,0h7.92c2.75,0,5.199,2.241,5.445,4.98l1.469,16.459c0.244,2.739,2.615,5.566,5.271,6.283l27.221,7.351c2.654,0.717,4.836,1.304,4.848,1.304s2.193-0.588,4.848-1.305l27.27-7.369c2.654-0.717,5.027-3.545,5.273-6.283l2.957-32.976c0.246-2.739-1.803-4.98-4.553-4.98h-30.666c-2.75,0-5.023,0-5.053,0s-2.305,0-5.055,0H80.511c-2.75,0-5.199-2.242-5.443-4.98l-7.256-81.306c-0.244-2.739-0.623-6.979-0.842-9.423c-0.217-2.443,1.854-4.442,4.604-4.442H144.5c2.75,0,5.025,0,5.055,0s2.303,0,5.053,0h72.838C230.195,55.198,232.267,57.197,232.049,59.641z"/></symbol>
<symbol id="js" viewBox="0 0 312.553 312.553"><path d="M302.553,0H10C4.477,0,0,4.478,0,10v292.553c0,5.522,4.477,10,10,10h292.553c5.523,0,10-4.478,10-10V10C312.553,4.478,308.076,0,302.553,0z M143.625,173.732c0,18.615-10.434,30.179-27.232,30.179c-10.55,0-19.978-5.292-26.547-14.901c-2.905-4.251-1.815-10.053,2.436-12.959c4.252-2.906,10.055-1.814,12.959,2.436c3.074,4.498,6.826,6.778,11.152,6.778c3.419,0,8.586,0,8.586-11.532v-47.467H99.504c-5.149,0-9.323-4.174-9.323-9.323c0-5.149,4.174-9.323,9.323-9.323h34.798c5.149,0,9.323,4.174,9.323,9.323V173.732z M189.441,205.6c-12.499,0-25.251-5.27-33.279-13.753c-3.54-3.74-3.377-9.642,0.362-13.181c3.741-3.54,9.644-3.377,13.181,0.362c4.486,4.74,12.417,7.925,19.736,7.925c7.493,0,16.244-2.188,16.244-8.351c0.048-5.81-3.045-7.986-17.415-12.339c-12.677-3.839-31.835-9.642-31.835-31.725c0-16.5,14.306-27.586,35.599-27.586c9.479,0,19.815,2.874,26.975,7.502c4.324,2.795,5.564,8.567,2.769,12.892c-2.796,4.324-8.568,5.564-12.892,2.769c-4.112-2.658-11.042-4.516-16.852-4.516c-7.82,0-16.952,2.342-16.952,8.939c0,7.165,4.189,9.516,18.594,13.879c12.277,3.718,30.83,9.337,30.656,30.262C224.331,194.75,210.31,205.6,189.441,205.6z"/></symbol>
<symbol id="uiux" viewBox="0 0 56 56"><path d="m12.03 4h2v2h-2z"/><path d="m4.03 4h2v2h-2z"/><path d="m20.03 4h2v2h-2z"/><path d="m53.53 0h-51c-1.378 0-2.5 1.122-2.5 2.5v7.5h56v-7.5c0-1.378-1.122-2.5-2.5-2.5zm-45.5 7c0 .552-.448 1-1 1h-4c-.552 0-1-.448-1-1v-4c0-.552.448-1 1-1h4c.552 0 1 .448 1 1zm8 0c0 .552-.448 1-1 1h-4c-.552 0-1-.448-1-1v-4c0-.552.448-1 1-1h4c.552 0 1 .448 1 1zm8 0c0 .552-.448 1-1 1h-4c-.552 0-1-.448-1-1v-4c0-.552.448-1 1-1h4c.552 0 1 .448 1 1z"/><path d="m4.03 52h18v-12h-18zm6-7h2v-2c0-.552.448-1 1-1s1 .448 1 1v2h2c.552 0 1 .448 1 1s-.448 1-1 1h-2v2c0 .552-.448 1-1 1s-1-.448-1-1v-2h-2c-.552 0-1-.448-1-1s.448-1 1-1z"/><path d="m14.03 16h-10v10h10zm-4 6h-2c-.552 0-1-.448-1-1s.448-1 1-1h2c.552 0 1 .448 1 1s-.448 1-1 1z"/><path d="m33.03 16h-10v10h10zm-4 6h-2c-.552 0-1-.448-1-1s.448-1 1-1h2c.552 0 1 .448 1 1s-.448 1-1 1z"/><path d="m29.03 52h23v-12h-23zm20-3h-12c-.552 0-1-.448-1-1s.448-1 1-1h12c.552 0 1 .448 1 1s-.448 1-1 1zm-1-6h1c.552 0 1 .448 1 1s-.448 1-1 1h-1c-.552 0-1-.448-1-1s.448-1 1-1zm-16 0h12c.552 0 1 .448 1 1s-.448 1-1 1h-12c-.552 0-1-.448-1-1s.448-1 1-1zm0 4h1c.552 0 1 .448 1 1s-.448 1-1 1h-1c-.552 0-1-.448-1-1s.448-1 1-1z"/><path d="m.03 12v41.5c0 1.379 1.122 2.5 2.5 2.5h51c1.378 0 2.5-1.122 2.5-2.5v-41.5zm41 22h1c.552 0 1 .448 1 1s-.448 1-1 1h-1c-.552 0-1-.448-1-1s.448-1 1-1zm-1-3c0-.552.448-1 1-1h7c.552 0 1 .448 1 1s-.448 1-1 1h-7c-.552 0-1-.448-1-1zm-19-16c0-.552.448-1 1-1h12c.552 0 1 .448 1 1v12c0 .552-.448 1-1 1h-12c-.552 0-1-.448-1-1zm14 16c0 .552-.448 1-1 1h-1c-.552 0-1-.448-1-1s.448-1 1-1h1c.552 0 1 .448 1 1zm-13-1h7c.552 0 1 .448 1 1s-.448 1-1 1h-7c-.552 0-1-.448-1-1s.448-1 1-1zm-20-15c0-.552.448-1 1-1h12c.552 0 1 .448 1 1v12c0 .552-.448 1-1 1h-12c-.552 0-1-.448-1-1zm13 17h-1c-.552 0-1-.448-1-1s.448-1 1-1h1c.552 0 1 .448 1 1s-.448 1-1 1zm1 3c0 .552-.448 1-1 1h-7c-.552 0-1-.448-1-1s.448-1 1-1h7c.552 0 1 .448 1 1zm-13-5h7c.552 0 1 .448 1 1s-.448 1-1 1h-7c-.552 0-1-.448-1-1s.448-1 1-1zm0 4h1c.552 0 1 .448 1 1s-.448 1-1 1h-1c-.552 0-1-.448-1-1s.448-1 1-1zm21 19c0 .552-.448 1-1 1h-20c-.552 0-1-.448-1-1v-14c0-.552.448-1 1-1h20c.552 0 1 .448 1 1zm-1-17h-1c-.552 0-1-.448-1-1s.448-1 1-1h1c.552 0 1 .448 1 1s-.448 1-1 1zm3-1c0-.552.448-1 1-1h7c.552 0 1 .448 1 1s-.448 1-1 1h-7c-.552 0-1-.448-1-1zm28 18c0 .552-.448 1-1 1h-25c-.552 0-1-.448-1-1v-14c0-.552.448-1 1-1h25c.552 0 1 .448 1 1zm-1-17h-7c-.552 0-1-.448-1-1s.448-1 1-1h7c.552 0 1 .448 1 1s-.448 1-1 1zm0-4h-1c-.552 0-1-.448-1-1s.448-1 1-1h1c.552 0 1 .448 1 1s-.448 1-1 1zm1-5c0 .552-.448 1-1 1h-12c-.552 0-1-.448-1-1v-12c0-.552.448-1 1-1h12c.552 0 1 .448 1 1z"/><path d="m42.03 26h10v-10h-10zm4-6h2c.552 0 1 .448 1 1s-.448 1-1 1h-2c-.552 0-1-.448-1-1s.448-1 1-1z"/></symbol>
<symbol id="php" viewBox="0 0 16.172 16.172"><path d="M13.043,6.367c-0.237,0-0.398,0.022-0.483,0.047v1.523c0.101,0.022,0.223,0.03,0.391,0.03c0.621,0,1.004-0.313,1.004-0.842C13.954,6.651,13.625,6.367,13.043,6.367z"/><path d="M15.14,0H1.033C0.463,0,0,0.462,0,1.032v14.108c0,0.568,0.462,1.031,1.033,1.031H15.14c0.57,0,1.032-0.463,1.032-1.031V1.032C16.172,0.462,15.71,0,15.14,0z M4.904,8.32C4.506,8.695,3.916,8.863,3.227,8.863c-0.153,0-0.291-0.008-0.398-0.023v1.846H1.673V5.594c0.36-0.061,0.865-0.107,1.578-0.107c0.719,0,1.233,0.139,1.577,0.414C5.158,6.162,5.38,6.59,5.38,7.095S5.211,8.029,4.904,8.32z M10.382,10.686H9.218v-2.16H7.297v2.16H6.125V5.526h1.172v1.983h1.921V5.526h1.164C10.382,5.526,10.382,10.686,10.382,10.686z M14.635,8.32c-0.397,0.375-0.987,0.543-1.677,0.543c-0.152,0-0.291-0.008-0.398-0.023v1.846h-1.155V5.594c0.359-0.061,0.864-0.107,1.577-0.107c0.72,0,1.232,0.139,1.577,0.414c0.33,0.261,0.552,0.689,0.552,1.194C15.11,7.6,14.942,8.029,14.635,8.32z"/><path d="M3.312,6.367c-0.238,0-0.398,0.022-0.483,0.047v1.523c0.1,0.022,0.222,0.03,0.391,0.03c0.62,0,1.003-0.313,1.003-0.842C4.223,6.651,3.894,6.367,3.312,6.367z"/></symbol>
<symbol id="wp" viewBox="0 0 96 96"><path d="M47.611,50.029L37.214,80.236c3.104,0.914,6.386,1.414,9.788,1.414c4.033,0,7.904-0.697,11.506-1.965c-0.094-0.149-0.179-0.308-0.246-0.479L47.611,50.029z"/><path d="M70.393,45.251c0-4.284-1.537-7.249-2.855-9.558c-1.758-2.854-3.404-5.271-3.404-8.126c0-3.185,2.415-6.15,5.819-6.15c0.151,0,0.299,0.021,0.448,0.028c-6.166-5.646-14.377-9.095-23.397-9.095c-12.107,0-22.756,6.211-28.951,15.617c0.813,0.025,1.579,0.041,2.23,0.041c3.624,0,9.233-0.438,9.233-0.438c1.868-0.111,2.089,2.633,0.224,2.854c0,0-1.878,0.221-3.967,0.33l12.617,37.531l7.584-22.74l-5.398-14.792c-1.866-0.11-3.633-0.33-3.633-0.33c-1.868-0.11-1.648-2.964,0.217-2.855c0,0,5.722,0.44,9.127,0.44c3.623,0,9.235-0.44,9.235-0.44c1.869-0.108,2.088,2.635,0.222,2.855c0,0-1.882,0.22-3.966,0.33L64.298,68l3.458-11.549C69.252,51.658,70.393,48.217,70.393,45.251z"/><path d="M12.351,46.999c0,13.713,7.972,25.565,19.529,31.183L15.352,32.896C13.429,37.206,12.351,41.975,12.351,46.999z"/><path d="M64.42,76.949C74.723,70.941,81.65,59.783,81.65,47c0-6.025-1.539-11.689-4.246-16.626c0.15,1.105,0.234,2.289,0.234,3.563c0,3.516-0.656,7.468-2.635,12.411L64.42,76.949z"/><path d="M89,0H5C2.239,0,0,2.239,0,5v84c0,2.761,2.239,5,5,5h84c2.762,0,5-2.239,5-5V5C94,2.239,91.762,0,89,0z M47.002,85.539c-21.251,0-38.54-17.289-38.54-38.54S25.75,8.461,47.002,8.461c21.25,0,38.535,17.287,38.535,38.538S68.252,85.539,47.002,85.539z"/></symbol>
<symbol id="tag" viewBox="0 0 32 32"><path d="M30.5 0h-12c-.825 0-1.977.477-2.561 1.061L1.06 15.94a1.505 1.505 0 0 0 0 2.121L13.939 30.94a1.505 1.505 0 0 0 2.121 0l14.879-14.879C31.522 15.478 32 14.325 32 13.5v-12c0-.825-.675-1.5-1.5-1.5zM23 12a3 3 0 1 1 0-6 3 3 0 0 1 0 6z"></path></symbol>
<symbol id="zoom" viewBox="0 0 32 32" ><path d="M31.008 27.231l-7.58-6.447c-.784-.705-1.622-1.029-2.299-.998a11.954 11.954 0 0 0 2.87-7.787c0-6.627-5.373-12-12-12s-12 5.373-12 12 5.373 12 12 12c2.972 0 5.691-1.081 7.787-2.87-.031.677.293 1.515.998 2.299l6.447 7.58c1.104 1.226 2.907 1.33 4.007.23s.997-2.903-.23-4.007zM12 20a8 8 0 1 1 0-16 8 8 0 0 1 0 16zm2-14h-4v4H6v4h4v4h4v-4h4v-4h-4z"></path></symbol> 
<symbol id="earth" viewBox="0 0 32 32"><path d="M16 0C7.163 0 0 7.163 0 16s7.163 16 16 16 16-7.163 16-16S24.837 0 16 0zm0 30c-1.967 0-3.84-.407-5.538-1.139l7.286-8.197a.998.998 0 0 0 .253-.664v-3a1 1 0 0 0-1-1c-3.531 0-7.256-3.671-7.293-3.707A1 1 0 0 0 9.001 12h-4a1 1 0 0 0-1 1v6c0 .379.214.725.553.894l3.447 1.724v5.871c-3.627-2.53-6-6.732-6-11.489 0-2.147.484-4.181 1.348-6h3.652c.265 0 .52-.105.707-.293l4-4A1 1 0 0 0 12.001 5V2.581a14.013 14.013 0 0 1 4-.581c2.2 0 4.281.508 6.134 1.412A5.961 5.961 0 0 0 20.002 8c0 1.603.624 3.109 1.757 4.243a5.985 5.985 0 0 0 4.536 1.751c.432 1.619 1.211 5.833-.263 11.635a.936.936 0 0 0-.026.163A13.956 13.956 0 0 1 16.002 30z"></path></symbol>
<symbol id="bubbles" viewBox="0 0 36 32"><path d="M34 28.161a3.65 3.65 0 0 0 2 3.256v.498a7.42 7.42 0 0 1-6.414-2.251c-.819.218-1.688.336-2.587.336-4.971 0-9-3.582-9-8s4.029-8 9-8 9 3.582 9 8c0 1.73-.618 3.331-1.667 4.64a3.635 3.635 0 0 0-.333 1.522zM16 0c8.702 0 15.781 5.644 15.995 12.672A12.262 12.262 0 0 0 27 11.625c-2.986 0-5.807 1.045-7.942 2.943-2.214 1.968-3.433 4.607-3.433 7.432 0 1.396.298 2.747.867 3.993a19.66 19.66 0 0 1-2.987-.151C10.068 29.279 5.966 29.895 2 29.986v-.841C4.142 28.096 6 26.184 6 24c0-.305-.024-.604-.068-.897C2.313 20.72 0 17.079 0 13 0 5.82 7.163 0 16 0z"></path></symbol> 
<symbol id="cogs" viewBox="0 0 32 32"><path d="M11.366 22.564l1.291-1.807-1.414-1.414-1.807 1.291a4.996 4.996 0 0 0-1.071-.444L8 18H6l-.365 2.19a4.946 4.946 0 0 0-1.071.444l-1.807-1.291-1.414 1.414 1.291 1.807a4.943 4.943 0 0 0-.443 1.071L.001 24v2l2.19.365c.107.377.256.736.444 1.071l-1.291 1.807 1.414 1.414 1.807-1.291c.335.187.694.337 1.071.444L6.001 32h2l.365-2.19a4.946 4.946 0 0 0 1.071-.444l1.807 1.291 1.414-1.414-1.291-1.807c.187-.335.337-.694.444-1.071l2.19-.365v-2l-2.19-.365a4.946 4.946 0 0 0-.444-1.071zM7 27a2 2 0 1 1-.001-3.999A2 2 0 0 1 7 27zm25-15v-2l-2.106-.383a8.715 8.715 0 0 0-.148-.743l1.799-1.159-.765-1.848-2.092.452a8.957 8.957 0 0 0-.422-.629l1.219-1.761-1.414-1.414-1.761 1.219a8.957 8.957 0 0 0-.629-.422l.452-2.092-1.848-.765-1.159 1.799a9.122 9.122 0 0 0-.743-.148L22 0h-2l-.383 2.106a8.715 8.715 0 0 0-.743.148L17.715.455l-1.848.765.452 2.092a8.957 8.957 0 0 0-.629.422l-1.761-1.219-1.414 1.414 1.219 1.761c-.149.203-.29.413-.422.629l-2.092-.452-.765 1.848 1.799 1.159a9.122 9.122 0 0 0-.148.743L10 10v2l2.106.383c.039.251.088.499.148.743l-1.799 1.159.765 1.848 2.092-.452c.132.216.273.426.422.629l-1.219 1.761 1.414 1.414 1.761-1.219c.203.149.413.29.629.422l-.452 2.092 1.848.765 1.159-1.799c.244.059.492.109.743.148L20 22h2l.383-2.106c.251-.039.499-.088.743-.148l1.159 1.799 1.848-.765-.452-2.092c.216-.132.426-.273.629-.422l1.761 1.219 1.414-1.414-1.219-1.761c.149-.203.29-.413.422-.629l2.092.452.765-1.848-1.799-1.159c.059-.244.109-.492.148-.743L32 12zm-11 3.35a4.35 4.35 0 1 1 .001-8.701A4.35 4.35 0 0 1 21 15.35z"></path></symbol> 
<symbol id="tree" viewBox="0 0 36 32"><path d="M24 24.082v-1.649c2.203-1.241 4-4.337 4-7.432 0-4.971 0-9-6-9s-6 4.029-6 9c0 3.096 1.797 6.191 4 7.432v1.649C13.216 24.637 8 27.97 8 32h28c0-4.03-5.216-7.364-12-7.918z"></path><path d="M10.225 24.854c1.728-1.13 3.877-1.989 6.243-2.513a11.33 11.33 0 0 1-1.265-1.844c-.95-1.726-1.453-3.627-1.453-5.497 0-2.689 0-5.228.956-7.305.928-2.016 2.598-3.265 4.976-3.734C19.153 1.571 17.746 0 14 0 8 0 8 4.029 8 9c0 3.096 1.797 6.191 4 7.432v1.649c-6.784.555-12 3.888-12 7.918h8.719c.454-.403.956-.787 1.506-1.146z"></path></symbol> 
<symbol id="library" viewBox="0 0 34 32"> <path d="M32 30v-2h-2V16h2v-2h-6v2h2v12h-6V16h2v-2h-6v2h2v12h-6V16h2v-2h-6v2h2v12H6V16h2v-2H2v2h2v12H2v2H0v2h34v-2h-2zM16 0h2l16 10v2H0v-2L16 0z"></path></symbol> 
<symbol id="location" viewBox="0 0 32 32"><path d="M16 0C10.477 0 6 4.477 6 10c0 10 10 22 10 22s10-12 10-22c0-5.523-4.477-10-10-10zm0 16.125a6.125 6.125 0 1 1 0-12.25 6.125 6.125 0 0 1 0 12.25zM12.125 10a3.875 3.875 0 1 1 7.75 0 3.875 3.875 0 0 1-7.75 0z"></path></symbol>
<symbol id="mode" viewBox="0 0 512 512"><path d="M256 0c-141.385 0-256 114.615-256 256s114.615 256 256 256 256-114.615 256-256-114.615-256-256-256zM64 256c0-106.039 85.961-192 192-192v384c-106.039 0-192-85.961-192-192z"></path></symbol>  
<symbol id="rocket" viewBox="0 0 32 32"><path d="M22 2L12 12H6l-6 8s6.357-1.77 10.065-.94L0 32l13.184-10.255C15.023 25.953 12 32 12 32l8-6v-6l10-10 2-10-10 2z"></path></symbol>
<symbol id="htmlcss" viewBox="0 0 512 512"><path style="fill:#D7D420" d="M420,296c0,17.673-14.327,32-32,32H124c-17.673,0-32-14.327-32-32V42c0-17.673,14.327-32,32-32h264  c17.673,0,32,14.327,32,32V296z" data-original="#FFFFFF" class="active-path" data-old_color="#FFFFFF"/><path style="fill:#BFB7B7" d="M124.274,10H388c17.673,0,32,14.327,32,32v40H92.274V42C92.274,24.327,106.601,10,124.274,10z" data-original="#FF5A5A" class="" data-old_color="#FF5A5A"/><path style="fill:#231F20;" d="M100.141,82h315.908" data-original="#231F20"/><path style="fill:#FF7800" d="M456.75,296.5H348l-40-32v32h-16.75c-24.991,0-45.25,20.259-45.25,45.25v115  c0,24.991,20.259,45.25,45.25,45.25h165.5c24.991,0,45.25-20.259,45.25-45.25v-115C502,316.759,481.741,296.5,456.75,296.5z" data-original="#78D2FA" class="" data-old_color="#78D2FA"/><path style="fill:#5265FF" d="M260.763,192.675H198.76c-19.943-16.456-45.509-26.342-73.384-26.342  C61.656,166.333,10,217.989,10,281.71s51.656,115.376,115.376,115.376S240.753,345.43,240.753,281.71  c0-19.94-5.059-38.698-13.963-55.062L260.763,192.675z" data-original="#A5DC69" class="" data-old_color="#A5DC69"/><path d="M258.095,56H377c5.523,0,10-4.478,10-10s-4.477-10-10-10H258.095c-5.523,0-10,4.478-10,10S252.572,56,258.095,56z" data-original="#000000" class="" style="fill:#FFFFFF" data-old_color="#000000"/><path d="M169.98,56c2.63,0,5.21-1.07,7.07-2.931c1.86-1.859,2.93-4.439,2.93-7.069s-1.07-5.21-2.93-7.07S172.61,36,169.98,36  c-2.64,0-5.22,1.069-7.08,2.93s-2.92,4.44-2.92,7.07s1.06,5.21,2.92,7.069C164.77,54.93,167.34,56,169.98,56z" data-original="#000000" class="" style="fill:#FFFFFF" data-old_color="#000000"/><path d="M131.95,56c2.63,0,5.21-1.07,7.07-2.931c1.86-1.859,2.93-4.439,2.93-7.069s-1.07-5.21-2.93-7.07  c-1.86-1.86-4.44-2.93-7.07-2.93s-5.21,1.069-7.07,2.93s-2.93,4.44-2.93,7.07s1.07,5.21,2.93,7.069  C126.74,54.93,129.32,56,131.95,56z" data-original="#000000" class="" style="fill:#FFFFFF" data-old_color="#000000"/><path d="M208,56c2.63,0,5.21-1.07,7.07-2.931C216.93,51.21,218,48.63,218,46s-1.07-5.21-2.93-7.07S210.63,36,208,36  s-5.21,1.069-7.07,2.93C199.07,40.79,198,43.37,198,46s1.07,5.21,2.93,7.069C202.79,54.93,205.37,56,208,56z" data-original="#000000" class="" style="fill:#FFFFFF" data-old_color="#000000"/><path d="M297,134.044c0-5.522-4.477-10-10-10h-41c-5.523,0-10,4.478-10,10s4.477,10,10,10h41  C292.523,144.044,297,139.566,297,134.044z" data-original="#000000" class="" style="fill:#FFFFFF" data-old_color="#000000"/><path d="M327.849,144.044h40.917c5.523,0,10-4.478,10-10s-4.477-10-10-10h-40.917c-5.523,0-10,4.478-10,10  S322.326,144.044,327.849,144.044z" data-original="#000000" class="" style="fill:#FFFFFF" data-old_color="#000000"/><path d="M368.766,220.011c-0.001,0-0.002,0-0.003,0l-10.645,0.004c-5.522,0.002-9.998,4.48-9.996,10.004  c0.002,5.521,4.479,9.996,10,9.996c0.001,0,0.002,0,0.004,0l10.644-0.004c5.522-0.002,9.998-4.48,9.996-10.004  C378.764,224.485,374.287,220.011,368.766,220.011z" data-original="#000000" class="" style="fill:#FFFFFF" data-old_color="#000000"/><path d="M322,220.036c-0.001,0-0.003,0-0.005,0l-38.649,0.021c-5.523,0.003-9.998,4.482-9.995,10.005  c0.003,5.521,4.479,9.995,10,9.995c0.001,0,0.003,0,0.005,0l38.649-0.021c5.523-0.003,9.998-4.482,9.995-10.005  C331.997,224.51,327.521,220.036,322,220.036z" data-original="#000000" class="" style="fill:#FFFFFF" data-old_color="#000000"/><path d="M333,172.042h-33.427c-5.523,0-10,4.478-10,10s4.477,10,10,10H333c5.523,0,10-4.478,10-10S338.523,172.042,333,172.042z" data-original="#000000" class="" style="fill:#FFFFFF" data-old_color="#000000"/><path d="M368.77,172.04c-2.64,0-5.21,1.069-7.08,2.93c-1.86,1.86-2.92,4.44-2.92,7.07s1.06,5.21,2.92,7.069  c1.87,1.87,4.44,2.931,7.08,2.931c2.63,0,5.2-1.061,7.07-2.931c1.86-1.859,2.93-4.439,2.93-7.069s-1.07-5.21-2.93-7.07  C373.97,173.109,371.4,172.04,368.77,172.04z" data-original="#000000" class="" style="fill:#FFFFFF" data-old_color="#000000"/><path d="M374,492c-2.63,0-5.21,1.069-7.07,2.93c-1.86,1.86-2.93,4.44-2.93,7.07s1.07,5.21,2.93,7.069  c1.86,1.86,4.44,2.931,7.07,2.931s5.21-1.07,7.07-2.931c1.86-1.859,2.93-4.439,2.93-7.069s-1.07-5.21-2.93-7.07S376.63,492,374,492z  " data-original="#000000" class="" style="fill:#FFFFFF" data-old_color="#000000"/><path d="M456.75,286.5H430V42c0-23.159-18.841-42-42-42H124c-23.159,0-42,18.841-42,42v122.072C34.18,181.761,0,227.818,0,281.71  c0,69.133,56.244,125.376,125.376,125.376c47.857,0,89.531-26.957,110.653-66.479c-0.008,0.382-0.029,0.76-0.029,1.143v115  c0,30.465,24.785,55.25,55.25,55.25h46.727c5.523,0,10-4.478,10-10s-4.477-10-10-10H291.25c-19.437,0-35.25-15.813-35.25-35.25v-115  c0-19.437,15.813-35.25,35.25-35.25H308c5.523,0,10-4.478,10-10v-11.193l23.753,19.002c1.773,1.419,3.977,2.191,6.247,2.191h108.75  c19.437,0,35.25,15.813,35.25,35.25v115c0,19.437-15.813,35.25-35.25,35.25h-40.701c-5.523,0-10,4.478-10,10s4.477,10,10,10h40.701  c30.465,0,55.25-24.785,55.25-55.25v-115C512,311.285,487.215,286.5,456.75,286.5z M124,20h264c12.131,0,22,9.869,22,22v30H102V42  C102,29.869,111.869,20,124,20z M125.376,387.086C67.271,387.086,20,339.814,20,281.71c0-58.105,47.271-105.377,105.376-105.377  c24.419,0,48.22,8.543,67.019,24.055c1.792,1.479,4.042,2.287,6.365,2.287h37.86l-16.902,16.901  c-3.134,3.134-3.831,7.957-1.713,11.851c8.339,15.326,12.747,32.714,12.747,50.283C230.752,339.814,183.481,387.086,125.376,387.086  z M314.247,256.691c-3.002-2.4-7.114-2.869-10.579-1.204c-3.464,1.665-5.668,5.169-5.668,9.013v22h-6.75  c-17.427,0-32.985,8.119-43.119,20.763c1.716-8.253,2.621-16.799,2.621-25.553c0-18.366-4.054-36.575-11.777-53.105l28.858-28.858  c2.86-2.86,3.716-7.161,2.168-10.898c-1.548-3.736-5.194-6.173-9.239-6.173h-58.494c-21.902-17.012-49.063-26.342-76.892-26.342  c-7.988,0-15.8,0.76-23.376,2.195V92h308v194.5h-58.492L314.247,256.691z" data-original="#000000" class="" style="fill:#FFFFFF" data-old_color="#000000"/><path d="M310.023,431.25c5.523,0,10-4.478,10-10v-44c0-5.522-4.477-10-10-10s-10,4.478-10,10v12h-11.922v-12c0-5.522-4.477-10-10-10  s-10,4.478-10,10v44c0,5.522,4.477,10,10,10s10-4.478,10-10v-12h11.922v12C300.023,426.772,304.5,431.25,310.023,431.25z" data-original="#000000" class="" style="fill:#FFFFFF" data-old_color="#000000"/><path d="M455.5,367.25c-5.523,0-10,4.478-10,10v44c0,5.522,4.477,10,10,10h18.892c5.523,0,10-4.478,10-10s-4.477-10-10-10H465.5v-34  C465.5,371.728,461.023,367.25,455.5,367.25z" data-original="#000000" class="" style="fill:#FFFFFF" data-old_color="#000000"/><path d="M364.07,387.25c5.523,0,10-4.478,10-10s-4.477-10-10-10h-26.093c-5.523,0-10,4.478-10,10s4.477,10,10,10h3.046v34  c0,5.522,4.477,10,10,10s10-4.478,10-10v-34H364.07z" data-original="#000000" class="" style="fill:#FFFFFF" data-old_color="#000000"/><path d="M414.797,401.384v19.866c0,5.522,4.477,10,10,10s10-4.478,10-10v-44c0-4.045-2.437-7.691-6.173-9.239  c-3.735-1.544-8.037-0.692-10.898,2.168l-9.742,9.742l-9.742-9.742c-2.86-2.86-7.163-3.714-10.898-2.168  c-3.737,1.548-6.173,5.194-6.173,9.239v44c0,5.522,4.477,10,10,10s10-4.478,10-10v-19.866c1.847,1.719,4.281,2.68,6.813,2.68  S412.95,403.103,414.797,401.384z" data-original="#000000" class="" style="fill:#FFFFFF" data-old_color="#000000"/><path d="M73.486,265.14c4.426,0,8.587,1.724,11.717,4.854c3.905,3.904,10.238,3.905,14.142,0c3.905-3.905,3.906-10.237,0-14.143  c-6.907-6.907-16.091-10.711-25.859-10.711s-18.952,3.804-25.859,10.711c-6.908,6.907-10.711,16.091-10.711,25.859  s3.804,18.951,10.711,25.859c7.129,7.129,16.494,10.693,25.859,10.693s18.729-3.564,25.859-10.693  c3.905-3.905,3.906-10.237,0-14.143c-3.904-3.903-10.237-3.903-14.142,0c-6.462,6.461-16.974,6.461-23.434,0  c-3.13-3.13-4.854-7.291-4.854-11.717c0-4.427,1.724-8.587,4.854-11.717C64.899,266.862,69.06,265.14,73.486,265.14z" data-original="#000000" class="" style="fill:#FFFFFF" data-old_color="#000000"/><path d="M131.004,265.14h13.285c5.523,0,10-4.478,10-10s-4.477-10-10-10h-13.285c-12.839,0-23.285,10.445-23.285,23.285  s10.446,23.285,23.285,23.285c1.812,0,3.285,1.474,3.285,3.285s-1.474,3.285-3.285,3.285h-13.285c-5.523,0-10,4.478-10,10  s4.477,10,10,10h13.285c12.839,0,23.285-10.445,23.285-23.285s-10.446-23.285-23.285-23.285c-1.812,0-3.285-1.474-3.285-3.285  S129.193,265.14,131.004,265.14z" data-original="#000000" class="" style="fill:#FFFFFF" data-old_color="#000000"/><path d="M184.675,265.14h13.285c5.523,0,10-4.478,10-10s-4.477-10-10-10h-13.285c-12.839,0-23.285,10.445-23.285,23.285  s10.446,23.285,23.285,23.285c1.812,0,3.285,1.474,3.285,3.285s-1.474,3.285-3.285,3.285H171.39c-5.523,0-10,4.478-10,10  s4.477,10,10,10h13.285c12.839,0,23.285-10.445,23.285-23.285s-10.446-23.285-23.285-23.285c-1.812,0-3.285-1.474-3.285-3.285  S182.864,265.14,184.675,265.14z" data-original="#000000" class="" style="fill:#FFFFFF" data-old_color="#000000"/></symbol> 
<symbol id="mail" viewBox="0 0 32 32"><path d="M16 0C7.163 0 0 7.163 0 16s7.163 16 16 16 16-7.163 16-16S24.837 0 16 0zM8 8h16c.286 0 .563.061.817.177L16 18.463 7.183 8.176c.254-.116.531-.177.817-.177zM6 22V10c0-.042.002-.084.004-.125l5.864 6.842-5.8 5.8A1.983 1.983 0 0 1 5.999 22zm18 2H8c-.177 0-.35-.024-.517-.069l5.691-5.691L16 21.537l2.826-3.297 5.691 5.691c-.167.045-.34.069-.517.069zm2-2c0 .177-.024.35-.069.517l-5.8-5.8 5.865-6.842c.003.041.004.083.004.125v12z"></path></symbol> 
<symbol id="arrowUp" viewBox="0 0 192.701 192.701"><path d="M20.746,104.169l75.61-74.528l75.61,74.54c4.74,4.704,12.439,4.704,17.179,0s4.74-12.319,0-17.011l-84.2-82.997c-4.559-4.511-12.608-4.535-17.191,0l-84.2,83.009c-4.74,4.692-4.74,12.319,0,17.011C8.307,108.873,16.006,108.873,20.746,104.169z"/><path d="M104.946,88.373c-4.559-4.511-12.608-4.535-17.191,0l-84.2,82.997c-4.74,4.704-4.74,12.319,0,17.011c4.74,4.704,12.439,4.704,17.179,0l75.622-74.528l75.61,74.54c4.74,4.704,12.439,4.704,17.179,0s4.74-12.319,0-17.011L104.946,88.373z"/></symbol> 
<symbol id="Stackoverflow" viewBox="0 0 55 55"><path d="M 40.925781 1.890625 L 37.859375 2.417969 L 41.1875 20.625 L 44.03125 20.253906 Z M 29.96875 6.351563 L 27.101563 8.078125 L 37.300781 23.035156 L 39.820313 21.480469 Z M 20.796875 15.03125 L 19.113281 17.703125 L 34.5 27 L 35.902344 24.578125 Z M 16.375 24.402344 L 15.628906 27.402344 L 33.359375 31.894531 L 33.640625 29.203125 Z M 9 29 L 9 47.984375 L 38.902344 48 L 38.902344 47.984375 C 38.933594 47.984375 39 29 39 29 L 36 29 L 36 45 L 12 45 L 12 29 Z M 15.152344 32.355469 L 14.902344 35.339844 L 33 37 L 33.203125 34.5 Z M 14.902344 39 L 15 42 L 33 41.929688 L 33 39 Z"/></symbol> 
<symbol id="codepen" viewBox="0 0 100 100"><path d="M100 34.2c-.4-2.6-3.3-4-5.3-5.3-3.6-2.4-7.1-4.7-10.7-7.1-8.5-5.7-17.1-11.4-25.6-17.1-2-1.3-4-2.7-6-4-1.4-1-3.3-1-4.8 0-5.7 3.8-11.5 7.7-17.2 11.5L5.2 29C3 30.4.1 31.8 0 34.8c-.1 3.3 0 6.7 0 10v16c0 2.9-.6 6.3 2.1 8.1 6.4 4.4 12.9 8.6 19.4 12.9 8 5.3 16 10.7 24 16 2.2 1.5 4.4 3.1 7.1 1.3 2.3-1.5 4.5-3 6.8-4.5 8.9-5.9 17.8-11.9 26.7-17.8l9.9-6.6c.6-.4 1.3-.8 1.9-1.3 1.4-1 2-2.4 2-4.1V37.3c.1-1.1.2-2.1.1-3.1 0-.1 0 .2 0 0zM54.3 12.3L88 34.8 73 44.9 54.3 32.4V12.3zm-8.6 0v20L27.1 44.8 12 34.8l33.7-22.5zM8.6 42.8L19.3 50 8.6 57.2V42.8zm37.1 44.9L12 65.2l15-10.1 18.6 12.5v20.1zM50 60.2L34.8 50 50 39.8 65.2 50 50 60.2zm4.3 27.5v-20l18.6-12.5 15 10.1-33.6 22.4zm37.1-30.5L80.7 50l10.8-7.2-.1 14.4z"></path></symbol> 
<symbol id="clipboard" viewBox="0 0 32 32"><path d="M14 26.828l-6.414-7.414 1.828-1.828L14 21.172l8.586-7.586 1.829 1.828z"></path><path d="M29 4h-9a4 4 0 0 0-8 0H3a1 1 0 0 0-1 1v26a1 1 0 0 0 1 1h26a1 1 0 0 0 1-1V5a1 1 0 0 0-1-1zM16 2a2 2 0 1 1 .001 3.999A2 2 0 0 1 16 2zm12 28H4V6h4v3a1 1 0 0 0 1 1h14a1 1 0 0 0 1-1V6h4v24z"></path></symbol> 
<symbol id="dollar" viewBox="0 0 50 50"><path d="M15 2C6.716 2 0 8.716 0 17s6.716 15 15 15c8.284 0 15-6.716 15-15S23.284 2 15 2zm0 27C8.373 29 3 23.627 3 17S8.373 5 15 5s12 5.373 12 12-5.373 12-12 12zm1-13v-4h4v-2h-4V8h-2v2h-4v8h4v4h-4v2h4v2h2v-2h4v-8h-4zm-2 0h-2v-4h2v4zm4 6h-2v-4h2v4z"></path></symbol> 
<symbol id="text" viewBox="0 0 32 32"><path d="M27 0H3C1.35 0 0 1.35 0 3v26c0 1.65 1.35 3 3 3h24c1.65 0 3-1.35 3-3V3c0-1.65-1.35-3-3-3zm-1 28H4V4h22v24zM8 14h14v2H8zm0 4h14v2H8zm0 4h14v2H8zm0-12h14v2H8z"></path></symbol>
<symbol id="quotes" viewBox="0 0 32 32" ><path d="M25 20a7 7 0 1 1 7-7l.031 1c0 7.732-6.268 14-14 14v-4a9.934 9.934 0 0 0 7.071-2.929c.364-.364.695-.75.995-1.157A7.081 7.081 0 0 1 25 20zM7 20a7 7 0 1 1 7-7l.031 1c0 7.732-6.268 14-14 14v-4a9.934 9.934 0 0 0 7.071-2.929c.364-.364.695-.75.995-1.157A7.081 7.081 0 0 1 7 20z"></path></symbol>
<symbol id="phone" viewBox="0 0 24 24"><path d="M22 16.92v3a2 2 0 0 1-2.18 2 19.79 19.79 0 0 1-8.63-3.07 19.5 19.5 0 0 1-6-6 19.79 19.79 0 0 1-3.07-8.67A2 2 0 0 1 4.11 2h3a2 2 0 0 1 2 1.72 12.84 12.84 0 0 0 .7 2.81 2 2 0 0 1-.45 2.11L8.09 9.91a16 16 0 0 0 6 6l1.27-1.27a2 2 0 0 1 2.11-.45 12.84 12.84 0 0 0 2.81.7A2 2 0 0 1 22 16.92z"></path></symbol>
<symbol id="embed" viewBox="0 0 40 32" ><path d="M26 23l3 3 10-10-10-10-3 3 7 7z"></path><path d="M14 9l-3-3-10 10 10 10 3-3-7-7z"></path><path d="M21.916 4.704l2.171 0.592-6 22.001-2.171-0.592 6-22.001z"></path></symbol>
<symbol id="shield" viewBox="0 0 32 32" ><path d="M30.5 24H30v-6.5c0-1.93-1.57-3.5-3.5-3.5H18v-4h.5c.825 0 1.5-.675 1.5-1.5v-5c0-.825-.675-1.5-1.5-1.5h-5c-.825 0-1.5.675-1.5 1.5v5c0 .825.675 1.5 1.5 1.5h.5v4H5.5C3.57 14 2 15.57 2 17.5V24h-.5c-.825 0-1.5.675-1.5 1.5v5c0 .825.675 1.5 1.5 1.5h5c.825 0 1.5-.675 1.5-1.5v-5c0-.825-.675-1.5-1.5-1.5H6v-6h8v6h-.5c-.825 0-1.5.675-1.5 1.5v5c0 .825.675 1.5 1.5 1.5h5c.825 0 1.5-.675 1.5-1.5v-5c0-.825-.675-1.5-1.5-1.5H18v-6h8v6h-.5c-.825 0-1.5.675-1.5 1.5v5c0 .825.675 1.5 1.5 1.5h5c.825 0 1.5-.675 1.5-1.5v-5c0-.825-.675-1.5-1.5-1.5zM6 30H2v-4h4v4zm12 0h-4v-4h4v4zM14 8V4h4v4h-4zm16 22h-4v-4h4v4z"></path></symbol>
<symbol id="businessman" viewBox="0 0 81.016 81.016" xmlns="http://www.w3.org/2000/svg"><circle cx="40.509" cy="17.217" r="17.217"/><path d="m47.811 35.606h-14.608c-12.152 0-22.041 9.888-22.041 22.042v17.869l0.045 0.279 1.232 0.385c11.598 3.623 21.676 4.834 29.971 4.834 16.199 0 25.59-4.621 26.172-4.914l1.15-0.584h0.121v-17.869c1e-3 -12.154-9.886-22.042-22.042-22.042zm-3.901 34.677l-3.152 4.613c-0.043 0.063-0.111 0.1-0.186 0.1h-6e-3c-0.074 0-0.145-0.039-0.186-0.104l-2.928-4.616c-0.025-0.039-0.037-0.086-0.035-0.136l1.465-22.403c8e-3 -0.119 0.105-0.209 0.225-0.209h3.039c0.119 0 0.217 0.09 0.227 0.209l1.574 22.401c6e-3 0.053-9e-3 0.102-0.037 0.145zm-1.426-23.433h-3.613l-3.141-6.492c0-0.623 0.504-1.125 1.127-1.125h7.543c0.621 0 1.125 0.502 1.125 1.125l-3.041 6.492z"/></symbol>
<symbol id="www" viewBox="0 0 496 496"><path d="m8 167.988281h480c4.417969 0 8-3.582031 8-8s-3.582031-8-8-8h-11.488281c-37.5625-90.507812-125.222657-150.125-223.199219-151.800781h-.296875c-.496094-.054688-.996094-.078125-1.496094-.070312-2.0625-.1562505-4.128906-.1562505-6.191406 0-.75-.0195318-1.496094.015624-2.238281.101562h-.105469c-.097656 0-.183594 0-.28125 0-97.976563 1.664062-185.640625 61.269531-223.214844 151.769531h-11.488281c-4.417969 0-8 3.582031-8 8s3.582031 8 8 8zm309.023438-91.824219c-20.261719 2.289063-40.632813 3.542969-61.023438 3.753907v-63.066407c22.65625 4.136719 44.152344 25.710938 61.023438 59.3125zm-77.023438-59.3125v63.066407c-20.382812-.210938-40.738281-1.464844-60.992188-3.753907 16.792969-33.34375 38.207032-54.871093 60.992188-59.3125zm0 79.066407v56.070312h-86.398438c4.171876-20.730469 10.300782-41.019531 18.300782-60.59375 22.597656 2.78125 45.332031 4.292969 68.097656 4.523438zm16 0c22.761719-.230469 45.488281-1.742188 68.078125-4.53125 8 19.582031 14.136719 39.871093 18.320313 60.601562h-86.398438zm84.335938-6.851563c11.046874-1.78125 21.464843-3.878906 31.097656-6.277344 15.84375 20.941407 28.191406 44.308594 36.566406 69.199219h-49.320312c-4.167969-21.492187-10.308594-42.554687-18.34375-62.921875zm-6.59375-15.109375c-7.621094-16.742187-17.722657-32.238281-29.964844-45.96875 21.386718 9.652344 40.535156 23.652344 56.222656 41.105469-8.238281 1.839844-17.015625 3.46875-26.257812 4.863281zm-171.46875 0c-9.261719-1.394531-18.015626-3.015625-26.273438-4.863281 15.710938-17.488281 34.890625-31.511719 56.320312-41.175781-12.289062 13.738281-22.417968 29.261719-30.046874 46.039062zm-6.609376 15.109375c-8.03125 20.367188-14.171874 41.429688-18.34375 62.921875h-49.320312c8.378906-24.890625 20.734375-48.261719 36.585938-69.199219 9.613281 2.398438 20.03125 4.503907 31.078124 6.277344zm303.390626 62.921875h-34.191407c-8.335937-26.398437-20.773437-51.320312-36.863281-73.847656 4.640625-1.472656 9.011719-3.023437 13.113281-4.65625 24.675781 21.75 44.429688 48.515625 57.941407 78.503906zm-72.4375-90.207031c-2.949219 1-6.027344 1.96875-9.234376 2.902344-6.867187-8.136719-14.355468-15.730469-22.398437-22.710938 11.066406 5.730469 21.644531 12.355469 31.632813 19.808594zm-268 2.902344c-3.203126-.933594-6.277344-1.902344-9.234376-2.902344 10.007813-7.453125 20.601563-14.082031 31.679688-19.816406-8.054688 6.984375-15.558594 14.578125-22.445312 22.71875zm-23.695313 8.800781c4.09375 1.632813 8.464844 3.183594 13.109375 4.65625-16.097656 22.527344-28.550781 47.449219-36.894531 73.847656h-34.191407c13.523438-29.992187 33.289063-56.753906 57.976563-78.503906zm0 0"/><path d="m488 327.988281h-480c-4.417969 0-8 3.582031-8 8s3.582031 8 8 8h11.488281c37.5625 90.507813 125.222657 150.125 223.199219 151.800781h.296875c.496094.058594.996094.082032 1.496094.070313h.800781.472656c.796875.050781 1.542969.058594 2.285156.058594 1.015626 0 1.945313 0 2.546876-.058594.800781.03125 1.601562-.007813 2.398437-.109375h.078125.28125c97.957031-1.683594 185.597656-61.28125 223.167969-151.761719h11.488281c4.417969 0 8-3.582031 8-8s-3.582031-8-8-8zm-309.023438 91.824219c20.261719-2.289062 40.632813-3.542969 61.023438-3.753906v63.066406c-22.65625-4.136719-44.152344-25.710938-61.023438-59.3125zm77.023438 59.3125v-63.066406c20.382812.210937 40.738281 1.464844 60.992188 3.753906-16.792969 33.34375-38.214844 54.871094-60.992188 59.3125zm0-79.066406v-56.070313h86.398438c-4.171876 20.730469-10.300782 41.019531-18.300782 60.59375-22.597656-2.78125-45.332031-4.292969-68.097656-4.523437zm-16 0c-22.761719.230468-45.488281 1.742187-68.078125 4.53125-8-19.582032-14.136719-39.871094-18.320313-60.601563h86.398438zm-84.335938 6.851562c-11.046874 1.78125-21.464843 3.878906-31.097656 6.277344-15.84375-20.941406-28.191406-44.308594-36.566406-69.199219h49.335938c4.164062 21.492188 10.296874 42.554688 18.328124 62.921875zm6.59375 15.109375c7.617188 16.753907 17.722657 32.261719 29.964844 46-21.390625-9.660156-40.539062-23.667969-56.222656-41.136719 8.238281-1.839843 17.015625-3.46875 26.257812-4.863281zm171.46875 0c9.253907 1.394531 18.015626 3.015625 26.28125 4.863281-15.710937 17.488282-34.890624 31.515626-56.320312 41.183594 12.28125-13.742187 22.410156-29.265625 30.039062-46.046875zm6.609376-15.109375c8.03125-20.367187 14.171874-41.429687 18.34375-62.921875h49.320312c-8.378906 24.890625-20.734375 48.261719-36.585938 69.199219-9.613281-2.398438-20.03125-4.503906-31.078124-6.277344zm-303.390626-62.921875h34.191407c8.335937 26.398438 20.773437 51.320313 36.863281 73.847657-4.640625 1.472656-9.011719 3.023437-13.113281 4.65625-24.675781-21.75-44.429688-48.515626-57.941407-78.503907zm72.4375 90.207031c2.949219-.996093 6.027344-1.964843 9.234376-2.902343 6.882812 8.136719 14.382812 15.730469 22.4375 22.710937-11.078126-5.730468-21.667969-12.355468-31.671876-19.808594zm268-2.902343c3.203126.9375 6.277344 1.90625 9.234376 2.902343-10.007813 7.453126-20.601563 14.082032-31.679688 19.816407 8.054688-6.984375 15.558594-14.578125 22.445312-22.71875zm23.695313-8.800781c-4.09375-1.632813-8.464844-3.183594-13.109375-4.65625 16.097656-22.527344 28.550781-47.449219 36.894531-73.847657h34.191407c-13.523438 29.992188-33.289063 56.753907-57.976563 78.503907zm0 0"/><path d="m288.335938 205.691406-18.199219 60.695313-14.9375-29.972657c-1.503907-2.523437-4.222657-4.070312-7.160157-4.070312-2.933593 0-5.65625 1.546875-7.160156 4.070312l-15.015625 29.972657-18.199219-60.671875c-1.269531-4.230469-5.726562-6.632813-9.960937-5.367188-4.230469 1.269532-6.636719 5.726563-5.367187 9.960938l24 80c.941406 3.140625 3.707031 5.390625 6.976562 5.671875 3.277344.316406 6.402344-1.433594 7.847656-4.390625l16.839844-33.714844 16.800781 33.6875c1.359375 2.726562 4.152344 4.441406 7.199219 4.425781.230469.011719.457031.011719.6875 0 3.269531-.28125 6.035156-2.53125 6.976562-5.671875l24-80c1.269532-4.234375-1.136718-8.691406-5.367187-9.960937-4.234375-1.265625-8.691406 1.136719-9.960937 5.367187zm0 0"/><path d="m416.335938 205.691406-18.199219 60.695313-14.9375-29.972657c-1.503907-2.523437-4.222657-4.070312-7.160157-4.070312-2.933593 0-5.65625 1.546875-7.160156 4.070312l-15.015625 29.972657-18.199219-60.671875c-1.269531-4.230469-5.726562-6.632813-9.960937-5.367188-4.230469 1.269532-6.636719 5.726563-5.367187 9.960938l24 80c.941406 3.140625 3.707031 5.390625 6.976562 5.671875 3.273438.3125 6.402344-1.4375 7.847656-4.390625l16.839844-33.714844 16.800781 33.6875c1.359375 2.726562 4.152344 4.441406 7.199219 4.425781.230469.011719.457031.011719.6875 0 3.269531-.28125 6.035156-2.53125 6.976562-5.671875l24-80c1.269532-4.234375-1.136718-8.691406-5.367187-9.960937-4.234375-1.265625-8.691406 1.136719-9.960937 5.367187zm0 0"/><path d="m160.335938 205.691406-18.199219 60.695313-14.9375-29.972657c-1.503907-2.523437-4.222657-4.070312-7.160157-4.070312-2.933593 0-5.65625 1.546875-7.160156 4.070312l-15.015625 29.972657-18.199219-60.671875c-1.269531-4.230469-5.726562-6.632813-9.960937-5.367188-4.230469 1.269532-6.636719 5.726563-5.367187 9.960938l24 80c.941406 3.140625 3.707031 5.390625 6.976562 5.671875 3.277344.320312 6.40625-1.433594 7.847656-4.390625l16.839844-33.714844 16.839844 33.6875c1.355468 2.714844 4.128906 4.425781 7.160156 4.425781.230469.011719.457031.011719.6875 0 3.269531-.28125 6.035156-2.53125 6.976562-5.671875l24-80c1.269532-4.234375-1.136718-8.691406-5.367187-9.960937-4.234375-1.265625-8.691406 1.136719-9.960937 5.367187zm0 0"/></symbol>
<symbol id="user" viewBox="0 0 55 55">
<path d="M55,27.5C55,12.337,42.663,0,27.5,0S0,12.337,0,27.5c0,8.009,3.444,15.228,8.926,20.258l-0.026,0.023l0.892,0.752
c0.058,0.049,0.121,0.089,0.179,0.137c0.474,0.393,0.965,0.766,1.465,1.127c0.162,0.117,0.324,0.234,0.489,0.348
c0.534,0.368,1.082,0.717,1.642,1.048c0.122,0.072,0.245,0.142,0.368,0.212c0.613,0.349,1.239,0.678,1.88,0.98
c0.047,0.022,0.095,0.042,0.142,0.064c2.089,0.971,4.319,1.684,6.651,2.105c0.061,0.011,0.122,0.022,0.184,0.033
c0.724,0.125,1.456,0.225,2.197,0.292c0.09,0.008,0.18,0.013,0.271,0.021C25.998,54.961,26.744,55,27.5,55
c0.749,0,1.488-0.039,2.222-0.098c0.093-0.008,0.186-0.013,0.279-0.021c0.735-0.067,1.461-0.164,2.178-0.287
c0.062-0.011,0.125-0.022,0.187-0.034c2.297-0.412,4.495-1.109,6.557-2.055c0.076-0.035,0.153-0.068,0.229-0.104
c0.617-0.29,1.22-0.603,1.811-0.936c0.147-0.083,0.293-0.167,0.439-0.253c0.538-0.317,1.067-0.648,1.581-1
c0.185-0.126,0.366-0.259,0.549-0.391c0.439-0.316,0.87-0.642,1.289-0.983c0.093-0.075,0.193-0.14,0.284-0.217l0.915-0.764
l-0.027-0.023C51.523,42.802,55,35.55,55,27.5z M2,27.5C2,13.439,13.439,2,27.5,2S53,13.439,53,27.5
c0,7.577-3.325,14.389-8.589,19.063c-0.294-0.203-0.59-0.385-0.893-0.537l-8.467-4.233c-0.76-0.38-1.232-1.144-1.232-1.993v-2.957
c0.196-0.242,0.403-0.516,0.617-0.817c1.096-1.548,1.975-3.27,2.616-5.123c1.267-0.602,2.085-1.864,2.085-3.289v-3.545
c0-0.867-0.318-1.708-0.887-2.369v-4.667c0.052-0.52,0.236-3.448-1.883-5.864C34.524,9.065,31.541,8,27.5,8
s-7.024,1.065-8.867,3.168c-2.119,2.416-1.935,5.346-1.883,5.864v4.667c-0.568,0.661-0.887,1.502-0.887,2.369v3.545
c0,1.101,0.494,2.128,1.34,2.821c0.81,3.173,2.477,5.575,3.093,6.389v2.894c0,0.816-0.445,1.566-1.162,1.958l-7.907,4.313
c-0.252,0.137-0.502,0.297-0.752,0.476C5.276,41.792,2,35.022,2,27.5z"/>
</symbol>
<symbol id="quill" viewBox="0 0 331.331 331.331">
<path d="M30.421,317.462l4.422-17.661l-12.194-4.814l-8.376,13.804c0,0,4.618,12.526-0.511,22.539
	C13.766,331.331,20.184,320.399,30.421,317.462z M22.229,309.358c1.501-0.615,3.231,0.087,3.851,1.561
	c0.625,1.474-0.087,3.171-1.588,3.786c-1.501,0.615-3.231-0.087-3.851-1.561C20.01,311.664,20.723,309.967,22.229,309.358z"/>
<path d="M158.353,112.621c-35.115,28.8-81.086,88.124-120.073,157.423l-0.022-0.027l-6.815,12.026
	l7.267,2.796l3.84-10.117c20.799-37.491,77.224-135.4,180.397-200.451c0,0,38.411-22.877,76.256-54.516
	c-9.214,7.702-27.391,17.356-37.247,23.584C236.088,59.683,204.166,75.043,158.353,112.621z"/>
<path d="M33.2,215.365c-7.985,28.223-7.528,49.718-4.438,55.625h4.83
	c13.337-27.625,77.572-127.693,117.554-159.016c41.424-32.455,73.378-51.339,100.253-65.111
	c9.437-4.835,19.118-11.384,27.848-17.949c10.601-8.36,21.348-17.302,30.758-26.053L282.728,20.75L294.89,2.148L271.67,25.759
	L286.78,0c-35.746,3.225-68.918,21.109-68.918,21.109c-13.271,15.741-23.959,40.782-23.959,40.782
	c-0.37-12.521,8.11-31.481,8.11-31.481c-6.266,2.861-30.073,16.459-30.073,16.459c-11.645,9.66-15.262,35.06-15.262,35.06
	c-2.214-10.019,5.526-29.333,5.526-29.333c-33.543,19.32-57.502,52.231-57.502,52.231c-16.584,32.553-2.948,57.953-8.11,51.872
	c-5.162-6.081-4.052-28.261-4.052-28.261c-35.017,33.63-38.699,49.724-38.699,49.724c-5.896,14.31-11.058,52.59-11.058,52.59
	c-3.318-3.579,0-23.611,0-23.611c-8.479,17.889-4.422,34.701-4.422,34.701C34.309,240.407,33.2,215.365,33.2,215.365z"/>
<path d="M310.01,14.191c0,0-13.483,13.065-30.758,26.053c-27.081,21.359-53.156,38.819-53.156,38.819
	C123.945,139.425,67.025,237.932,48.212,271.708h10.002c3.535-2.834,8.844-4.971,31.014-11.389
	c28.011-8.11,44.72-25.041,44.72-25.041s-25.553,14.31-37.595,12.88s-28.223,3.1-28.223,3.1s-6.179-2.861,24.291-7.392
	s80.596-38.634,80.596-38.634s-19.167,7.87-28.011,7.152c-8.844-0.718-30.714,0-30.714,0c14.495-3.34,28.011-1.43,50.126-9.779
	c22.115-8.349,20.886-7.631,20.886-7.631c25.063-8.349,35.474-34.342,35.474-34.342c-4.335,1.67-37.443,5.722-51.176,1.67
	c-13.734-4.052-37.132,0-37.132,0c22.115-7.392,27.032-4.052,32.433-4.291c5.406-0.239,22.855,1.191,57.502-10.731
	s44.475-26.711,44.475-26.711l-23.366,3.122c15.257-2.567,32.455-12.662,32.455-12.662c-10.568,2.861-27.032,4.291-27.032,4.291
	c19.412-4.291,30.225-10.253,30.225-10.253c18.183-13.832,22.36-34.342,22.36-34.342c-25.803,8.822-46.194,4.77-46.194,4.77
	c35.387-2.382,45.215-11.449,50.126-13.592c4.917-2.148,6.94-11.03,6.94-11.03c-17.878,6.44-38.15,7.511-38.15,7.511
	c21.93-3.399,40.722-14.49,40.722-14.49V32.792c-8.479,4.83-23.399,8.588-23.399,8.588l23.219-15.023
	C316.091,18.841,310.01,14.191,310.01,14.191z"/>
<polygon points="23.551,290.571 37.361,296.103 39.933,289.989 26.124,284.458 	"/>
<path  d="M177.036,285.458c-45.628,21.936-89.462,36.888-147.758,38.846c-5.439,0.185-5.466,5.624,0,5.439
	c52.15-1.751,95.543-12.961,137.391-32.575c46.618-21.854,89.435-40.167,147.828-46.39c5.385-0.577,3.095-5.814-2.252-5.243
	C260.531,251.051,218.514,265.519,177.036,285.458z"/>
</symbol>
<symbol id="clock" viewBox="0 0 512 512">
<path d="M256,0C114.842,0,0,114.842,0,256s114.842,256,256,256s256-114.842,256-256S397.158,0,256,0z M256,494.933
		C124.254,494.933,17.067,387.746,17.067,256S124.254,17.067,256,17.067S494.933,124.254,494.933,256S387.746,494.933,256,494.933z
		"/>
	<path d="M256,42.667C138.368,42.667,42.667,138.368,42.667,256S138.368,469.333,256,469.333S469.333,373.632,469.333,256
		S373.632,42.667,256,42.667z M256,452.267c-108.22,0-196.267-88.038-196.267-196.267S147.78,59.733,256,59.733
		S452.267,147.772,452.267,256S364.22,452.267,256,452.267z"/>
	<path d="M256,76.8c-4.71,0-8.533,3.814-8.533,8.533v25.6c0,4.719,3.823,8.533,8.533,8.533s8.533-3.814,8.533-8.533v-25.6
		C264.533,80.614,260.71,76.8,256,76.8z"/>
	<path d="M256,392.533c-4.71,0-8.533,3.814-8.533,8.533v25.6c0,4.719,3.823,8.533,8.533,8.533s8.533-3.814,8.533-8.533v-25.6
		C264.533,396.348,260.71,392.533,256,392.533z"/>
	<path d="M426.667,247.467h-25.6c-4.71,0-8.533,3.814-8.533,8.533s3.823,8.533,8.533,8.533h25.6c4.71,0,8.533-3.814,8.533-8.533
		S431.377,247.467,426.667,247.467z"/>
	<path d="M110.933,247.467h-25.6c-4.71,0-8.533,3.814-8.533,8.533s3.823,8.533,8.533,8.533h25.6c4.71,0,8.533-3.814,8.533-8.533
		S115.644,247.467,110.933,247.467z"/>
	<path d="M256,221.867c-18.825,0-34.133,15.309-34.133,34.133c0,18.825,15.309,34.133,34.133,34.133
		c18.825,0,34.133-15.309,34.133-34.133C290.133,237.175,274.825,221.867,256,221.867z M256,273.067
		c-9.412,0-17.067-7.654-17.067-17.067c0-9.412,7.654-17.067,17.067-17.067c9.412,0,17.067,7.654,17.067,17.067
		C273.067,265.412,265.412,273.067,256,273.067z"/>
	<path d="M256,145.067c-4.71,0-8.533,3.814-8.533,8.533v76.8c0,4.719,3.823,8.533,8.533,8.533s8.533-3.814,8.533-8.533v-76.8
		C264.533,148.881,260.71,145.067,256,145.067z"/>
	<path d="M324.267,247.467H281.6c-4.71,0-8.533,3.814-8.533,8.533s3.823,8.533,8.533,8.533h42.667c4.71,0,8.533-3.814,8.533-8.533
		S328.977,247.467,324.267,247.467z"/>
	<path d="M159.454,147.388L142.566,130.5c-3.337-3.337-8.73-3.337-12.066,0c-3.336,3.336-3.336,8.73,0,12.066l16.888,16.887
		c1.664,1.664,3.849,2.5,6.033,2.5c2.185,0,4.369-0.828,6.033-2.5C162.79,156.117,162.79,150.724,159.454,147.388z"/>
	<path d="M381.5,369.434l-16.887-16.887c-3.337-3.337-8.73-3.337-12.066,0s-3.337,8.73,0,12.066l16.887,16.887
		c1.664,1.664,3.849,2.5,6.033,2.5c2.185,0,4.369-0.836,6.033-2.5C384.836,378.163,384.836,372.77,381.5,369.434z"/>
	<path d="M381.5,130.5c-3.337-3.337-8.73-3.337-12.066,0l-16.887,16.887c-3.337,3.337-3.337,8.73,0,12.066
		c1.664,1.664,3.849,2.5,6.033,2.5c2.176,0,4.361-0.828,6.033-2.5l16.887-16.887C384.836,139.23,384.836,133.837,381.5,130.5z"/>
	<path d="M159.454,352.546c-3.336-3.337-8.73-3.337-12.066,0L130.5,369.434c-3.337,3.337-3.337,8.73,0,12.066
		c1.664,1.664,3.849,2.5,6.033,2.5c2.185,0,4.369-0.836,6.033-2.5l16.887-16.887C162.79,361.276,162.79,355.883,159.454,352.546z"
		/>
</symbol>
<symbol id="calendar" viewBox="0 0 36.447 36.447">
<path d="M30.224,3.948h-1.098V2.75c0-1.517-1.197-2.75-2.67-2.75c-1.474,0-2.67,1.233-2.67,2.75v1.197h-2.74V2.75
		c0-1.517-1.197-2.75-2.67-2.75c-1.473,0-2.67,1.233-2.67,2.75v1.197h-2.74V2.75c0-1.517-1.197-2.75-2.67-2.75
		c-1.473,0-2.67,1.233-2.67,2.75v1.197H6.224c-2.343,0-4.25,1.907-4.25,4.25v24c0,2.343,1.907,4.25,4.25,4.25h24
		c2.344,0,4.25-1.907,4.25-4.25v-24C34.474,5.855,32.567,3.948,30.224,3.948z M25.286,2.75c0-0.689,0.525-1.25,1.17-1.25
		c0.646,0,1.17,0.561,1.17,1.25v4.896c0,0.689-0.524,1.25-1.17,1.25c-0.645,0-1.17-0.561-1.17-1.25V2.75z M17.206,2.75
		c0-0.689,0.525-1.25,1.17-1.25s1.17,0.561,1.17,1.25v4.896c0,0.689-0.525,1.25-1.17,1.25s-1.17-0.561-1.17-1.25V2.75z M9.125,2.75
		c0-0.689,0.525-1.25,1.17-1.25s1.17,0.561,1.17,1.25v4.896c0,0.689-0.525,1.25-1.17,1.25s-1.17-0.561-1.17-1.25V2.75z
			M31.974,32.198c0,0.965-0.785,1.75-1.75,1.75h-24c-0.965,0-1.75-0.785-1.75-1.75v-22h27.5V32.198z"/>
	<rect x="6.724" y="14.626" width="4.595" height="4.089"/>
	<rect x="12.857" y="14.626" width="4.596" height="4.089"/>
	<rect x="18.995" y="14.626" width="4.595" height="4.089"/>
	<rect x="25.128" y="14.626" width="4.596" height="4.089"/>
	<rect x="6.724" y="20.084" width="4.595" height="4.086"/>
	<rect x="12.857" y="20.084" width="4.596" height="4.086"/>
	<rect x="18.995" y="20.084" width="4.595" height="4.086"/>
	<rect x="25.128" y="20.084" width="4.596" height="4.086"/>
	<rect x="6.724" y="25.54" width="4.595" height="4.086"/>
	<rect x="12.857" y="25.54" width="4.596" height="4.086"/>
	<rect x="18.995" y="25.54" width="4.595" height="4.086"/>
	<rect x="25.128" y="25.54" width="4.596" height="4.086"/>
</symbol>
<symbol id="timeline" viewBox="0 0 459.785 459.785">
<path d="M173.322,114.954c-0.019,0.358-0.019,0.716,0,1.074c0.297,5.474,4.975,9.672,10.449,9.375h175.02
			c0.358,0.019,0.716,0.019,1.074,0c5.474-0.297,9.672-4.975,9.375-10.449V10.464c0.019-0.358,0.019-0.716,0-1.074
			c-0.297-5.474-4.975-9.672-10.449-9.375h-175.02c-0.358-0.019-0.716-0.019-1.074,0c-5.474,0.297-9.672,4.975-9.375,10.449
			V114.954z M194.22,20.913h154.122v83.592H194.22V20.913z"/>
		<path d="M421.486,282.137v-104.49c0.019-0.358,0.019-0.716,0-1.074c-0.297-5.474-4.975-9.672-10.449-9.375H183.771
			c-0.358-0.019-0.716-0.019-1.074,0c-5.474,0.297-9.672,4.975-9.375,10.449v104.49c-0.019,0.358-0.019,0.716,0,1.074
			c0.297,5.474,4.975,9.672,10.449,9.375h227.265c0.358,0.019,0.716,0.019,1.074,0C417.585,292.29,421.782,287.611,421.486,282.137
			z M400.588,271.688H194.22v-83.592h206.367V271.688z"/>
		<path d="M369.241,344.831c0.019-0.358,0.019-0.716,0-1.074c-0.297-5.474-4.975-9.672-10.449-9.375h-175.02
			c-0.358-0.019-0.716-0.019-1.074,0c-5.474,0.297-9.672,4.975-9.375,10.449v104.49c-0.019,0.358-0.019,0.716,0,1.074
			c0.297,5.474,4.975,9.672,10.449,9.375h175.02c0.358,0.019,0.716,0.019,1.074,0c5.474-0.297,9.672-4.975,9.375-10.449V344.831z
				M348.343,438.872H194.22V355.28h154.122V438.872z"/>
		<path d="M129.384,46.565c-5.482-24.497-29.785-39.912-54.282-34.429C54.356,16.778,39.6,35.181,39.575,56.439
			c-0.533,21.12,13.888,39.692,34.482,44.408v84.637c-24.526,5.352-40.07,29.572-34.718,54.098
			c3.789,17.365,17.353,30.929,34.718,34.718v84.637c-20.594,4.716-35.015,23.288-34.482,44.408
			c0.029,25.103,20.402,45.43,45.505,45.401c25.103-0.029,45.43-20.402,45.401-45.505c-0.024-21.259-14.781-39.661-35.526-44.304
			V274.3c20.688-4.684,35.281-23.199,35.004-44.408c0.277-21.21-14.316-39.724-35.004-44.408v-84.637
			C119.452,95.365,134.867,71.062,129.384,46.565z M110.106,403.345c-0.284,13.645-11.429,24.558-25.078,24.555
			c-13.561,0-24.555-10.994-24.555-24.555c0-13.561,10.994-24.555,24.555-24.555C98.677,378.787,109.822,389.7,110.106,403.345z
				M109.599,229.877c0.009,13.561-10.978,24.562-24.539,24.571c-0.01,0-0.021,0-0.031,0c-13.357-0.284-24.036-11.195-24.033-24.555
			c-0.003-13.36,10.676-24.271,24.033-24.555C98.59,205.329,109.591,216.315,109.599,229.877z M85.028,80.994
			C71.671,80.71,60.993,69.799,60.996,56.439c-0.003-13.36,10.676-24.271,24.033-24.555c13.648-0.003,24.793,10.91,25.078,24.555
			C109.822,70.085,98.677,80.997,85.028,80.994z"/>
		<path d="M215.118,57.484H275.2c5.771,0,10.449-4.678,10.449-10.449s-4.678-10.449-10.449-10.449h-60.082
			c-5.771,0-10.449,4.678-10.449,10.449S209.347,57.484,215.118,57.484z"/>
		<path d="M327.445,67.933H215.118c-5.771,0-10.449,4.678-10.449,10.449s4.678,10.449,10.449,10.449h112.327
			c5.771,0,10.449-4.678,10.449-10.449S333.216,67.933,327.445,67.933z"/>
		<path d="M215.118,224.668H275.2c5.771,0,10.449-4.678,10.449-10.449s-4.678-10.449-10.449-10.449h-60.082
			c-5.771,0-10.449,4.678-10.449,10.449S209.347,224.668,215.118,224.668z"/>
		<path d="M215.118,256.015h112.327c5.771,0,10.449-4.678,10.449-10.449s-4.678-10.449-10.449-10.449H215.118
			c-5.771,0-10.449,4.678-10.449,10.449S209.347,256.015,215.118,256.015z"/>
		<path d="M215.118,391.852H275.2c5.771,0,10.449-4.678,10.449-10.449s-4.678-10.449-10.449-10.449h-60.082
			c-5.771,0-10.449,4.678-10.449,10.449S209.347,391.852,215.118,391.852z"/>
		<path d="M215.118,423.198h112.327c5.771,0,10.449-4.678,10.449-10.449s-4.678-10.449-10.449-10.449H215.118
			c-5.771,0-10.449,4.678-10.449,10.449S209.347,423.198,215.118,423.198z"/>
			</symbol>
<symbol id="arrowDown" viewBox="0 0 192.701 192.701">
		<path d="M171.955,88.526l-75.61,74.528l-75.61-74.54c-4.74-4.704-12.439-4.704-17.179,0c-4.74,4.704-4.74,12.319,0,17.011
		l84.2,82.997c4.559,4.511,12.608,4.535,17.191,0l84.2-83.009c4.74-4.692,4.74-12.319,0-17.011
		C184.394,83.823,176.695,83.823,171.955,88.526z"/>
		<path d="M87.755,104.322c4.559,4.511,12.608,4.535,17.191,0l84.2-82.997c4.74-4.704,4.74-12.319,0-17.011
		c-4.74-4.704-12.439-4.704-17.179,0L96.345,78.842L20.734,4.314c-4.74-4.704-12.439-4.704-17.179,0
		c-4.74,4.704-4.74,12.319,0,17.011L87.755,104.322z"/>
</symbol>

</svg>
