<svg preserveAspectRatio="xMidYMid meet">

	<symbol xmlns="http://www.w3.org/2000/svg" viewBox="0 0 32 32" id="github">
		<path d="M16 0.395c-8.836 0-16 7.163-16 16 0 7.069 4.585 13.067 10.942 15.182 0.8 0.148 1.094-0.347 1.094-0.77 0-0.381-0.015-1.642-0.022-2.979-4.452 0.968-5.391-1.888-5.391-1.888-0.728-1.849-1.776-2.341-1.776-2.341-1.452-0.993 0.11-0.973 0.11-0.973 1.606 0.113 2.452 1.649 2.452 1.649 1.427 2.446 3.743 1.739 4.656 1.33 0.143-1.034 0.558-1.74 1.016-2.14-3.554-0.404-7.29-1.777-7.29-7.907 0-1.747 0.625-3.174 1.649-4.295-0.166-0.403-0.714-2.030 0.155-4.234 0 0 1.344-0.43 4.401 1.64 1.276-0.355 2.645-0.532 4.005-0.539 1.359 0.006 2.729 0.184 4.008 0.539 3.054-2.070 4.395-1.64 4.395-1.64 0.871 2.204 0.323 3.831 0.157 4.234 1.026 1.12 1.647 2.548 1.647 4.295 0 6.145-3.743 7.498-7.306 7.895 0.574 0.497 1.085 1.47 1.085 2.963 0 2.141-0.019 3.864-0.019 4.391 0 0.426 0.288 0.925 1.099 0.768 6.354-2.118 10.933-8.113 10.933-15.18 0-8.837-7.164-16-16-16z"></path>
	</symbol>

	<symbol xmlns="http://www.w3.org/2000/svg" viewBox="0 0 32 32" id="icon-circle-up">
		<path d="M0 16c0 8.837 7.163 16 16 16s16-7.163 16-16-7.163-16-16-16-16 7.163-16 16zM29 16c0 7.18-5.82 13-13 13s-13-5.82-13-13 5.82-13 13-13 13 5.82 13 13z"></path>
		<path d="M22.086 20.914l2.829-2.829-8.914-8.914-8.914 8.914 2.828 2.828 6.086-6.086z"></path>
	</symbol>

	<symbol xmlns="http://www.w3.org/2000/svg" viewBox="0 0 32 32" id="accessibility">
		<path d="M13 3a3 3 0 1 1 6 0 3 3 0 0 1-6 0z"></path>
		<path d="M20 10l10.3-4.443-.743-1.857L17 8h-2L2.443 3.7 1.7 5.557 12 10v8L7.898 31.268l1.87.709L15.572 19h.857l5.804 12.977 1.87-.709L20.001 18z"></path>
	</symbol>

	<symbol xmlns="http://www.w3.org/2000/svg" viewBox="0 0 32 32" id="address-book">
		<path d="M6 0v32h24V0H6zm12 8.01a3.99 3.99 0 1 1 0 7.98 3.99 3.99 0 0 1 0-7.98zM24 24H12v-2a4 4 0 0 1 4-4h4a4 4 0 0 1 4 4v2zM2 2h3v6H2V2zm0 8h3v6H2v-6zm0 8h3v6H2v-6zm0 8h3v6H2v-6z"></path>
	</symbol>

	<symbol xmlns="http://www.w3.org/2000/svg" viewBox="0 0 32 32" id="alarm">
		<path d="M16 4C8.268 4 2 10.268 2 18s6.268 14 14 14 14-6.268 14-14S23.732 4 16 4zm0 25.25C9.787 29.25 4.75 24.213 4.75 18S9.787 6.75 16 6.75 27.25 11.787 27.25 18 22.213 29.25 16 29.25zM29.212 8.974a6 6 0 0 0-9.959-6.643 16.011 16.011 0 0 1 9.96 6.643zM12.748 2.331a6 6 0 1 0-9.96 6.643 16.008 16.008 0 0 1 9.96-6.643z"></path>
		<path d="M16 18v-8h-2v10h8v-2z"></path>
	</symbol>

	<symbol xmlns="http://www.w3.org/2000/svg" viewBox="0 0 36 32" id="bubbles">
		<path d="M34 28.161a3.65 3.65 0 0 0 2 3.256v.498a7.42 7.42 0 0 1-6.414-2.251c-.819.218-1.688.336-2.587.336-4.971 0-9-3.582-9-8s4.029-8 9-8 9 3.582 9 8c0 1.73-.618 3.331-1.667 4.64a3.635 3.635 0 0 0-.333 1.522zM16 0c8.702 0 15.781 5.644 15.995 12.672A12.262 12.262 0 0 0 27 11.625c-2.986 0-5.807 1.045-7.942 2.943-2.214 1.968-3.433 4.607-3.433 7.432 0 1.396.298 2.747.867 3.993a19.66 19.66 0 0 1-2.987-.151C10.068 29.279 5.966 29.895 2 29.986v-.841C4.142 28.096 6 26.184 6 24c0-.305-.024-.604-.068-.897C2.313 20.72 0 17.079 0 13 0 5.82 7.163 0 16 0z"></path>
	</symbol>

	<symbol xmlns="http://www.w3.org/2000/svg" viewBox="0 0 32 32" id="cogs">
		<path d="M11.366 22.564l1.291-1.807-1.414-1.414-1.807 1.291a4.996 4.996 0 0 0-1.071-.444L8 18H6l-.365 2.19a4.946 4.946 0 0 0-1.071.444l-1.807-1.291-1.414 1.414 1.291 1.807a4.943 4.943 0 0 0-.443 1.071L.001 24v2l2.19.365c.107.377.256.736.444 1.071l-1.291 1.807 1.414 1.414 1.807-1.291c.335.187.694.337 1.071.444L6.001 32h2l.365-2.19a4.946 4.946 0 0 0 1.071-.444l1.807 1.291 1.414-1.414-1.291-1.807c.187-.335.337-.694.444-1.071l2.19-.365v-2l-2.19-.365a4.946 4.946 0 0 0-.444-1.071zM7 27a2 2 0 1 1-.001-3.999A2 2 0 0 1 7 27zm25-15v-2l-2.106-.383a8.715 8.715 0 0 0-.148-.743l1.799-1.159-.765-1.848-2.092.452a8.957 8.957 0 0 0-.422-.629l1.219-1.761-1.414-1.414-1.761 1.219a8.957 8.957 0 0 0-.629-.422l.452-2.092-1.848-.765-1.159 1.799a9.122 9.122 0 0 0-.743-.148L22 0h-2l-.383 2.106a8.715 8.715 0 0 0-.743.148L17.715.455l-1.848.765.452 2.092a8.957 8.957 0 0 0-.629.422l-1.761-1.219-1.414 1.414 1.219 1.761c-.149.203-.29.413-.422.629l-2.092-.452-.765 1.848 1.799 1.159a9.122 9.122 0 0 0-.148.743L10 10v2l2.106.383c.039.251.088.499.148.743l-1.799 1.159.765 1.848 2.092-.452c.132.216.273.426.422.629l-1.219 1.761 1.414 1.414 1.761-1.219c.203.149.413.29.629.422l-.452 2.092 1.848.765 1.159-1.799c.244.059.492.109.743.148L20 22h2l.383-2.106c.251-.039.499-.088.743-.148l1.159 1.799 1.848-.765-.452-2.092c.216-.132.426-.273.629-.422l1.761 1.219 1.414-1.414-1.219-1.761c.149-.203.29-.413.422-.629l2.092.452.765-1.848-1.799-1.159c.059-.244.109-.492.148-.743L32 12zm-11 3.35a4.35 4.35 0 1 1 .001-8.701A4.35 4.35 0 0 1 21 15.35z"></path>
	</symbol>

	<symbol xmlns="http://www.w3.org/2000/svg" viewBox="0 0 32 32" id="clipboard">
		<path d="M29 4h-9a4 4 0 0 0-8 0H3a1 1 0 0 0-1 1v26a1 1 0 0 0 1 1h26a1 1 0 0 0 1-1V5a1 1 0 0 0-1-1zM16 2a2 2 0 1 1 .001 3.999A2 2 0 0 1 16 2zm12 28H4V6h4v3a1 1 0 0 0 1 1h14a1 1 0 0 0 1-1V6h4v24z"></path>
		<path d="M14 26.828l-6.414-7.414 1.828-1.828L14 21.172l8.586-7.586 1.829 1.828z"></path>
	</symbol>

	<symbol xmlns="http://www.w3.org/2000/svg" viewBox="0 0 32 32" id="coin-dollar">
		<path d="M15 2C6.716 2 0 8.716 0 17s6.716 15 15 15c8.284 0 15-6.716 15-15S23.284 2 15 2zm0 27C8.373 29 3 23.627 3 17S8.373 5 15 5s12 5.373 12 12-5.373 12-12 12zm1-13v-4h4v-2h-4V8h-2v2h-4v8h4v4h-4v2h4v2h2v-2h4v-8h-4zm-2 0h-2v-4h2v4zm4 6h-2v-4h2v4z"></path>
	</symbol>

	<symbol xmlns="http://www.w3.org/2000/svg" viewBox="0 0 32 32" id="earth">
		<path d="M16 0C7.163 0 0 7.163 0 16s7.163 16 16 16 16-7.163 16-16S24.837 0 16 0zm0 30c-1.967 0-3.84-.407-5.538-1.139l7.286-8.197a.998.998 0 0 0 .253-.664v-3a1 1 0 0 0-1-1c-3.531 0-7.256-3.671-7.293-3.707A1 1 0 0 0 9.001 12h-4a1 1 0 0 0-1 1v6c0 .379.214.725.553.894l3.447 1.724v5.871c-3.627-2.53-6-6.732-6-11.489 0-2.147.484-4.181 1.348-6h3.652c.265 0 .52-.105.707-.293l4-4A1 1 0 0 0 12.001 5V2.581a14.013 14.013 0 0 1 4-.581c2.2 0 4.281.508 6.134 1.412A5.961 5.961 0 0 0 20.002 8c0 1.603.624 3.109 1.757 4.243a5.985 5.985 0 0 0 4.536 1.751c.432 1.619 1.211 5.833-.263 11.635a.936.936 0 0 0-.026.163A13.956 13.956 0 0 1 16.002 30z"></path>
	</symbol>

	<symbol xmlns="http://www.w3.org/2000/svg" viewBox="0 0 32 32" id="file-text">
		<path d="M27 0H3C1.35 0 0 1.35 0 3v26c0 1.65 1.35 3 3 3h24c1.65 0 3-1.35 3-3V3c0-1.65-1.35-3-3-3zm-1 28H4V4h22v24zM8 14h14v2H8zm0 4h14v2H8zm0 4h14v2H8zm0-12h14v2H8z"></path>
	</symbol>

	<symbol xmlns="http://www.w3.org/2000/svg" viewBox="0 0 34 32" id="library">
		<path d="M32 30v-2h-2V16h2v-2h-6v2h2v12h-6V16h2v-2h-6v2h2v12h-6V16h2v-2h-6v2h2v12H6V16h2v-2H2v2h2v12H2v2H0v2h34v-2h-2zM16 0h2l16 10v2H0v-2L16 0z"></path>
	</symbol>

	<symbol xmlns="http://www.w3.org/2000/svg" viewBox="0 0 32 32" id="location">
		<path d="M16 0C10.477 0 6 4.477 6 10c0 10 10 22 10 22s10-12 10-22c0-5.523-4.477-10-10-10zm0 16.125a6.125 6.125 0 1 1 0-12.25 6.125 6.125 0 0 1 0 12.25zM12.125 10a3.875 3.875 0 1 1 7.75 0 3.875 3.875 0 0 1-7.75 0z"></path>
	</symbol>

	<symbol xmlns="http://www.w3.org/2000/svg" viewBox="0 0 32 32" id="mail">
		<path d="M16 0C7.163 0 0 7.163 0 16s7.163 16 16 16 16-7.163 16-16S24.837 0 16 0zM8 8h16c.286 0 .563.061.817.177L16 18.463 7.183 8.176c.254-.116.531-.177.817-.177zM6 22V10c0-.042.002-.084.004-.125l5.864 6.842-5.8 5.8A1.983 1.983 0 0 1 5.999 22zm18 2H8c-.177 0-.35-.024-.517-.069l5.691-5.691L16 21.537l2.826-3.297 5.691 5.691c-.167.045-.34.069-.517.069zm2-2c0 .177-.024.35-.069.517l-5.8-5.8 5.865-6.842c.003.041.004.083.004.125v12z"></path>
	</symbol>

	<symbol xmlns="http://www.w3.org/2000/svg" viewBox="0 0 24 24" stroke="#000" stroke-width="2" stroke-linecap="round" stroke-linejoin="round" id="phone">
		<path d="M22 16.92v3a2 2 0 0 1-2.18 2 19.79 19.79 0 0 1-8.63-3.07 19.5 19.5 0 0 1-6-6 19.79 19.79 0 0 1-3.07-8.67A2 2 0 0 1 4.11 2h3a2 2 0 0 1 2 1.72 12.84 12.84 0 0 0 .7 2.81 2 2 0 0 1-.45 2.11L8.09 9.91a16 16 0 0 0 6 6l1.27-1.27a2 2 0 0 1 2.11-.45 12.84 12.84 0 0 0 2.81.7A2 2 0 0 1 22 16.92z"></path>
	</symbol>

	<symbol xmlns="http://www.w3.org/2000/svg" viewBox="0 0 32 32" id="quotes-right">
		<path d="M25 20a7 7 0 1 1 7-7l.031 1c0 7.732-6.268 14-14 14v-4a9.934 9.934 0 0 0 7.071-2.929c.364-.364.695-.75.995-1.157A7.081 7.081 0 0 1 25 20zM7 20a7 7 0 1 1 7-7l.031 1c0 7.732-6.268 14-14 14v-4a9.934 9.934 0 0 0 7.071-2.929c.364-.364.695-.75.995-1.157A7.081 7.081 0 0 1 7 20z"></path>
	</symbol>

	<symbol xmlns="http://www.w3.org/2000/svg" viewBox="0 0 32 32" stroke="#c49404" id="price-tag">
		<path d="M30.5 0h-12c-.825 0-1.977.477-2.561 1.061L1.06 15.94a1.505 1.505 0 0 0 0 2.121L13.939 30.94a1.505 1.505 0 0 0 2.121 0l14.879-14.879C31.522 15.478 32 14.325 32 13.5v-12c0-.825-.675-1.5-1.5-1.5zM23 12a3 3 0 1 1 0-6 3 3 0 0 1 0 6z"></path>
	</symbol>

	<symbol xmlns="http://www.w3.org/2000/svg" viewBox="0 0 32 32" id="rocket">
		<path d="M22 2L12 12H6l-6 8s6.357-1.77 10.065-.94L0 32l13.184-10.255C15.023 25.953 12 32 12 32l8-6v-6l10-10 2-10-10 2z"></path>
	</symbol>

	<symbol xmlns="http://www.w3.org/2000/svg" viewBox="0 0 32 32" id="shield">
		<path d="M30.5 24H30v-6.5c0-1.93-1.57-3.5-3.5-3.5H18v-4h.5c.825 0 1.5-.675 1.5-1.5v-5c0-.825-.675-1.5-1.5-1.5h-5c-.825 0-1.5.675-1.5 1.5v5c0 .825.675 1.5 1.5 1.5h.5v4H5.5C3.57 14 2 15.57 2 17.5V24h-.5c-.825 0-1.5.675-1.5 1.5v5c0 .825.675 1.5 1.5 1.5h5c.825 0 1.5-.675 1.5-1.5v-5c0-.825-.675-1.5-1.5-1.5H6v-6h8v6h-.5c-.825 0-1.5.675-1.5 1.5v5c0 .825.675 1.5 1.5 1.5h5c.825 0 1.5-.675 1.5-1.5v-5c0-.825-.675-1.5-1.5-1.5H18v-6h8v6h-.5c-.825 0-1.5.675-1.5 1.5v5c0 .825.675 1.5 1.5 1.5h5c.825 0 1.5-.675 1.5-1.5v-5c0-.825-.675-1.5-1.5-1.5zM6 30H2v-4h4v4zm12 0h-4v-4h4v4zM14 8V4h4v4h-4zm16 22h-4v-4h4v4z"></path>
	</symbol>

	<symbol xmlns="http://www.w3.org/2000/svg" viewBox="0 0 32 32" id="stats-dots">
		<path d="M4 28h28v4H0V0h4zm5-2a3 3 0 1 1 .262-5.988l3.225-5.375a3 3 0 1 1 5.026 0l3.225 5.375a3.238 3.238 0 0 1 .46-.005l5.324-9.316a3 3 0 1 1 2.28 1.302l-5.324 9.316a3 3 0 1 1-4.991.053l-3.225-5.375c-.086.007-.174.012-.262.012s-.176-.005-.262-.012l-3.225 5.375A3 3 0 0 1 9 25.999z"></path>
	</symbol>

	<symbol xmlns="http://www.w3.org/2000/svg" viewBox="0 0 36 32" id="tree">
		<path d="M24 24.082v-1.649c2.203-1.241 4-4.337 4-7.432 0-4.971 0-9-6-9s-6 4.029-6 9c0 3.096 1.797 6.191 4 7.432v1.649C13.216 24.637 8 27.97 8 32h28c0-4.03-5.216-7.364-12-7.918z"></path>
		<path d="M10.225 24.854c1.728-1.13 3.877-1.989 6.243-2.513a11.33 11.33 0 0 1-1.265-1.844c-.95-1.726-1.453-3.627-1.453-5.497 0-2.689 0-5.228.956-7.305.928-2.016 2.598-3.265 4.976-3.734C19.153 1.571 17.746 0 14 0 8 0 8 4.029 8 9c0 3.096 1.797 6.191 4 7.432v1.649c-6.784.555-12 3.888-12 7.918h8.719c.454-.403.956-.787 1.506-1.146z"></path>
	</symbol>

	<symbol xmlns="http://www.w3.org/2000/svg" viewBox="0 0 32 32" id="users">
		<path d="M30 0L16 4 2 0s-.141 1.616 0 4l14 4.378L30 4c.141-2.384 0-4 0-4zM2.256 6.097C3.006 13.931 5.803 27.104 16 32c10.197-4.896 12.995-18.069 13.744-25.903L16 11.264 2.256 6.097z"></path>
	</symbol>

	<symbol xmlns="http://www.w3.org/2000/svg" viewBox="0 0 32 32" id="zoom-in">
		<path d="M31.008 27.231l-7.58-6.447c-.784-.705-1.622-1.029-2.299-.998a11.954 11.954 0 0 0 2.87-7.787c0-6.627-5.373-12-12-12s-12 5.373-12 12 5.373 12 12 12c2.972 0 5.691-1.081 7.787-2.87-.031.677.293 1.515.998 2.299l6.447 7.58c1.104 1.226 2.907 1.33 4.007.23s.997-2.903-.23-4.007zM12 20a8 8 0 1 1 0-16 8 8 0 0 1 0 16zm2-14h-4v4H6v4h4v4h4v-4h4v-4h-4z"></path>
	</symbol>

	<symbol xmlns="http://www.w3.org/2000/svg" x="0px" y="0px" viewBox="0 0 27.02 27.02" style="enable-background:new 0 0 27.02 27.02;" id="home">
		<path d="M3.674,24.876c0,0-0.024,0.604,0.566,0.604c0.734,0,6.811-0.008,6.811-0.008l0.01-5.581c0,0-0.096-0.92,0.797-0.92h2.826c1.056,0,0.991,0.92,0.991,0.92l-0.012,5.563c0,0,5.762,0,6.667,0c0.749,0,0.715-0.752,0.715-0.752V14.413l-9.396-8.358l-9.975,8.358C3.674,14.413,3.674,24.876,3.674,24.876z" />
		<path d="M0,13.635c0,0,0.847,1.561,2.694,0l11.038-9.338l10.349,9.28c2.138,1.542,2.939,0,2.939,0L13.732,1.54L0,13.635z" />
		<polygon points="23.83,4.275 21.168,4.275 21.179,7.503 23.83,9.752" />
	</symbol>


	<symbol xmlns="http://www.w3.org/2000/svg" viewBox="0 0 511 511.99775" id="stack">
		<path d="m501.425781 238.109375-82.222656-41.109375 82.222656-41.113281c14.707031-7.351563 14.722657-28.414063 0-35.777344l-236-118c-5.632812-2.8125-12.257812-2.8125-17.890625 0l-236 118c-14.707031 7.355469-14.722656 28.417969 0 35.777344l82.222656 41.113281-82.222656 41.109375c-14.707031 7.355469-14.722656 28.414063 0 35.777344l82.222656 41.113281-82.222656 41.109375c-14.707031 7.355469-14.722656 28.414063 0 35.777344l236 118c5.621094 2.808593 12.246094 2.820312 17.890625 0l236-118c14.707031-7.355469 14.722657-28.414063 0-35.777344l-82.222656-41.109375 82.222656-41.113281c14.707031-7.351563 14.722657-28.414063 0-35.777344zm-244.945312-195.75 191.277343 95.640625-191.277343 95.636719-191.277344-95.636719zm191.277343 331.640625-191.277343 95.636719-191.277344-95.636719 73.277344-36.640625 109.054687 54.527344c5.625 2.808593 12.246094 2.820312 17.890625 0l109.054688-54.527344zm-191.277343-22.363281-191.277344-95.636719 73.277344-36.640625 109.054687 54.527344c5.625 2.808593 12.246094 2.820312 17.890625 0l109.054688-54.527344 73.277343 36.640625zm0 0" />
	</symbol>


	<symbol xmlns="http://www.w3.org/2000/svg" viewBox="0 -25 424 424" id="programming">
		<path d="m167.289062 272.132812c-1.601562 0-3.214843-.550781-4.53125-1.671874l-45.296874-38.570313c-1.5625-1.332031-2.460938-3.277344-2.460938-5.332031 0-2.050782.902344-3.996094 2.460938-5.328125l45.296874-38.570313c2.941407-2.507812 7.359376-2.152344 9.867188.789063 2.503906 2.945312 2.152344 7.363281-.792969 9.867187l-39.035156 33.242188 39.035156 33.242187c2.945313 2.507813 3.296875 6.925781.792969 9.867188-1.386719 1.628906-3.355469 2.464843-5.335938 2.464843zm0 0" />
		<path d="m256.710938 272.132812c-1.980469 0-3.949219-.835937-5.332032-2.464843-2.507812-2.941407-2.152344-7.359375.789063-9.867188l39.035156-33.242187-39.035156-33.242188c-2.941407-2.503906-3.296875-6.921875-.789063-9.867187 2.503906-2.941407 6.925782-3.296875 9.863282-.789063l45.296874 38.570313c1.5625 1.332031 2.460938 3.277343 2.460938 5.328125 0 2.054687-.898438 4-2.460938 5.332031l-45.296874 38.570313c-1.316407 1.121093-2.929688 1.671874-4.53125 1.671874zm0 0" />
		<path d="m195.964844 301.0625c-.480469 0-.964844-.050781-1.453125-.152344-3.78125-.796875-6.203125-4.511718-5.40625-8.292968l28.230469-134.035157c.796874-3.78125 4.507812-6.203125 8.292968-5.40625 3.78125.796875 6.203125 4.507813 5.40625 8.292969l-28.230468 134.035156c-.695313 3.296875-3.601563 5.558594-6.839844 5.558594zm0 0" />
		<path d="m377 374.085938h-330c-25.914062 0-47-21.082032-47-47v-280.085938c0-25.914062 21.085938-47 47-47h330c25.914062 0 47 21.085938 47 47v280.085938c0 25.917968-21.085938 47-47 47zm-330-360.085938c-18.195312 0-33 14.804688-33 33v280.085938c0 18.195312 14.804688 33 33 33h330c18.195312 0 33-14.804688 33-33v-280.085938c0-18.195312-14.804688-33-33-33zm0 0" />
		<path d="m417 112.089844h-410c-3.867188 0-7-3.132813-7-7 0-3.863282 3.132812-7 7-7h410c3.867188 0 7 3.136718 7 7 0 3.867187-3.132812 7-7 7zm0 0" />
		<path d="m119.601562 78.59375c-12.210937 0-22.152343-9.941406-22.152343-22.152344 0-12.214844 9.941406-22.152344 22.152343-22.152344 12.214844 0 22.152344 9.9375 22.152344 22.152344 0 12.210938-9.9375 22.152344-22.152344 22.152344zm0-30.304688c-4.492187 0-8.152343 3.65625-8.152343 8.152344s3.660156 8.152344 8.152343 8.152344c4.496094 0 8.152344-3.65625 8.152344-8.152344s-3.65625-8.152344-8.152344-8.152344zm0 0" />
		<path d="m51.539062 78.378906c-12.214843 0-22.152343-9.9375-22.152343-22.152344 0-12.214843 9.9375-22.152343 22.152343-22.152343 12.214844 0 22.152344 9.9375 22.152344 22.152343 0 12.214844-9.9375 22.152344-22.152344 22.152344zm0-30.304687c-4.492187 0-8.152343 3.660156-8.152343 8.152343 0 4.496094 3.660156 8.152344 8.152343 8.152344 4.496094 0 8.152344-3.65625 8.152344-8.152344 0-4.492187-3.65625-8.152343-8.152344-8.152343zm0 0" />
		<path d="m187.664062 78.804688c-12.210937 0-22.148437-9.9375-22.148437-22.152344 0-12.210938 9.9375-22.148438 22.148437-22.148438 12.214844 0 22.152344 9.9375 22.152344 22.148438 0 12.214844-9.9375 22.152344-22.152344 22.152344zm0-30.304688c-4.492187 0-8.148437 3.65625-8.148437 8.152344s3.65625 8.152344 8.148437 8.152344c4.496094 0 8.152344-3.65625 8.152344-8.152344s-3.65625-8.152344-8.152344-8.152344zm0 0" />
	</symbol>



	<symbol xmlns="http://www.w3.org/2000/svg" viewBox="0 0 512.001 512.001" id="tuts">
		<path d="M504.313,378.767H39.971V95.837c0-14.272,11.322-25.882,25.238-25.882H84.84c4.245,0,7.687-3.442,7.687-7.687
			s-3.442-7.687-7.687-7.687H65.21c-22.393,0-40.612,18.507-40.612,41.256v282.93H7.687c-4.245,0-7.687,3.441-7.687,7.687v15.86
			c0,30.386,24.721,55.107,55.107,55.107h401.787c30.386,0,55.107-24.721,55.107-55.107v-15.86
			C512,382.207,508.558,378.767,504.313,378.767z M496.627,402.314L496.627,402.314c-0.001,21.909-17.825,39.733-39.734,39.733
			H55.107c-21.909,0-39.733-17.824-39.733-39.733v-8.173h481.253V402.314z" />
		<path d="M446.79,54.581H121.054c-4.245,0-7.687,3.442-7.687,7.687s3.442,7.687,7.687,7.687H446.79
			c13.916,0,25.238,11.611,25.238,25.882v261.386c0,4.246,3.442,7.687,7.687,7.687s7.687-3.441,7.687-7.687V95.837
			C487.402,73.087,469.183,54.581,446.79,54.581z" />
		<path d="M445.894,91.478H69.69c-4.245,0-7.687,3.442-7.687,7.687v251.035c0,4.246,3.442,7.687,7.687,7.687h376.204
			c4.245,0,7.687-3.441,7.687-7.687V99.165C453.581,94.92,450.139,91.478,445.894,91.478z M438.207,342.512H77.376V106.852h360.831
			V342.512z" />
		<path d="M344.589,195.93l-4.76-0.6c-1.085-3.11-2.351-6.162-3.788-9.136l2.948-3.79c5.362-6.893,4.749-16.747-1.427-22.922
			l-15.321-15.321c-6.168-6.168-16.016-6.787-22.908-1.439l-3.81,2.957c-2.943-1.422-5.962-2.676-9.036-3.753l-0.597-4.774
			c-1.083-8.665-8.484-15.199-17.217-15.199h-21.669c-8.723,0-16.124,6.526-17.214,15.181l-0.6,4.76
			c-3.108,1.085-6.158,2.35-9.131,3.786l-3.81-2.958c-6.892-5.348-16.739-4.73-22.907,1.439l-15.322,15.322
			c-6.175,6.175-6.788,16.029-1.427,22.921l2.948,3.79c-1.437,2.975-2.703,6.026-3.788,9.136l-4.761,0.601
			c-8.654,1.091-15.18,8.491-15.18,17.214v21.669c0.002,8.734,6.536,16.134,15.201,17.216l4.774,0.597
			c1.077,3.074,2.332,6.093,3.754,9.036l-2.957,3.809c-5.349,6.89-4.731,16.738,1.438,22.908l15.321,15.321
			c6.175,6.176,16.03,6.79,22.922,1.427l3.79-2.949c2.975,1.438,6.026,2.703,9.136,3.788l0.601,4.76
			c1.09,8.655,8.491,15.181,17.214,15.181h21.669c8.732,0,16.134-6.534,17.217-15.199l0.597-4.773
			c3.076-1.078,6.096-2.333,9.041-3.756l3.789,2.948c6.894,5.361,16.748,4.749,22.922-1.426l15.322-15.323
			c6.168-6.168,6.786-16.016,1.438-22.906l-2.958-3.81c1.422-2.943,2.676-5.961,3.753-9.036l4.773-0.597
			c8.666-1.082,15.201-8.483,15.201-17.217v-21.669C359.77,204.421,353.244,197.02,344.589,195.93z M344.399,234.815
			c0,0.995-0.744,1.838-1.733,1.961l-9.657,1.207c-3.062,0.383-5.598,2.559-6.441,5.528c-1.498,5.276-3.626,10.4-6.324,15.229
			c-1.504,2.692-1.253,6.024,0.638,8.461l5.975,7.699c0.61,0.785,0.538,1.907-0.164,2.609l-15.322,15.323
			c-0.704,0.703-1.827,0.771-2.612,0.162l-7.68-5.974c-2.438-1.898-5.774-2.15-8.47-0.643c-4.833,2.701-9.959,4.83-15.238,6.33
			c-2.968,0.844-5.145,3.38-5.527,6.442l-1.207,9.656c-0.124,0.988-0.967,1.733-1.962,1.733h-21.669
			c-0.994,0-1.837-0.744-1.962-1.731l-1.216-9.643c-0.386-3.061-2.565-5.595-5.534-6.435c-5.31-1.502-10.464-3.639-15.319-6.352
			c-1.171-0.655-2.463-0.977-3.749-0.977c-1.675,0-3.341,0.546-4.721,1.619l-7.68,5.974c-0.786,0.612-1.907,0.541-2.612-0.163
			l-15.321-15.321c-0.703-0.704-0.774-1.826-0.164-2.61l5.975-7.699c1.891-2.437,2.142-5.769,0.638-8.461
			c-2.698-4.829-4.826-9.954-6.325-15.23c-0.843-2.968-3.379-5.144-6.441-5.527l-9.658-1.207c-0.987-0.123-1.731-0.966-1.731-1.961
			v-21.668h0.001c0-0.994,0.744-1.837,1.73-1.962l9.644-1.216c3.062-0.386,5.596-2.565,6.435-5.535
			c1.502-5.31,3.639-10.464,6.351-15.318c1.507-2.696,1.254-6.031-0.643-8.469l-5.974-7.681c-0.611-0.785-0.54-1.908,0.163-2.612
			l15.322-15.322c0.704-0.702,1.826-0.772,2.61-0.164l7.698,5.975c2.438,1.892,5.769,2.143,8.462,0.639
			c4.851-2.71,10.002-4.845,15.309-6.346c2.97-0.84,5.149-3.374,5.535-6.436l1.216-9.643c0.125-0.986,0.968-1.73,1.962-1.73h21.669
			c0.995,0,1.839,0.745,1.962,1.732l1.207,9.657c0.382,3.062,2.559,5.598,5.527,6.441c5.276,1.499,10.4,3.627,15.229,6.325
			c2.693,1.505,6.026,1.253,8.462-0.639l7.698-5.974c0.786-0.61,1.908-0.538,2.611,0.164l15.322,15.322
			c0.704,0.704,0.774,1.827,0.163,2.612l-5.974,7.68c-1.896,2.438-2.149,5.774-0.643,8.47c2.712,4.853,4.849,10.006,6.351,15.317
			c0.839,2.97,3.373,5.149,6.435,5.535l9.643,1.216c0.986,0.125,1.73,0.968,1.73,1.962V234.815z" />
		<path d="M257.793,169.1c-30.235,0-54.832,24.598-54.832,54.832c0,7.612,1.533,14.984,4.556,21.911
			c1.695,3.891,6.226,5.668,10.117,3.971c3.891-1.697,5.669-6.229,3.971-10.119c-2.171-4.977-3.272-10.281-3.272-15.764
			c0-21.758,17.701-39.459,39.459-39.459s39.459,17.701,39.459,39.459c0,21.757-17.701,39.459-39.459,39.459
			c-6.667,0-13.252-1.691-19.043-4.89c-3.716-2.052-8.392-0.704-10.445,3.013c-2.053,3.716-0.704,8.392,3.012,10.445
			c8.062,4.452,17.217,6.806,26.477,6.806c30.235,0,54.832-24.598,54.832-54.832S288.027,169.1,257.793,169.1z" />
	</symbol>

	<symbol version="1.1" xmlns="http://www.w3.org/2000/svg" x="0px" y="0px" viewBox="0 0 24 24" style="enable-background:new 0 0 24 24;" xml:space="preserve" id="exclamation">
		<g><path d="M12,0C5.373,0,0,5.373,0,12s5.373,12,12,12s12-5.373,12-12S18.627,0,12,0z M12,19.66
			c-0.938,0-1.58-0.723-1.58-1.66c0-0.964,0.669-1.66,1.58-1.66c0.963,0,1.58,0.696,1.58,1.66C13.58,18.938,12.963,19.66,12,19.66z
			M12.622,13.321c-0.239,0.815-0.992,0.829-1.243,0c-0.289-0.956-1.316-4.585-1.316-6.942c0-3.11,3.891-3.125,3.891,0
			C13.953,8.75,12.871,12.473,12.622,13.321z" /></g>
	</symbol>
	
	<symbol id="dots" enable-background="new 0 0 515.555 515.555" viewBox="0 0 515.555 515.555" xmlns="http://www.w3.org/2000/svg">
		<path d="m303.347 18.875c25.167 25.167 25.167 65.971 0 91.138s-65.971 25.167-91.138 0-25.167-65.971 0-91.138c25.166-25.167 65.97-25.167 91.138 0" />
		<path d="m303.347 212.209c25.167 25.167 25.167 65.971 0 91.138s-65.971 25.167-91.138 0-25.167-65.971 0-91.138c25.166-25.167 65.97-25.167 91.138 0" />
		<path d="m303.347 405.541c25.167 25.167 25.167 65.971 0 91.138s-65.971 25.167-91.138 0-25.167-65.971 0-91.138c25.166-25.167 65.97-25.167 91.138 0" />
	</symbol>
	
</svg>
